<?xml version="1.0" encoding="UTF-8"?>
<svg xmlns="http://www.w3.org/2000/svg" xmlns:xlink="http://www.w3.org/1999/xlink" width="375pt" height="374.999991pt" viewBox="0 0 375 374.999991" version="1.2">
<g id="surface1">
<path style=" stroke:none;fill-rule:nonzero;fill:rgb(96.078491%,94.119263%,92.158508%);fill-opacity:1;" d="M 203.859375 185.769531 L 189.613281 176.152344 C 188.644531 175.53125 187.398438 175.738281 186.707031 176.707031 C 186.085938 177.675781 186.292969 178.921875 187.261719 179.613281 L 195.90625 185.425781 L 170.160156 185.425781 L 170.160156 189.574219 L 195.90625 189.574219 L 187.261719 195.386719 C 186.292969 196.007812 186.085938 197.324219 186.707031 198.292969 C 187.121094 198.914062 187.746094 199.191406 188.4375 199.191406 C 188.851562 199.191406 189.265625 199.054688 189.613281 198.847656 L 203.929688 189.230469 C 204.484375 188.8125 204.828125 188.191406 204.828125 187.5 C 204.828125 186.808594 204.484375 186.183594 203.859375 185.769531 Z M 203.859375 185.769531 "/>
</g>
</svg>
