<svg width="140" height="137" viewBox="0 0 140 137" fill="none" xmlns="http://www.w3.org/2000/svg">
<path d="M40.4946 28.9276L40.5969 29.1557L40.4946 28.9276ZM67.5517 28.8437L67.4713 29.0804L67.5517 28.8437ZM23.2819 48.6832L23.5089 48.788L23.2819 48.6832ZM21.0007 67.8577L21.2504 67.8476L21.0007 67.8577ZM21.113 70.9074L20.8631 70.9147L21.113 70.9074ZM21.0745 76.0865L21.3244 76.0929L21.0745 76.0865ZM24.5808 92.8237L24.7718 92.6623L24.5808 92.8237ZM38.3793 98.597L38.3351 98.8431L38.3793 98.597ZM46.0033 100.352L46.0837 100.115L46.0033 100.352ZM54.0218 104.231L54.1436 104.013L54.0218 104.231ZM57.8983 106.325L58.0706 106.144L58.0438 106.118L58.0108 106.102L57.8983 106.325ZM70.809 114.179L70.7287 114.416L70.809 114.179ZM97.8661 114.095L97.7638 113.867L97.8661 114.095ZM115.079 94.3398L115.306 94.4446L115.079 94.3398ZM117.36 75.1653L117.61 75.1552L117.36 75.1653ZM117.248 72.1157L116.998 72.123L117.248 72.1157ZM117.286 66.9365L117.536 66.9428L117.286 66.9365ZM113.78 50.1994L113.589 50.3608L113.78 50.1994ZM99.9815 44.426L99.9373 44.6721L99.9815 44.426ZM92.3574 42.6711L92.277 42.9078L92.3574 42.6711ZM84.339 38.7915L84.2171 39.0098L84.339 38.7915ZM80.4624 36.698L80.2901 36.8791L80.3169 36.9046L80.35 36.9213L80.4624 36.698ZM40.5969 29.1557C49.0068 25.3868 58.8733 26.162 67.4713 29.0804L67.632 28.607C58.9631 25.6644 48.9571 24.8612 40.3924 28.6994L40.5969 29.1557ZM23.5089 48.788C27.2063 40.7797 32.4203 32.82 40.5969 29.1557L40.3924 28.6994C32.0442 32.4407 26.7649 40.5429 23.055 48.5784L23.5089 48.788ZM21.2504 67.8476C20.9837 61.2675 20.7265 54.8145 23.5089 48.788L23.055 48.5784C20.2139 54.7321 20.4849 61.3087 20.7509 67.8678L21.2504 67.8476ZM21.3629 70.9C21.3329 69.8814 21.2916 68.863 21.2504 67.8476L20.7509 67.8678C20.792 68.8838 20.8332 69.8994 20.8631 70.9147L21.3629 70.9ZM21.3244 76.0929C21.3686 74.3494 21.413 72.6028 21.3629 70.9L20.8631 70.9147C20.9127 72.6014 20.8688 74.3342 20.8246 76.0802L21.3244 76.0929ZM24.7718 92.6623C21.0279 88.2334 21.1696 82.198 21.3244 76.0929L20.8246 76.0802C20.671 82.1365 20.5011 88.3847 24.3899 92.985L24.7718 92.6623ZM38.4234 98.3509C33.1037 97.3968 27.9896 96.4689 24.7718 92.6623L24.3899 92.985C27.7452 96.9542 33.0612 97.8971 38.3351 98.8431L38.4234 98.3509ZM46.0837 100.115C43.6465 99.2873 41.0138 98.8156 38.4234 98.3509L38.3351 98.8431C40.9328 99.309 43.5275 99.7749 45.9229 100.589L46.0837 100.115ZM54.1436 104.013C51.5153 102.546 48.8433 101.053 46.0837 100.115L45.9229 100.589C48.6316 101.509 51.2633 102.978 53.8999 104.45L54.1436 104.013ZM58.0108 106.102C56.7239 105.454 55.4389 104.736 54.1436 104.013L53.8999 104.45C55.1934 105.172 56.4879 105.895 57.7859 106.548L58.0108 106.102ZM70.8894 113.943C66.0373 112.296 61.6921 109.589 58.0706 106.144L57.726 106.506C61.3973 109.998 65.8045 112.745 70.7287 114.416L70.8894 113.943ZM97.7638 113.867C89.3539 117.636 79.4874 116.861 70.8894 113.943L70.7287 114.416C79.3977 117.359 89.4036 118.162 97.9683 114.324L97.7638 113.867ZM114.852 94.235C111.154 102.243 105.94 110.203 97.7638 113.867L97.9683 114.324C106.317 110.582 111.596 102.48 115.306 94.4446L114.852 94.235ZM117.11 75.1754C117.377 81.7555 117.634 88.2085 114.852 94.235L115.306 94.4446C118.147 88.2909 117.876 81.7143 117.61 75.1552L117.11 75.1754ZM116.998 72.123C117.028 73.1416 117.069 74.16 117.11 75.1754L117.61 75.1552C117.569 74.1393 117.528 73.1236 117.498 72.1083L116.998 72.123ZM117.036 66.9302C116.992 68.6736 116.948 70.4202 116.998 72.123L117.498 72.1083C117.448 70.4216 117.492 68.6888 117.536 66.9428L117.036 66.9302ZM113.589 50.3608C117.333 54.7896 117.191 60.825 117.036 66.9302L117.536 66.9428C117.69 60.8865 117.86 54.6383 113.971 50.038L113.589 50.3608ZM99.9373 44.6721C105.257 45.6263 110.371 46.5542 113.589 50.3608L113.971 50.038C110.616 46.0688 105.3 45.1259 100.026 44.1799L99.9373 44.6721ZM92.277 42.9078C94.7142 43.7357 97.3469 44.2075 99.9373 44.6721L100.026 44.1799C97.4279 43.714 94.8332 43.2481 92.4378 42.4344L92.277 42.9078ZM84.2171 39.0098C86.8454 40.4774 89.5175 41.9704 92.277 42.9078L92.4378 42.4344C89.7291 41.5142 87.0974 40.0455 84.4608 38.5733L84.2171 39.0098ZM80.35 36.9213C81.6368 37.5691 82.9218 38.2865 84.2171 39.0098L84.4608 38.5733C83.1673 37.8509 81.8729 37.1281 80.5748 36.4747L80.35 36.9213ZM67.4713 29.0804C72.3234 30.7274 76.6686 33.4343 80.2901 36.8791L80.6347 36.5168C76.9635 33.0247 72.5562 30.2784 67.632 28.607L67.4713 29.0804Z" fill="#FD8061"/>
<path d="M41.6646 26.3524L41.7668 26.5805L41.6646 26.3524ZM68.7216 26.2685L68.6413 26.5052L68.7216 26.2685ZM24.4519 46.108L24.6788 46.2128L24.4519 46.108ZM22.1706 65.2825L22.4204 65.2724L22.1706 65.2825ZM22.2829 68.3322L22.033 68.3395L22.2829 68.3322ZM22.2444 73.5113L22.4943 73.5177L22.2444 73.5113ZM25.7508 90.2485L25.9417 90.0871L25.7508 90.2485ZM39.5492 96.0218L39.505 96.2679L39.5492 96.0218ZM47.1732 97.7767L47.2536 97.54L47.1732 97.7767ZM55.1917 101.656L55.3136 101.438L55.1917 101.656ZM59.0683 103.75L59.2406 103.569L59.2137 103.543L59.1807 103.527L59.0683 103.75ZM71.979 111.604L71.8986 111.841L71.979 111.604ZM99.036 111.52L98.9338 111.292L99.036 111.52ZM116.249 91.7646L116.476 91.8694L116.249 91.7646ZM118.53 72.5901L118.78 72.58L118.53 72.5901ZM118.418 69.5405L118.168 69.5478L118.418 69.5405ZM118.456 64.3613L118.706 64.3676L118.456 64.3613ZM114.95 47.6242L114.759 47.7856L114.95 47.6242ZM101.151 41.8508L101.107 42.0969L101.151 41.8508ZM93.5273 40.0959L93.4469 40.3326L93.5273 40.0959ZM85.5089 36.2163L85.387 36.4346L85.5089 36.2163ZM81.6323 34.1228L81.46 34.3039L81.4868 34.3294L81.5199 34.3461L81.6323 34.1228ZM41.7668 26.5805C50.1768 22.8116 60.0432 23.5868 68.6413 26.5052L68.802 26.0318C60.133 23.0892 50.127 22.286 41.5623 26.1242L41.7668 26.5805ZM24.6788 46.2128C28.3762 38.2045 33.5902 30.2448 41.7668 26.5805L41.5623 26.1242C33.2141 29.8655 27.9348 37.9677 24.2249 46.0032L24.6788 46.2128ZM22.4204 65.2724C22.1536 58.6923 21.8964 52.2393 24.6788 46.2128L24.2249 46.0032C21.3838 52.1569 21.6549 58.7335 21.9208 65.2926L22.4204 65.2724ZM22.5328 68.3248C22.5028 67.3062 22.4615 66.2878 22.4204 65.2724L21.9208 65.2926C21.962 66.3086 22.0031 67.3242 22.033 68.3395L22.5328 68.3248ZM22.4943 73.5177C22.5385 71.7742 22.5829 70.0276 22.5328 68.3248L22.033 68.3395C22.0826 70.0263 22.0388 71.759 21.9945 73.505L22.4943 73.5177ZM25.9417 90.0871C22.1978 85.6582 22.3395 79.6228 22.4943 73.5177L21.9945 73.505C21.8409 79.5613 21.6711 85.8095 25.5598 90.4099L25.9417 90.0871ZM39.5933 95.7757C34.2737 94.8216 29.1595 93.8937 25.9417 90.0871L25.5598 90.4099C28.9151 94.379 34.2311 95.3219 39.505 96.2679L39.5933 95.7757ZM47.2536 97.54C44.8164 96.7121 42.1837 96.2404 39.5933 95.7757L39.505 96.2679C42.1028 96.7338 44.6974 97.1997 47.0928 98.0135L47.2536 97.54ZM55.3136 101.438C52.6852 99.9704 50.0132 98.4775 47.2536 97.54L47.0928 98.0135C49.8015 98.9336 52.4333 100.402 55.0698 101.875L55.3136 101.438ZM59.1807 103.527C57.8938 102.879 56.6088 102.161 55.3136 101.438L55.0698 101.875C56.3634 102.597 57.6578 103.32 58.9559 103.973L59.1807 103.527ZM72.0593 111.367C67.2072 109.72 62.862 107.014 59.2406 103.569L58.896 103.931C62.5672 107.423 66.9744 110.169 71.8986 111.841L72.0593 111.367ZM98.9338 111.292C90.5238 115.061 80.6573 114.286 72.0593 111.367L71.8986 111.841C80.5676 114.783 90.5735 115.587 99.1382 111.748L98.9338 111.292ZM116.022 91.6598C112.324 99.6681 107.11 107.628 98.9338 111.292L99.1382 111.748C107.486 108.007 112.766 99.905 116.476 91.8694L116.022 91.6598ZM118.28 72.6002C118.547 79.1803 118.804 85.6333 116.022 91.6598L116.476 91.8694C119.317 85.7157 119.046 79.1391 118.78 72.58L118.28 72.6002ZM118.168 69.5478C118.198 70.5664 118.239 71.5848 118.28 72.6002L118.78 72.58C118.739 71.5641 118.697 70.5484 118.668 69.5331L118.168 69.5478ZM118.206 64.355C118.162 66.0984 118.118 67.845 118.168 69.5478L118.668 69.5331C118.618 67.8464 118.662 66.1136 118.706 64.3676L118.206 64.355ZM114.759 47.7856C118.503 52.2144 118.361 58.2498 118.206 64.355L118.706 64.3676C118.86 58.3114 119.029 52.0631 115.141 47.4628L114.759 47.7856ZM101.107 42.0969C106.427 43.0511 111.541 43.979 114.759 47.7856L115.141 47.4628C111.785 43.4936 106.469 42.5507 101.196 41.6047L101.107 42.0969ZM93.4469 40.3326C95.8842 41.1606 98.5168 41.6323 101.107 42.0969L101.196 41.6047C98.5978 41.1388 96.0032 40.6729 93.6078 39.8592L93.4469 40.3326ZM85.387 36.4346C88.0153 37.9023 90.6874 39.3952 93.4469 40.3326L93.6078 39.8592C90.8991 38.939 88.2673 37.4703 85.6308 35.9981L85.387 36.4346ZM81.5199 34.3461C82.8067 34.9939 84.0917 35.7113 85.387 36.4346L85.6308 35.9981C84.3372 35.2757 83.0428 34.5529 81.7447 33.8995L81.5199 34.3461ZM68.6413 26.5052C73.4933 28.1522 77.8386 30.8591 81.46 34.3039L81.8046 33.9416C78.1334 30.4495 73.7262 27.7032 68.802 26.0318L68.6413 26.5052Z" fill="#FD8061"/>
<path d="M42.8345 23.7772L42.9367 24.0053L42.8345 23.7772ZM69.8915 23.6933L69.8112 23.93L69.8915 23.6933ZM25.6218 43.5328L25.8488 43.6376L25.6218 43.5328ZM23.3405 62.7073L23.5903 62.6972L23.3405 62.7073ZM23.4528 65.757L23.2029 65.7643L23.4528 65.757ZM23.4143 70.9361L23.6643 70.9425L23.4143 70.9361ZM26.9207 87.6733L27.1116 87.5119L26.9207 87.6733ZM40.7191 93.4466L40.675 93.6927L40.7191 93.4466ZM48.3431 95.2015L48.4235 94.9648L48.3431 95.2015ZM56.3616 99.0811L56.4835 98.8628L56.3616 99.0811ZM60.2382 101.175L60.4105 100.994L60.3837 100.968L60.3506 100.951L60.2382 101.175ZM73.1489 109.029L73.0685 109.266L73.1489 109.029ZM100.206 108.945L100.104 108.717L100.206 108.945ZM117.419 89.1894L117.646 89.2942L117.419 89.1894ZM119.7 70.0149L119.95 70.0048L119.7 70.0149ZM119.588 66.9653L119.338 66.9726L119.588 66.9653ZM119.626 61.7861L119.876 61.7924L119.626 61.7861ZM116.12 45.049L115.929 45.2104L116.12 45.049ZM102.321 39.2756L102.277 39.5217L102.321 39.2756ZM94.6973 37.5207L94.6169 37.7574L94.6973 37.5207ZM86.6788 33.6411L86.5569 33.8594L86.6788 33.6411ZM82.8022 31.5476L82.6299 31.7287L82.6567 31.7542L82.6898 31.7709L82.8022 31.5476ZM42.9367 24.0053C51.3467 20.2364 61.2132 21.0116 69.8112 23.93L69.9719 23.4566C61.3029 20.514 51.2969 19.7108 42.7323 23.549L42.9367 24.0053ZM25.8488 43.6376C29.5461 35.6293 34.7602 27.6697 42.9367 24.0053L42.7323 23.549C34.3841 27.2903 29.1047 35.3925 25.3948 43.428L25.8488 43.6376ZM23.5903 62.6972C23.3235 56.1171 23.0664 49.6642 25.8488 43.6376L25.3948 43.428C22.5537 49.5817 22.8248 56.1583 23.0907 62.7174L23.5903 62.6972ZM23.7027 65.7496C23.6727 64.731 23.6315 63.7127 23.5903 62.6972L23.0907 62.7174C23.1319 63.7334 23.1731 64.749 23.2029 65.7643L23.7027 65.7496ZM23.6643 70.9425C23.7085 69.199 23.7528 67.4524 23.7027 65.7496L23.2029 65.7643C23.2526 67.4511 23.2087 69.1838 23.1644 70.9298L23.6643 70.9425ZM27.1116 87.5119C23.3677 83.083 23.5094 77.0476 23.6643 70.9425L23.1644 70.9298C23.0108 76.9861 22.841 83.2343 26.7298 87.8347L27.1116 87.5119ZM40.7632 93.2005C35.4436 92.2464 30.3294 91.3185 27.1116 87.5119L26.7298 87.8347C30.085 91.8038 35.4011 92.7467 40.675 93.6927L40.7632 93.2005ZM48.4235 94.9648C45.9863 94.1369 43.3537 93.6652 40.7632 93.2005L40.675 93.6927C43.2727 94.1586 45.8673 94.6245 48.2627 95.4383L48.4235 94.9648ZM56.4835 98.8628C53.8552 97.3952 51.1831 95.9023 48.4235 94.9648L48.2627 95.4383C50.9714 96.3584 53.6032 97.8271 56.2397 99.2994L56.4835 98.8628ZM60.3506 100.951C59.0638 100.304 57.7788 99.5861 56.4835 98.8628L56.2397 99.2994C57.5333 100.022 58.8277 100.745 60.1258 101.398L60.3506 100.951ZM73.2292 108.792C68.3771 107.145 64.0319 104.438 60.4105 100.994L60.0659 101.356C63.7371 104.848 68.1443 107.594 73.0685 109.266L73.2292 108.792ZM100.104 108.717C91.6937 112.486 81.8272 111.711 73.2292 108.792L73.0685 109.266C81.7375 112.208 91.7435 113.011 100.308 109.173L100.104 108.717ZM117.192 89.0846C113.494 97.0929 108.28 105.053 100.104 108.717L100.308 109.173C108.656 105.432 113.936 97.3298 117.646 89.2942L117.192 89.0846ZM119.45 70.025C119.717 76.6051 119.974 83.0581 117.192 89.0846L117.646 89.2942C120.487 83.1405 120.216 76.5639 119.95 70.0048L119.45 70.025ZM119.338 66.9726C119.368 67.9912 119.409 69.0096 119.45 70.025L119.95 70.0048C119.909 68.9889 119.867 67.9733 119.837 66.9579L119.338 66.9726ZM119.376 61.7798C119.332 63.5232 119.288 65.2698 119.338 66.9726L119.837 66.9579C119.788 65.2712 119.832 63.5384 119.876 61.7924L119.376 61.7798ZM115.929 45.2104C119.673 49.6393 119.531 55.6746 119.376 61.7798L119.876 61.7924C120.03 55.7362 120.199 49.4879 116.311 44.8876L115.929 45.2104ZM102.277 39.5217C107.597 40.4759 112.711 41.4038 115.929 45.2104L116.311 44.8876C112.955 40.9184 107.639 39.9755 102.365 39.0295L102.277 39.5217ZM94.6169 37.7574C97.0541 38.5854 99.6867 39.0571 102.277 39.5217L102.365 39.0295C99.7677 38.5636 97.1731 38.0977 94.7777 37.284L94.6169 37.7574ZM86.5569 33.8594C89.1852 35.3271 91.8573 36.82 94.6169 37.7574L94.7777 37.284C92.069 36.3638 89.4372 34.8951 86.8007 33.4229L86.5569 33.8594ZM82.6898 31.7709C83.9767 32.4187 85.2616 33.1361 86.5569 33.8594L86.8007 33.4229C85.5071 32.7006 84.2127 31.9777 82.9146 31.3243L82.6898 31.7709ZM69.8112 23.93C74.6633 25.577 79.0085 28.2839 82.6299 31.7287L82.9745 31.3664C79.3033 27.8743 74.8961 25.128 69.9719 23.4566L69.8112 23.93Z" fill="#FD8061"/>
<path d="M44.0044 21.202L44.1067 21.4301L44.0044 21.202ZM71.0614 21.1181L70.9811 21.3548L71.0614 21.1181ZM26.7917 40.9576L27.0187 41.0624L26.7917 40.9576ZM24.5104 60.1321L24.7602 60.122L24.5104 60.1321ZM24.6227 63.1818L24.3729 63.1891L24.6227 63.1818ZM24.5843 68.3609L24.8342 68.3673L24.5843 68.3609ZM28.0906 85.0981L28.2815 84.9367L28.0906 85.0981ZM41.889 90.8714L41.8449 91.1175L41.889 90.8714ZM49.5131 92.6263L49.5935 92.3896L49.5131 92.6263ZM57.5315 96.5059L57.6534 96.2876L57.5315 96.5059ZM61.4081 98.5995L61.5804 98.4183L61.5536 98.3928L61.5205 98.3762L61.4081 98.5995ZM74.3188 106.454L74.2384 106.69L74.3188 106.454ZM101.376 106.37L101.274 106.142L101.376 106.37ZM118.589 86.6142L118.816 86.719L118.589 86.6142ZM120.87 67.4397L121.12 67.4296L120.87 67.4397ZM120.757 64.3901L120.508 64.3974L120.757 64.3901ZM120.796 59.2109L121.046 59.2173L120.796 59.2109ZM117.29 42.4738L117.099 42.6352L117.29 42.4738ZM103.491 36.7004L103.447 36.9465L103.491 36.7004ZM95.8672 34.9455L95.7868 35.1822L95.8672 34.9455ZM87.8487 31.066L87.7268 31.2842L87.8487 31.066ZM83.9721 28.9724L83.7998 29.1535L83.8267 29.179L83.8597 29.1957L83.9721 28.9724ZM44.1067 21.4301C52.5166 17.6612 62.3831 18.4364 70.9811 21.3548L71.1418 20.8814C62.4728 17.9388 52.4669 17.1356 43.9022 20.9738L44.1067 21.4301ZM27.0187 41.0624C30.716 33.0541 35.9301 25.0945 44.1067 21.4301L43.9022 20.9738C35.554 24.7151 30.2747 32.8173 26.5647 40.8528L27.0187 41.0624ZM24.7602 60.122C24.4934 53.5419 24.2363 47.089 27.0187 41.0624L26.5647 40.8528C23.7236 47.0065 23.9947 53.5831 24.2606 60.1422L24.7602 60.122ZM24.8726 63.1744C24.8427 62.1558 24.8014 61.1375 24.7602 60.122L24.2606 60.1422C24.3018 61.1582 24.343 62.1738 24.3729 63.1891L24.8726 63.1744ZM24.8342 68.3673C24.8784 66.6238 24.9227 64.8772 24.8726 63.1744L24.3729 63.1891C24.4225 64.8759 24.3786 66.6086 24.3343 68.3546L24.8342 68.3673ZM28.2815 84.9367C24.5377 80.5078 24.6793 74.4724 24.8342 68.3673L24.3343 68.3546C24.1807 74.4109 24.0109 80.6591 27.8997 85.2595L28.2815 84.9367ZM41.9332 90.6253C36.6135 89.6712 31.4993 88.7433 28.2815 84.9367L27.8997 85.2595C31.2549 89.2286 36.571 90.1715 41.8449 91.1175L41.9332 90.6253ZM49.5935 92.3896C47.1562 91.5617 44.5236 91.09 41.9332 90.6253L41.8449 91.1175C44.4426 91.5834 47.0372 92.0493 49.4326 92.8631L49.5935 92.3896ZM57.6534 96.2876C55.0251 94.82 52.353 93.3271 49.5935 92.3896L49.4326 92.8631C52.1413 93.7832 54.7731 95.252 57.4096 96.7242L57.6534 96.2876ZM61.5205 98.3762C60.2337 97.7284 58.9487 97.0109 57.6534 96.2876L57.4096 96.7242C58.7032 97.4465 59.9976 98.1693 61.2957 98.8228L61.5205 98.3762ZM74.3992 106.217C69.5471 104.57 65.2018 101.863 61.5804 98.4183L61.2358 98.7806C64.907 102.273 69.3142 105.019 74.2384 106.69L74.3992 106.217ZM101.274 106.142C92.8636 109.911 82.9972 109.135 74.3992 106.217L74.2384 106.69C82.9074 109.633 92.9134 110.436 101.478 106.598L101.274 106.142ZM118.362 86.5094C114.664 94.5177 109.45 102.477 101.274 106.142L101.478 106.598C109.826 102.857 115.106 94.7546 118.816 86.719L118.362 86.5094ZM120.62 67.4498C120.887 74.0299 121.144 80.4829 118.362 86.5094L118.816 86.719C121.657 80.5653 121.386 73.9887 121.12 67.4296L120.62 67.4498ZM120.508 64.3974C120.538 65.416 120.579 66.4344 120.62 67.4498L121.12 67.4296C121.078 66.4137 121.037 65.3981 121.007 64.3827L120.508 64.3974ZM120.546 59.2046C120.502 60.948 120.457 62.6946 120.508 64.3974L121.007 64.3827C120.958 62.696 121.002 60.9633 121.046 59.2173L120.546 59.2046ZM117.099 42.6352C120.843 47.0641 120.701 53.0994 120.546 59.2046L121.046 59.2173C121.2 53.161 121.369 46.9127 117.481 42.3124L117.099 42.6352ZM103.447 36.9465C108.767 37.9007 113.881 38.8286 117.099 42.6352L117.481 42.3124C114.125 38.3432 108.809 37.4003 103.535 36.4544L103.447 36.9465ZM95.7868 35.1822C98.224 36.0102 100.857 36.4819 103.447 36.9465L103.535 36.4544C100.938 35.9884 98.343 35.5225 95.9476 34.7088L95.7868 35.1822ZM87.7268 31.2842C90.3552 32.7519 93.0272 34.2448 95.7868 35.1822L95.9476 34.7088C93.2389 33.7886 90.6071 32.3199 87.9706 30.8477L87.7268 31.2842ZM83.8597 29.1957C85.1466 29.8435 86.4316 30.561 87.7268 31.2842L87.9706 30.8477C86.677 30.1254 85.3826 29.4025 84.0846 28.7491L83.8597 29.1957ZM70.9811 21.3548C75.8332 23.0018 80.1784 25.7087 83.7998 29.1535L84.1444 28.7913C80.4732 25.2991 76.066 22.5528 71.1418 20.8814L70.9811 21.3548Z" fill="#FD8061"/>
<path fill-rule="evenodd" clip-rule="evenodd" d="M65.6786 29.5463C57.0451 26.6158 47.1089 25.8266 38.6216 29.6302C30.3592 33.333 25.1125 41.3639 21.4089 49.3859C18.5971 55.476 18.8613 61.9907 19.1276 68.5603C19.1688 69.576 19.21 70.593 19.2399 71.61C19.2898 73.3048 19.2457 75.0444 19.2014 76.7892C19.0472 82.8699 18.8915 89.0117 22.7078 93.5263C25.9943 97.4142 31.2094 98.3496 36.5062 99.2996C39.1003 99.7649 41.7139 100.234 44.1302 101.055C46.8644 101.983 49.5163 103.464 52.1487 104.934C53.4431 105.657 54.7328 106.377 56.0253 107.028C59.6716 110.496 64.0478 113.223 68.936 114.882C77.5695 117.812 87.5057 118.602 95.993 114.798C104.255 111.095 109.502 103.064 113.206 95.0424C116.017 88.9523 115.753 82.4375 115.487 75.8679C115.446 74.8522 115.405 73.8352 115.375 72.8183C115.325 71.1235 115.369 69.3839 115.413 67.6391C115.567 61.5584 115.723 55.4166 111.907 50.902C108.62 47.0141 103.405 46.0787 98.1084 45.1286C95.5143 44.6634 92.9007 44.1946 90.4844 43.3737C87.7503 42.4449 85.0983 40.9641 82.4659 39.4942C81.1715 38.7714 79.8818 38.0512 78.5893 37.4006C74.943 33.9321 70.5668 31.2055 65.6786 29.5463Z" fill="#24997F"/>
</svg>
