<svg xmlns="http://www.w3.org/2000/svg" viewBox="0 0 1000 1000"><title>Mesa de trabajo 5</title><g id="Capa_1" data-name="Capa 1"><path d="M642.19,621.74V806.39H437.42V621.74a102,102,0,0,1,5.45-33L357,521.41a31.83,31.83,0,0,1-10.66-15.23A31.74,31.74,0,0,1,341.5,493L324.45,363.07A32,32,0,0,1,352,327.17a31.52,31.52,0,0,1,4.2-.28,32,32,0,0,1,31.69,27.85l16,122.13,77.5,60.75a102.39,102.39,0,0,1,160.75,84.12Z" fill="#fff" stroke="#4f3cc9" stroke-miterlimit="10" stroke-width="1.84"/><rect x="521.17" y="487.34" width="28.01" height="63.48" rx="14" transform="translate(-35.92 39.8) rotate(-4.12)" fill="#fff" stroke="#4f3cc9" stroke-miterlimit="10" stroke-width="1.96"/><polygon points="520.22 520.32 535.45 551.92 514.09 543.57 518.06 536.82 504.32 525.68 520.22 520.32" fill="#4f3cc9"/><path d="M577.34,424.4s-43.53-80-130.25,49l58.23,27.87S558.61,405,577.34,424.4Z" fill="#f582ae"/><path d="M504.2,473.76S493,496,447.09,473.39l58.23,27.87,7.09-10.94" fill="#4f3cc9"/><ellipse cx="542.5" cy="453.5" rx="48.03" ry="34.36" transform="translate(-132.77 663.22) rotate(-57.15)" fill="#fff" stroke="#4f3cc9" stroke-miterlimit="10" stroke-width="1.96"/><path d="M542.8,469.4s-13,16.59-28.71.87" fill="none" stroke="#4f3cc9" stroke-linecap="round" stroke-miterlimit="10" stroke-width="1.96"/><circle cx="525.55" cy="423.02" r="3.61" fill="#4f3cc9"/><circle cx="539.66" cy="438.64" r="3.61" fill="#4f3cc9"/><path d="M549.94,451.71s7.36-19.26-5.63-25.29" fill="none" stroke="#4f3cc9" stroke-linecap="round" stroke-miterlimit="10" stroke-width="1.96"/><path d="M538.84,417.16s-10.72,7.27-14.63-8.53" fill="none" stroke="#4f3cc9" stroke-linecap="round" stroke-miterlimit="10" stroke-width="1.96"/><path d="M580.38,517.12,522.22,495.6S573.1,421,553.39,403.1C553.39,403.1,640.58,439.9,580.38,517.12Z" fill="#f582ae"/><polygon points="534.3 430.12 517.23 450.49 524.99 455.47 534.3 430.12" fill="#f582ae"/><ellipse cx="538.24" cy="451.94" rx="2.02" ry="5.46" transform="translate(-71.49 801.48) rotate(-69.84)" fill="#f582ae"/><ellipse cx="516.67" cy="440.58" rx="1.02" ry="3.94" transform="matrix(0.34, -0.94, 0.94, 0.34, -74.97, 773.79)" fill="#f582ae"/><path d="M337.38,283.93a5.48,5.48,0,0,1,5.77,3.33c.62-.22,1.25-.42,1.88-.61l-.13-1a5.5,5.5,0,0,1,10.9-1.44l.16,1.2.32,0-.54-4.06a5.5,5.5,0,0,1,10.91-1.44l1.1,8.37c.63.29,1.24.59,1.83.92l-.95-24a6.5,6.5,0,0,1,13-.51l1.31,33a6.53,6.53,0,0,1-.83,3.46,32.5,32.5,0,1,1-49.05-8l-.4-3.07A5.5,5.5,0,0,1,337.38,283.93Z" fill="#fff" stroke="#4f3cc9" stroke-miterlimit="10" stroke-width="1.96"/><rect x="314.08" y="325.24" width="79.79" height="45.13" transform="translate(7.7 -7.67) rotate(1.26)" fill="#77e0b5"/><circle cx="374.76" cy="344.93" r="4" fill="#fff" stroke="#4f3cc9" stroke-miterlimit="10" stroke-width="1.96"/><polygon points="325.32 369.75 391.8 371.44 394.25 403.1 325.32 369.75" fill="#4f3cc9"/><path d="M168.26,249.18s62.39,6.58,112.17-11.24,99.57-3.3,158.76,17.47,149.06,5.64,190.29-12.75S484.89,239.83,424.68,218,99.74,233.61,168.26,249.18Z" fill="#fff" stroke="#4f3cc9" stroke-miterlimit="10" stroke-width="2.68"/><path d="M758.31,454.44a39.26,39.26,0,0,1-55.73-26.78L604,476.31,566.4,400.17l98.43-48.56a38.8,38.8,0,0,1-4.6-7.23,39.26,39.26,0,1,1,74.44-15.63,39.27,39.27,0,0,1,23.94,55.41,39.28,39.28,0,0,1-.3,70.28Z" fill="#fff" stroke="#4f3cc9" stroke-miterlimit="10" stroke-width="1.84"/><rect x="620.64" y="330.34" width="11.17" height="115.42" rx="4.94" transform="translate(697.18 -345.24) rotate(63.74)" fill="#fff" stroke="#4f3cc9" stroke-miterlimit="10" stroke-width="1.14"/><rect x="638.02" y="351.86" width="11.17" height="115.42" rx="4.94" transform="translate(726.17 -348.82) rotate(63.74)" fill="#fff" stroke="#4f3cc9" stroke-miterlimit="10" stroke-width="1.14"/><rect x="644.3" y="378.2" width="11.17" height="115.42" rx="4.94" transform="translate(753.29 -339.77) rotate(63.74)" fill="#fff" stroke="#4f3cc9" stroke-miterlimit="10" stroke-width="1.14"/><rect x="530.72" y="425" width="114.77" height="23.88" transform="translate(719.78 -283.79) rotate(63.74)" fill="#fff" stroke="#4f3cc9" stroke-miterlimit="10" stroke-width="1.84"/><path d="M603.22,440.58S608.38,468,583,453.5l19.83,40.19,21.42-10.56Z" fill="#4f3cc9"/><path d="M585.9,405.48s82.56-31.54,91.8-43.54c0,0,2.8,5.56-1.68,7.77l-86,42.4Z" fill="#4f3cc9"/><path d="M599.16,432.36s91-42.15,95.53-49.54c0,0,3.27,5.58,0,7.49s-93.57,46-93.57,46Z" fill="#4f3cc9"/><path d="M611.37,455.49s85.18-36.93,89.28-46.74c0,0,4.28,4.77,0,8.18S629.8,452,629.8,452l-17.72,8.58Z" fill="#4f3cc9"/><path d="M754,341.54s16.91,25,3.73,43a17.8,17.8,0,0,1-10.88,5.17S766.64,372,754,341.54Z" fill="#4f3cc9"/><path d="M715.83,293.44c.62.39,20.61,14.3,18.84,35.31S729,351.19,729,351.19s7.89-40.82-13.16-58.64" fill="#4f3cc9"/><path d="M702.55,426.75s19.67,33.86,45.33,19.25,27.85-44.95,27.85-44.95,7,15.69,3.28,27.73-8.8,17.43-17.56,23.92-35.9,13.47-54.14-13.19C707.31,439.51,702.53,425.84,702.55,426.75Z" fill="#4f3cc9"/><polyline points="614.16 459.61 702.58 427.66 617.61 469.52 612.08 460.61 614.58 458.64" fill="#4f3cc9"/><polygon points="548.16 401.31 551.13 390.39 559.64 406.22 548.16 401.31" fill="#4f3cc9"/><path d="M601.12,472.67s-2.14,22.05-20.74,44.45l-58.13-21.51h0c2.05.25,63.49,7,36.86-90.33l37.07,75.07A38.5,38.5,0,0,0,601.12,472.67Z" fill="#4f3cc9"/><line x1="536.73" y1="548.93" x2="536.73" y2="806.39" fill="#fff" stroke="#4f3cc9" stroke-miterlimit="10" stroke-width="1.84"/><path d="M547.64,701.16l1.7,22a16.44,16.44,0,0,1-15.09,17.61l-97.82,7.55a35.86,35.86,0,0,1-12,.62,0,0,0,0,1,0,0,78.61,78.61,0,0,1-17.88-4.25l-13.92,7.79a4.39,4.39,0,0,1-2.69.54h-.08l-19.27.39a3.68,3.68,0,0,1-3.74-3.6l-.07-3.18a3.7,3.7,0,0,1,3.61-3.75l18.5-.36,5.14-2.88a82.36,82.36,0,0,1-18.74-11.31l-32.6,22.72a5.26,5.26,0,0,1-6-8.64l31.52-22a23,23,0,0,1-2.09-4.14l-30.58,21.32a5.27,5.27,0,1,1-6-8.64l36-25.09,2.86-2a4.2,4.2,0,0,1,.74-.43l-3.26,1.24-25.69,9.71a5.26,5.26,0,1,1-3.72-9.85l41-15.49a38.75,38.75,0,0,1,11.45-5.6c4.6-1.41,10.37-.7,16.42,1a152.71,152.71,0,0,1,18.1,6.76l4,1.69c.19.09.4.17.6.25q2.73,1.14,5.19,2.39L530,686.07A16.45,16.45,0,0,1,547.64,701.16Z" fill="#fff" stroke="#4f3cc9" stroke-miterlimit="10" stroke-width="1.96"/><path d="M633,570.05c0,.7,0,1.4-.07,2.11l-9,137.53a32,32,0,0,1-33.27,29.88L464.24,750.63a32,32,0,0,1-34.67-29.09c-.08-.95-.12-1.89-.12-2.83a32,32,0,0,1,29.21-31.84l103.24-9L569.07,568A32,32,0,0,1,633,570.05Z" fill="#fff" stroke="#4f3cc9" stroke-miterlimit="10" stroke-width="1.84"/><path d="M641.85,623.83v182l-204.74-.47,0-45.75,33.1,2.16L471,750,588.2,739.79c38.19.05,36.23-37.46,36.23-37.46l8.62-121.56C641.25,592.89,641.85,623.83,641.85,623.83Z" fill="#4f3cc9"/><path d="M478.38,685.15l83.51-7.31,5.92-90.63S555,677.61,478.38,685.15Z" fill="#4f3cc9"/><polyline points="561.89 677.85 589.57 693.28 563.28 656.69 562.08 674.99" fill="#4f3cc9"/><path d="M627.19,663.49l-3,53.39s.46,30.49-38.66,28.24-109.42,16.62-109.42,16.62l.36-11.7H471l4.78-64.66,19.12-1.67-4,17.77c14.81,11,44.23,24.16,95.46,15.59,0,0,18.53-.2,20.31-10.14s18.53-156.31,0-168.35c.76.24,25,8.23,26.41,23Z" fill="#4f3cc9"/><path d="M423.38,689.21s-9.4,48.48-34.61,47.89l5.25,2.55-7.64,2.93-17.48.66s-5,2.79-1.08,9l8.95,1.18,15.85-.93,13.92-7.79L424.45,749l2.58.4,2.5-57.55Z" fill="#4f3cc9"/><path d="M335.8,743.19s17.63-1.49,39.55-15.57l-32.67,23.44s-5.62,2.58-6.88-2.95S335.8,743.19,335.8,743.19Z" fill="#4f3cc9"/><path d="M329.72,730.11s20.9-3.39,36.38-13.81l-30.86,22.37s-8.9-.72-8.72-6.06.89-.18.89-.18S328.73,730.29,329.72,730.11Z" fill="#4f3cc9"/><path d="M333.05,707.84l36.06-6.38-28.95,10.95S333.34,712.66,333.05,707.84Z" fill="#4f3cc9"/><rect x="409.4" y="697.07" width="82.08" height="47.04" transform="translate(-297.99 1123.11) rotate(-86.26)" fill="#77e0b5"/><polygon points="402.96 469.4 381.11 491.68 397.92 484.08 397.92 491.68 406.65 479 405.11 477.04 402.96 469.4" fill="#4f3cc9"/><path d="M327.69,370.89s12.3,113.21,44,146.23,71.15,71.59,71.15,71.59-83.8-65.55-85.84-67.3-9.7-12.67-9.7-12.67l-3.58-7.48-2.53-10.44-15.9-121.07Z" fill="#4f3cc9"/><path d="M438.32,624c.23,1,14-28.7,14-28.7l-9.43-6.63S435.29,610.85,438.32,624Z" fill="#4f3cc9"/><path d="M141,804.66H844.48a0,0,0,0,1,0,0v0a13.08,13.08,0,0,1-13.08,13.08H154.1A13.08,13.08,0,0,1,141,804.66v0a0,0,0,0,1,0,0Z" fill="#fff" stroke="#4f3cc9" stroke-miterlimit="10" stroke-width="0.94"/><path d="M142.78,811.2H842.71a13.41,13.41,0,0,0,1.77-6.54H141S141.72,809.33,142.78,811.2Z" fill="#4f3cc9"/><path d="M314.59,324.38s-3.77,48.56,78.78,46.86l-79.77-1.75Z" fill="#4f3cc9"/><path d="M386.49,321.61h-1l0,4.32-62.84-1.38a26.58,26.58,0,0,1-.64-7.26h.18a15.48,15.48,0,0,1,1.93-11.87l8.88-12.26,5.29,11.22s9.3,1.39,10.69-2.21l2.14-5.13,21.92,2.1,16,18.14Z" fill="#4f3cc9"/><path d="M369.22,280.1s10.61,13.32,13.21,5.06l.5,13-6.08-4-3.91-.64-1.22-.32L369,287v-5.1Z" fill="#4f3cc9"/><rect x="171.53" y="629.23" width="123.33" height="173.16" fill="#77e0b5"/><rect x="199.33" y="630.69" width="95.52" height="172.7" fill="#fff" stroke="#4f3cc9" stroke-miterlimit="10" stroke-width="1.87"/><path d="M199.33,634.94s7.13,161.78,95.52,165.9l1.43,5.28-98.38-2.75Z" fill="#4f3cc9" stroke="#4f3cc9" stroke-miterlimit="10" stroke-width="1"/><path d="M846.77,712.66a92,92,0,0,1-184,0c0-1.34,0-2.67.09-4H846.68C846.74,710,846.77,711.32,846.77,712.66Z" fill="#fff" stroke="#4f3cc9" stroke-miterlimit="10" stroke-width="1.82"/><path d="M808.69,708.66s-.9,75.85-54.21,95.21c-.73.26-1.47.52-2.21.76,0,0,35.5.19,53.5-15.39s40-28.58,41-80.58Z" fill="#4f3cc9"/><path d="M671.77,722.66s6,53,68,68" fill="none" stroke="#4f3cc9" stroke-miterlimit="10"/><path d="M209.13,225.65s25.66,21.94,71.3,12.29c0,0-36.43,14.12-58.84,11.5s-56.87,6.93-63.88-8C157.71,241.44,178.51,230.57,209.13,225.65Z" fill="#4f3cc9"/><path d="M563.76,231.59s-10.09,29.88-77,33.07c0,0,49.48,1.07,73.13-3.3s64.34-16.48,64.34-16.48l11.18-7.68S600.06,231,563.76,231.59Z" fill="#4f3cc9"/><path d="M597.53,538.07s-24.86,5.23-26.95,22l-24.22-10-10.91,1.75.5-1.18a6.54,6.54,0,0,1-2.79-.47l-9-17.82c14.26,12.11,10.17-35,10.17-35l15.2,3.85V519l.07,0,.1,0,1.23.29.43.1.12,0c3.88,1,13,3.31,22.34,6.56S592.89,533.5,597.53,538.07Z" fill="#4f3cc9"/><circle cx="448.29" cy="699.58" r="4" fill="#fff" stroke="#4f3cc9" stroke-miterlimit="10" stroke-width="1.96"/><path d="M428.66,705.11s1.62,50.48,41.52,56.63l-45-2.94Z" fill="#4f3cc9"/><rect x="335.16" y="281.1" width="12" height="31.91" rx="5.81" transform="translate(-71.88 112.59) rotate(-16.98)" fill="#fff" stroke="#4f3cc9" stroke-miterlimit="10" stroke-width="1.88"/><rect x="346.61" y="278.02" width="11.15" height="29.66" rx="5.4" transform="translate(-70.18 115.63) rotate(-16.98)" fill="#fff" stroke="#4f3cc9" stroke-miterlimit="10" stroke-width="1.75"/><rect x="358.05" y="273.95" width="11.32" height="30.1" rx="5.48" transform="translate(-68.55 118.83) rotate(-16.98)" fill="#fff" stroke="#4f3cc9" stroke-miterlimit="10" stroke-width="1.77"/><path d="M391.56,315l-1.28,1.32a5.26,5.26,0,0,1-7.45.12l-11.37-11-16.63-2.32a5.13,5.13,0,0,1-4.38-5.8l.29-2.08a5.13,5.13,0,0,1,5.8-4.38l17.14,2.39a5.26,5.26,0,0,1,4.46,1.42l13.3,12.89A5.26,5.26,0,0,1,391.56,315Z" fill="#fff" stroke="#4f3cc9" stroke-miterlimit="10" stroke-width="1.68"/></g></svg>