<?xml version="1.0" encoding="utf-8"?>
<!-- Generator: Adobe Illustrator 16.0.0, SVG Export Plug-In . SVG Version: 6.00 Build 0)  -->
<!DOCTYPE svg PUBLIC "-//W3C//DTD SVG 1.1//EN" "http://www.w3.org/Graphics/SVG/1.1/DTD/svg11.dtd">
<svg version="1.1" xmlns="http://www.w3.org/2000/svg" xmlns:xlink="http://www.w3.org/1999/xlink" x="0px" y="0px" width="1400px"
	 height="980px" viewBox="0 0 1400 980" enable-background="new 0 0 1400 980" xml:space="preserve">
<g id="BACKGROUND">
	<g>
		<rect x="-7.5" y="-6.5" fill="#EC9953" width="1414" height="994"/>
	</g>
</g>
<g id="OBJECTS">
	<path fill="#FFB35D" d="M197,838h1072c0,0,35-400.041-223-382.243S986,315.913,781,261.67C634.777,222.979,41,166.745,197,838z"/>
	<g>
		<rect x="931.538" y="179.567" fill="#FFB35B" width="135.521" height="191.182"/>
		<line fill="none" stroke="#79504C" stroke-miterlimit="10" x1="993.249" y1="202.557" x2="1059.8" y2="202.557"/>
		<line fill="none" stroke="#79504C" stroke-miterlimit="10" x1="940.613" y1="217.077" x2="1060.404" y2="217.077"/>
		<line fill="none" stroke="#79504C" stroke-miterlimit="10" x1="940.613" y1="229.177" x2="1060.404" y2="229.177"/>
		<line fill="none" stroke="#79504C" stroke-miterlimit="10" x1="940.613" y1="241.277" x2="1060.404" y2="241.277"/>
		<line fill="none" stroke="#79504C" stroke-miterlimit="10" x1="940.613" y1="253.377" x2="1060.404" y2="253.377"/>
		<line fill="none" stroke="#79504C" stroke-miterlimit="10" x1="940.613" y1="265.478" x2="1060.404" y2="265.478"/>
		<line fill="none" stroke="#79504C" stroke-miterlimit="10" x1="940.613" y1="277.578" x2="1060.404" y2="277.578"/>
		<rect x="1005.349" y="306.618" fill="#EC9953" width="49.611" height="52.031"/>
		<line fill="none" stroke="#FFB35B" stroke-miterlimit="10" x1="1005.349" y1="358.649" x2="1054.96" y2="306.618"/>
		
			<rect x="1053.749" y="161.416" transform="matrix(0.7071 -0.7071 0.7071 0.7071 178.067 804.7395)" fill="#79504C" width="13.31" height="52.031"/>
		
			<rect x="933.958" y="161.417" transform="matrix(-0.7071 -0.7071 0.7071 -0.7071 1473.2137 985.0664)" fill="#79504C" width="13.31" height="52.03"/>
	</g>
	<g>
		<rect x="554.563" y="492.96" fill="#5C424D" width="584.437" height="32.671"/>
		<rect x="577.554" y="525.631" fill="#B76C57" width="537.246" height="313.394"/>
		<polygon fill="#A56050" points="1114.8,525.631 577.554,525.631 577.554,839.024 		"/>
		<rect x="606.594" y="542.571" fill="#CE8A67" width="479.166" height="279.513"/>
		<rect x="617.484" y="548.924" fill="#C1494B" width="457.385" height="266.808"/>
		<polygon fill="#AF454A" points="1074.869,548.924 617.484,548.924 617.484,815.731 		"/>
		<line fill="none" stroke="#FFFBF5" stroke-miterlimit="10" x1="847.387" y1="543.176" x2="847.387" y2="822.689"/>
		<circle fill="#5C424D" cx="871.587" cy="682.933" r="13.311"/>
	</g>
	<g>
		<g>
			<path fill="#A195A1" d="M852.524,356.417L852.524,356.417c-0.466-2.441,1.136-4.798,3.577-5.264l147.343-28.11
				c2.441-0.465,4.798,1.136,5.264,3.577l0,0c0.466,2.441-1.136,4.798-3.577,5.264l-147.343,28.11
				C855.347,360.46,852.99,358.859,852.524,356.417z"/>
			<path fill="#5E434A" d="M846.586,362.641l-1.687-8.84c-0.466-2.441,1.136-4.798,3.577-5.264l63.843-12.18
				c2.441-0.466,4.798,1.136,5.264,3.577l1.687,8.841c0.466,2.441-1.136,4.798-3.577,5.264l-63.843,12.18
				C849.408,366.684,847.052,365.082,846.586,362.641z"/>
			<path fill="#A195A1" d="M1004.745,337.865l-4.049-21.221c-0.443-2.322,0.986-4.591,3.272-5.194l61.064-16.104
				c2.521-0.665,5.079,0.946,5.567,3.508l5.688,29.815c0.488,2.562-1.296,5.001-3.885,5.312l-62.704,7.509
				C1007.353,341.771,1005.188,340.187,1004.745,337.865z"/>
		</g>
		<g>
			<path fill="#85544D" d="M471.793,398.413l-45.118,16.382c-18.169,6.597-38.247-2.785-44.843-20.954l0,0l110.915-40.271l0,0
				C499.344,371.739,489.963,391.816,471.793,398.413z"/>
			<path fill="#5E444D" d="M582.463,336.954l-93.056,33.787c-1.557,0.565-3.278-0.239-3.844-1.796l-2.73-7.52
				c-0.565-1.557,0.238-3.278,1.796-3.844l93.056-33.787c3.634-1.319,7.649,0.557,8.969,4.191l0,0
				C587.973,331.619,586.097,335.635,582.463,336.954z"/>
			
				<ellipse transform="matrix(0.94 -0.3413 0.3413 0.94 -101.2842 171.6753)" fill="#85544D" cx="437.29" cy="373.705" rx="59" ry="9"/>
			<path fill="#7EA16B" d="M387.376,395.551c9.518-0.017,30.006-5.043,52.985-13.386c22.979-8.343,41.918-17.633,49.23-23.726
				c-9.517,0.017-30.005,5.043-52.984,13.386C413.628,380.168,394.688,389.458,387.376,395.551z"/>
			<path fill="#DF695B" d="M466.095,371.57c-0.507-0.686-11.611,1.302-13.1,1.345c-3.716,0.108-7.298-0.192-10.855-0.977
				c-0.544-0.12-1.087-0.25-1.631-0.393c-0.548-0.145-1.096-0.299-1.645-0.468c-0.563-0.173-1.12-0.366-1.67-0.576
				c-0.574-0.219-1.14-0.461-1.699-0.718c-0.153-0.07-0.304-0.147-0.457-0.22c-0.417-0.2-0.833-0.406-1.242-0.625
				c-8.993-4.815-13.316-12.422-19.672-20.021c-0.954-1.141-2.334-2.349-3.743-1.87c-1.354,0.461-1.759,2.2-1.624,3.624
				c0.136,1.425,0.585,2.901,0.101,4.248c-0.711,1.98-3.156,2.781-5.252,2.608c-3.913-0.322-7.256-3.027-9.643-6.144
				s-4.072-6.715-6.354-9.91c-0.792-1.11-2.146-2.289-3.347-1.642c-1.685,0.908-0.363,3.69-1.344,5.334
				c-0.682,1.142-2.352,1.341-3.554,0.771c-1.202-0.569-2.034-1.693-2.777-2.795c-2.876-4.265-5.214-8.893-6.94-13.739
				c-0.196-0.553-0.408-1.14-0.872-1.499c-1.384-1.071-3.179,0.755-3.807,2.389c-3.255,8.456-1.062,17.939,1.463,26.64
				c2.078,7.16,4.484,14.213,6.528,21.376c1.112,3.936,2.374,7.94,4.889,11.166c1.118,1.433,2.459,2.654,3.914,3.749
				c0.066,0.049,0.136,0.091,0.202,0.139c0.13,0.095,0.255,0.196,0.409,0.282c0.919,0.647,1.87,1.254,2.854,1.806
				c8.263,0.9,30.236-4.245,55.133-13.285c9.46-3.435,18.233-7.03,25.795-10.497C466.134,371.636,466.118,371.601,466.095,371.57z"
				/>
			<circle fill="#B95146" cx="353.416" cy="324.368" r="2"/>
			<circle fill="#E07E3D" cx="356.08" cy="293.612" r="7"/>
			<circle fill="#B95146" cx="374.37" cy="279.524" r="3"/>
			<circle fill="#B95146" cx="379.992" cy="312.591" r="3"/>
			<circle fill="#E07E3D" cx="423.339" cy="336.748" r="3.5"/>
			<circle fill="#B95146" cx="424.973" cy="314.877" r="2.5"/>
			<path fill="#B1C458" d="M403.451,304.941c0.237-3.057,0.475-6.113,0.712-9.17c0.034-0.438,0.094-0.927,0.437-1.202
				c0.279-0.224,0.666-0.237,1.022-0.26c2.5-0.157,5.012-1.347,6.367-3.454c1.355-2.107,1.302-5.147-0.433-6.956
				c-1.167-1.217-2.993-1.761-4.636-1.38s-3.044,1.672-3.557,3.279c-0.041-2.652-1.995-5.16-4.555-5.849
				c-2.561-0.689-5.509,0.5-6.875,2.773s-1.033,5.434,0.777,7.372c-1.258-0.088-2.583,0.032-3.653,0.699s-1.8,1.993-1.466,3.209
				c0.332,1.209,1.603,1.97,2.85,2.1c1.248,0.129,2.487-0.241,3.687-0.607c0.155,1.853-0.276,6.362,0.998,7.739
				C396.32,304.523,401.729,304.612,403.451,304.941z"/>
			<path fill="#82A65E" d="M385.318,322.373c0.146-0.751,0.435-1.516,1.026-2.001s1.542-0.59,2.099-0.065
				c0.745,0.703,0.397,1.941,0.665,2.929c0.257,0.952,1.119,1.653,2.061,1.947c0.941,0.293,1.955,0.237,2.931,0.1
				c0.83-0.118,1.859-0.21,2.322,0.488c0.327,0.492,0.175,1.185-0.196,1.645c-0.371,0.46-0.915,0.742-1.441,1.01
				c-1.582,0.806-3.239,1.63-5.015,1.639C385.772,330.083,384.689,325.624,385.318,322.373z"/>
			<path fill="#708B6A" d="M412.47,317.213c0.021-0.435-0.003-0.878,0.107-1.3c0.296-1.132,1.668-1.844,2.764-1.435
				c0.509-0.388,0.23-1.418,0.826-1.651c0.384-0.149,0.794,0.229,0.889,0.63c0.096,0.401-0.001,0.822,0.021,1.233
				c0.023,0.424,0.172,0.83,0.278,1.242c0.681,2.656-0.577,5.582-2.727,7.283c-2.15,1.702-5.038,2.281-7.768,2.021
				c-0.43-0.041-0.877-0.108-1.231-0.357c-2.084-1.463,2.995-2.113,3.642-2.504C411.065,321.294,412.372,319.329,412.47,317.213z"/>
			<path fill="#BE4B50" d="M454.017,376.909c-12.736,0.212-25.481,4.015-38.069,2.035c-1.827-0.288-3.658-0.697-5.503-0.583
				c-3.396,0.211-6.547,2.182-9.95,2.109c-8.358-0.177-12.32-11.742-20.512-13.406c-0.255,2.526-0.511,5.052-0.766,7.578
				c-6.713-3.652-7.724-13.123-13.015-18.52c0.077,0.27,0.153,0.541,0.231,0.809c2.078,7.16,4.484,14.213,6.528,21.376
				c1.112,3.936,2.374,7.94,4.889,11.166c1.118,1.433,2.459,2.653,3.914,3.749c0.065,0.049,0.136,0.091,0.202,0.139
				c0.13,0.095,0.255,0.196,0.409,0.282c0.919,0.647,1.87,1.254,2.854,1.806c8.263,0.9,30.236-4.245,55.133-13.285
				C445.108,380.441,449.682,378.677,454.017,376.909z"/>
		</g>
		<g>
			<path fill="#684035" d="M682.305,666.178L682.305,666.178c-19.369-3.043-32.603-21.212-29.559-40.58l21.499-136.821L746,491
				l-23.114,145.618C719.842,655.987,701.674,669.221,682.305,666.178z"/>
		</g>
		
			<rect x="726.6" y="337.31" transform="matrix(0.9931 0.1177 -0.1177 0.9931 47.1383 -85.6827)" fill="#E5C285" width="45" height="38"/>
		<g>
			<path fill="#684035" d="M713.572,840.658l-70.94-2.908l8.52-198.988c0.803-19.59,17.335-34.819,36.924-34.016h0
				c19.589,0.803,34.819,17.335,34.015,36.925L713.572,840.658z"/>
		</g>
		<g>
			<path fill="#FFFBF5" d="M796.237,502.373l-121.756-14.43L690,357l107.84,12.781c7.686,0.911,13.178,7.879,12.268,15.565
				L796.237,502.373z"/>
		</g>
		<polygon fill="#5C404E" points="641.753,837.859 598.438,868.271 713.5,864.551 713.197,831.795 		"/>
		<g>
			<path fill="#88564F" d="M781.695,671.61L781.695,671.61c-19.471,2.3-37.119-11.62-39.419-31.091L725,490l71.54,4.647
				l16.246,137.544C815.086,651.662,801.166,669.311,781.695,671.61z"/>
		</g>
		<g>
			<path fill="#88564F" d="M880.731,819.505l-66.578,24.665l-68.853-186.892c-6.811-18.385,2.572-38.811,20.957-45.621l0,0
				c18.385-6.812,38.811,2.571,45.621,20.956L880.731,819.505z"/>
		</g>
		<polygon fill="#5C404E" points="810.191,829.473 769.457,863.262 883.849,850.319 880.918,817.694 		"/>
		<path fill="#FFFBF5" d="M641.744,472.948l79.088-88.246l-27.581-24.719c-4.92-4.41-12.484-3.996-16.894,0.924l-71.104,79.337
			c-9.031,10.076-8.183,25.565,1.893,34.596l0,0C617.224,483.872,632.713,483.024,641.744,472.948z"/>
		<path fill="#FDDA96" d="M559.204,323.706c-0.231-0.236-0.482-0.459-0.755-0.667c-1.864-1.414-4.32-1.705-6.647-1.947
			c-6.553-0.681-13.637-1.252-19.282,2.145c-2.559,1.54-4.62,3.797-7.141,5.398c-2.521,1.602-5.881,2.47-8.455,0.957
			c-1.105-0.649-1.954-1.676-3.072-2.302c-2.642-1.478-6.148-0.26-8.152,2.009c-2.004,2.27-2.834,5.321-3.478,8.279
			c-0.845,3.889-1.473,7.865-1.226,11.836c0.58,9.311,6.717,17.737,14.805,22.119c4.141,2.243,8.915,1.753,12.889,3.605
			c4.12,1.92,7.919,6.424,11.65,9.124c2.566,1.856,5.657,3.749,8.701,2.87c1.271-0.367,2.355-1.184,3.408-1.985
			c5.177-3.94,10.413-7.938,14.452-13.039c5.91-7.465,10.933-22.833,2.921-30.63c-1.644-1.599-3.698-2.79-5.072-4.626
			C561.875,333.01,562.444,327.015,559.204,323.706z"/>
		<path fill="#FFFBF5" d="M527,380l72.16,93.643c7.791,11.063,23.074,13.716,34.138,5.926l0,0
			c11.063-7.791,13.716-23.075,5.926-34.138L573,347L527,380z"/>
		<path fill="#FFFBF5" d="M827.156,510.126l-59.402-125.967l23.543-10.82c11.62-5.341,25.373-0.325,30.828,11.242l49.554,105.083
			c5.65,12.295,0.265,26.842-12.03,32.493l0,0C847.354,527.807,832.807,522.42,827.156,510.126z"/>
		<path fill="#FDDA96" d="M908.246,324.598c-0.772-1.186-1.793-2.149-3.145-2.743c-3.292-1.446-7.115,0.047-10.176,1.934
			c-3.062,1.887-6.042,4.249-9.612,4.675c-4.534,0.542-9.793-2.019-13.345,0.851c-0.953,0.77-1.622,1.849-2.586,2.604
			c-1.319,1.035-3.044,1.359-4.592,2.007c-4.663,1.952-7.549,6.889-8.334,11.883c-0.786,4.994,0.201,10.084,1.361,15.005
			c1.669,7.083,3.707,14.079,6.101,20.95c2.218,6.366,5.635,10.768,11.55,14.018c3.888,2.137,10.735,6.837,15.194,5.185
			c1.24-0.459,2.262-1.354,3.253-2.231c13.612-12.047,29.307-21.923,28.797-41.824c-0.085-3.337-0.76-7.081-3.512-8.97
			c-1.199-0.824-2.66-1.185-3.899-1.947c-3.902-2.401-4.442-7.741-4.72-12.315C910.394,330.578,909.87,327.094,908.246,324.598z"/>
		<path fill="#FFFBF5" d="M914,389l-37.852,112.509c-3.715,13.012-17.273,20.548-30.285,16.833l0,0
			c-13.011-3.714-20.547-17.273-16.833-30.284l32.531-113.947L914,389z"/>
		<path fill="#FDDA96" d="M788.304,318.663c-3.096,26.119-36.371,40.98-59.675,32.905c-1.415-0.491-2.821-1.063-4.029-1.95
			c-2.251-1.654-3.609-4.244-4.678-6.825c-11.041-26.686,4.055-66.999,37.745-63.005
			C776.862,282.062,790.579,299.467,788.304,318.663z"/>
		<path fill="#FFFBF5" d="M724.414,295.662c0,0,33.228-4.674,64.12,18.057l20.381-50.012c0,0,35.784,12.619,37.464-18.721
			c1.662-31.02-35.096-18.257-35.096-18.257s-5.34-39.906-39.066-18.729c0,0-30.334-31.74-45.041-2.317
			c-11.88,23.767,16.853,36.235,16.853,36.235L724.414,295.662z"/>
		<path fill="#5A3E4C" d="M768.127,319.281c-0.654,3.457-0.91,6.99-0.758,10.505c0.068,1.592,0.723,3.662,2.315,3.604
			c0.766-0.027,1.389-0.587,2.053-0.969c0.664-0.382,1.637-0.539,2.097,0.074c0.396,0.529,0.153,1.277-0.107,1.885
			c-2.833,6.611-8.055,14.904-1.8,21.348c1.058-3.03,3.058-5.724,5.653-7.611c2.021-1.471,4.36-2.444,6.463-3.797
			c7.918-5.1,11.549-15.969,8.284-24.804c-1.183-3.202-4.056-4.618-5.378-7.58c-1.156-2.588-0.947-5.059-2.591-7.551
			c-3.615-5.484-9.832-7.961-16.187-6.188c-2.177,0.607-4.238,2.112-4.887,4.276c-1.061,3.542,1.846,6.909,4.363,9.617
			c0.506,0.544,1.02,1.12,1.238,1.83c0.283,0.926,0.021,1.919-0.212,2.858C768.469,317.606,768.286,318.441,768.127,319.281z"/>
		<path fill="none" stroke="#000000" stroke-miterlimit="10" d="M725.182,332.427c5.328,4.424,13.107,5.672,19.552,3.139"/>
		<path fill="none" stroke="#000000" stroke-miterlimit="10" d="M732.262,315.532c-0.942,1.657-1.884,3.314-2.826,4.971
			c-0.227,0.398-0.46,0.843-0.362,1.29c0.137,0.626,0.833,0.929,1.44,1.136c1.918,0.655,3.836,1.31,5.755,1.965"/>
		<path fill="none" stroke="#000000" stroke-miterlimit="10" d="M744.998,312.626c4.458-1.776,10.121,0.553,12.041,4.952"/>
		<path fill="none" stroke="#000000" stroke-miterlimit="10" d="M728.517,312.133c-0.8-3.306-5.312-5.028-8.11-3.094"/>
		<g>
			<polygon fill="#FFFBF5" points="744.5,360.5 776.5,357.5 774.5,368.5 742.5,368.5 			"/>
		</g>
		<g>
			<polygon fill="#FFFBF5" points="720.5,353.5 739.5,359.5 742.5,368.5 720.5,362.5 			"/>
		</g>
		<g>
			<polygon fill="#FFFBF5" points="728.5,486.5 746.5,545.5 814.5,545.5 797.921,488.168 			"/>
		</g>
		<path fill="none" stroke="#C9C7C3" stroke-miterlimit="10" d="M742.5,368.5c0,0-12,60-14,118"/>
		<g>
			<path fill="#FFFBF5" d="M675.588,475.273C679.5,476.5,728.5,486.5,728.5,486.5l-12,52l-56-12L675.588,475.273z"/>
		</g>
		<g>
			
				<rect x="677.765" y="455.032" transform="matrix(-0.993 -0.1177 0.1177 -0.993 1419.1908 1004.8702)" fill="#BA4D50" width="123" height="11"/>
		</g>
		<g>
			
				<rect x="675.895" y="470.809" transform="matrix(-0.993 -0.1177 0.1177 -0.993 1413.6066 1036.0967)" fill="#BA4D50" width="123" height="11"/>
		</g>
		<g>
			<circle fill="#BA4D50" cx="743" cy="430" r="3.5"/>
		</g>
		<g>
			<circle fill="#BA4D50" cx="756" cy="432" r="3.5"/>
		</g>
		<g>
			<circle fill="#BA4D50" cx="741" cy="441" r="3.5"/>
		</g>
		<g>
			<circle fill="#BA4D50" cx="754" cy="443" r="3.5"/>
		</g>
		<g>
			
				<rect x="759.5" y="397.5" transform="matrix(0.993 0.1177 -0.1177 0.993 52.6929 -88.302)" fill="#88564F" width="28.999" height="9"/>
		</g>
		<path fill="#EFECE8" d="M732.795,272.698l-8.381,22.964c0,0,33.228-4.674,64.12,18.057l7.556-18.542
			C778.26,273.22,747.498,271.91,732.795,272.698z"/>
		<line fill="none" stroke="#C9C7C3" stroke-miterlimit="10" x1="742.5" y1="272.537" x2="752.5" y2="244.5"/>
		<line fill="none" stroke="#C9C7C3" stroke-miterlimit="10" x1="754.612" y1="273.679" x2="763.5" y2="247.5"/>
		<path fill="none" stroke="#C9C7C3" stroke-miterlimit="10" d="M767.754,276.682C767.5,276.5,776.5,251.5,776.5,251.5"/>
		<line fill="none" stroke="#C9C7C3" stroke-miterlimit="10" x1="780.536" y1="282.177" x2="788.5" y2="256.5"/>
		<line fill="none" stroke="#C9C7C3" stroke-miterlimit="10" x1="788.551" y1="287.627" x2="799.5" y2="260.5"/>
		<path fill="#FDDA96" d="M789.909,316.85c0.539,0.623,0.793,1.441,0.955,2.25c1.088,5.419-1.517,11.12-5.635,14.807
			c-4.117,3.687-9.535,5.612-14.961,6.664c1.115-6.357,1.757-13.234,5.359-18.784C777.512,318.884,786.742,313.189,789.909,316.85z"
			/>
	</g>
	<g>
		<path fill="#FDDB91" d="M408.493,506.169c3.77,8.562,1.166,11.386-2.81,13.136s-7.817,1.765-11.586-6.798
			c-3.77-8.562-2.065-24.21-2.065-24.21S404.723,497.605,408.493,506.169z"/>
		<path fill="#FDDB91" d="M427.786,506.728c0.809,9.32-2.566,11.153-6.894,11.529c-4.328,0.376-7.968-0.848-8.778-10.169
			c-0.81-9.32,5.847-23.584,5.847-23.584S426.977,497.406,427.786,506.728z"/>
		<path fill="#FDDB91" d="M445.513,507.338c0.11,9.354-3.393,10.931-7.737,10.981c-4.343,0.051-7.882-1.441-7.993-10.797
			c-0.11-9.354,7.594-23.081,7.594-23.081S445.403,497.982,445.513,507.338z"/>
		<path fill="#FDDB91" d="M500.06,506.169c-3.77,8.562-1.165,11.386,2.811,13.136s7.816,1.765,11.586-6.798
			c3.77-8.562,2.065-24.21,2.065-24.21S503.83,497.605,500.06,506.169z"/>
		<path fill="#FDDB91" d="M480.767,506.728c-0.81,9.32,2.566,11.153,6.894,11.529s7.968-0.848,8.777-10.169
			c0.81-9.32-5.847-23.584-5.847-23.584S481.576,497.406,480.767,506.728z"/>
		<path fill="#FDDB91" d="M463.04,507.338c-0.11,9.354,3.393,10.931,7.736,10.981c4.343,0.051,7.882-1.441,7.993-10.797
			c0.11-9.354-7.594-23.081-7.594-23.081S463.15,497.982,463.04,507.338z"/>
		<path fill="#FDDB91" d="M462.453,507.338c0.11,9.354-3.393,10.931-7.736,10.981s-7.883-1.441-7.993-10.797
			c-0.11-9.354,7.594-23.081,7.594-23.081S462.343,497.982,462.453,507.338z"/>
		<rect x="392.202" y="518.32" fill="#5D525A" width="121.001" height="13.311"/>
		<path fill="#736876" d="M399.497,539.305l-1.705,0.815c-2.242,1.072-4.929,0.124-6.001-2.118l-10.213-21.354
			c-1.072-2.242-0.124-4.93,2.118-6.002l1.705-0.815c2.242-1.072,4.929-0.124,6.001,2.118l10.213,21.354
			C402.688,535.545,401.739,538.232,399.497,539.305z"/>
		<path fill="#736876" d="M504.698,539.305l1.705,0.815c2.242,1.072,4.929,0.124,6.001-2.118l10.213-21.354
			c1.072-2.242,0.124-4.93-2.118-6.002l-1.705-0.815c-2.242-1.072-4.929-0.124-6.001,2.118l-10.212,21.354
			C501.507,535.545,502.456,538.232,504.698,539.305z"/>
		<path fill="#736876" d="M455.462,540.101h-1.89c-2.485,0-4.5-2.015-4.5-4.5v-23.67c0-2.485,2.015-4.5,4.5-4.5h1.89
			c2.485,0,4.5,2.015,4.5,4.5v23.67C459.962,538.086,457.948,540.101,455.462,540.101z"/>
		<rect x="247" y="524.371" fill="#5C404F" width="308.554" height="24.2"/>
		<rect x="263.94" y="548.571" fill="#B46556" width="280.723" height="37.51"/>
		<rect x="280.88" y="586.081" fill="#86564C" width="251.683" height="251.684"/>
		<polygon fill="#774A43" points="280.88,837.765 280.88,586.081 532.563,586.081 		"/>
		<rect x="462.382" y="586.081" fill="#B76C57" width="70.181" height="251.684"/>
		<rect x="491.423" y="586.081" fill="#CE8A67" width="41.141" height="202.072"/>
		<polygon fill="#5C404F" points="532.563,837.765 280.88,837.765 268.78,865.595 544.664,865.595 		"/>
	</g>
	<g>
		<path fill="none" stroke="#FFFBF5" stroke-miterlimit="10" d="M325.941,523.371H276.32c-10.355,0-18.75-8.396-18.75-18.75v-75.032
			c0-10.355,8.395-18.75,18.75-18.75h49.621c10.355,0,18.75,8.395,18.75,18.75v75.032
			C344.691,514.976,336.296,523.371,325.941,523.371z"/>
		<path fill="#DF695B" d="M328.236,451.133c-11.163,3.265-18.402,16.252-30.019,16.798c-9.226,0.434-16.774-7.307-25.762-9.432
			c-3.305-0.782-6.761-0.686-10.045,0.133v35.797c0,12.53,10.158,22.688,22.688,22.688h32.065c12.53,0,22.688-10.158,22.688-22.688
			v-42.94C336.126,450.211,332.02,450.026,328.236,451.133z"/>
		<rect x="274.51" y="403.579" fill="#85544D" width="50.821" height="8.47"/>
		<line fill="none" stroke="#5E444D" stroke-miterlimit="10" x1="279.351" y1="404" x2="279.351" y2="411.654"/>
		<line fill="none" stroke="#5E444D" stroke-miterlimit="10" x1="285.4" y1="404" x2="285.4" y2="411.654"/>
		<line fill="none" stroke="#5E444D" stroke-miterlimit="10" x1="291.451" y1="404" x2="291.451" y2="411.654"/>
		<line fill="none" stroke="#5E444D" stroke-miterlimit="10" x1="297.5" y1="404" x2="297.5" y2="411.654"/>
		<line fill="none" stroke="#5E444D" stroke-miterlimit="10" x1="303.551" y1="404" x2="303.551" y2="411.654"/>
		<line fill="none" stroke="#5E444D" stroke-miterlimit="10" x1="309.601" y1="404" x2="309.601" y2="411.654"/>
		<line fill="none" stroke="#5E444D" stroke-miterlimit="10" x1="315.651" y1="404" x2="315.651" y2="411.654"/>
		<line fill="none" stroke="#5E444D" stroke-miterlimit="10" x1="321.701" y1="404" x2="321.701" y2="411.654"/>
	</g>
	<g>
		<path fill="none" stroke="#FFFBF5" stroke-miterlimit="10" d="M1063.436,493.17h-29.656c-10.355,0-18.75-8.394-18.75-18.75
			v-49.243c0-10.355,8.395-18.75,18.75-18.75h29.656c10.354,0,18.75,8.395,18.75,18.75v49.243
			C1082.186,484.776,1073.79,493.17,1063.436,493.17z"/>
		<path fill="#A6C158" d="M1069.501,437.487c-8.604,2.517-14.185,12.528-23.14,12.949c-7.111,0.334-12.93-5.632-19.857-7.27
			c-2.548-0.603-5.212-0.528-7.744,0.103v27.594c0,9.659,7.83,17.488,17.488,17.488h24.718c9.658,0,17.488-7.83,17.488-17.488v-33.1
			C1075.582,436.777,1072.417,436.634,1069.501,437.487z"/>
		<rect x="1028.087" y="400.831" fill="#A56050" width="39.175" height="6.529"/>
		<line fill="none" stroke="#724137" stroke-miterlimit="10" x1="1031.818" y1="401" x2="1031.818" y2="407"/>
		<line fill="none" stroke="#724137" stroke-miterlimit="10" x1="1036.481" y1="401" x2="1036.481" y2="407"/>
		<line fill="none" stroke="#724137" stroke-miterlimit="10" x1="1041.146" y1="401" x2="1041.146" y2="407"/>
		<line fill="none" stroke="#724137" stroke-miterlimit="10" x1="1045.809" y1="401" x2="1045.809" y2="407"/>
		<line fill="none" stroke="#724137" stroke-miterlimit="10" x1="1050.473" y1="401" x2="1050.473" y2="407"/>
		<line fill="none" stroke="#724137" stroke-miterlimit="10" x1="1055.136" y1="401" x2="1055.136" y2="407"/>
		<line fill="none" stroke="#724137" stroke-miterlimit="10" x1="1059.8" y1="401" x2="1059.8" y2="407"/>
		<line fill="none" stroke="#724137" stroke-miterlimit="10" x1="1064.463" y1="401" x2="1064.463" y2="407"/>
	</g>
	<path fill="none" stroke="#FFFBF5" stroke-miterlimit="10" d="M999.029,492.96h-27.291c-8.836,0-16-7.163-16-16v-62.381
		c0-8.836,7.164-16,16-16h27.291c8.837,0,16,7.164,16,16v62.381C1015.029,485.797,1007.866,492.96,999.029,492.96z"/>
	<path fill="#894C40" d="M996.879,394.739h-21.78l-2.25-7.314c-1.287-4.182,1.84-8.417,6.216-8.417h13.85
		c4.375,0,7.502,4.234,6.216,8.417L996.879,394.739z"/>
	<rect x="972.679" y="392.319" fill="#A56050" width="26.62" height="7.26"/>
	<path fill="#C74E53" d="M990.316,441.259c-2.595,0.501-5.117,1.42-7.752,1.613c-6.297,0.459-12.096-3.224-18.284-4.471
		c-1.432-0.288-3.152-0.168-4.912-0.023v30.654c0,10.692,8.668,19.36,19.36,19.36h13.311c10.692,0,19.36-8.668,19.36-19.36v-31.37
		C1005.507,441.391,997.377,439.894,990.316,441.259z"/>
	<path fill="#5E434A" d="M935.863,492.96h-13.86c-9.872,0-17.875-8.002-17.875-17.875l-2-24.476h52.61l-1,24.476
		C953.738,484.958,945.735,492.96,935.863,492.96z"/>
	<g>
		<path fill="#583D50" d="M677.195,221.917H545.784c-4.142,0-7.5-3.357-7.5-7.5v-3.15c0-4.142,3.358-7.5,7.5-7.5h131.412
			c4.142,0,7.5,3.358,7.5,7.5v3.15C684.695,218.56,681.337,221.917,677.195,221.917z"/>
		<g>
			<g>
				<rect x="569.744" y="195.297" fill="#CC8148" width="6.05" height="91.961"/>
			</g>
			<g>
				<path fill="#CC8148" d="M579.764,315.088h-13.99c-2.485,0-4.5-2.015-4.5-4.5v-30.931c0-2.485,2.015-4.5,4.5-4.5h13.99
					c2.485,0,4.5,2.015,4.5,4.5v30.931C584.264,313.074,582.25,315.088,579.764,315.088z"/>
			</g>
			<path fill="#85544D" d="M573.714,227.967h-1.89c-2.485,0-4.5-2.015-4.5-4.5v-26.09c0-2.485,2.015-4.5,4.5-4.5h1.89
				c2.485,0,4.5,2.015,4.5,4.5v26.09C578.214,225.953,576.199,227.967,573.714,227.967z"/>
		</g>
		<g>
			<g>
				<rect x="610.885" y="195.297" fill="#CC8148" width="6.05" height="91.961"/>
			</g>
			<g>
				<path fill="#CC8148" d="M615.905,302.988h-3.99c-5.247,0-9.5-4.253-9.5-9.5v-8.831c0-5.247,4.253-9.5,9.5-9.5h3.99
					c5.247,0,9.5,4.253,9.5,9.5v8.831C625.405,298.735,621.151,302.988,615.905,302.988z"/>
			</g>
			<path fill="#85544D" d="M614.854,227.967h-1.89c-2.485,0-4.5-2.015-4.5-4.5v-26.09c0-2.485,2.015-4.5,4.5-4.5h1.89
				c2.485,0,4.5,2.015,4.5,4.5v26.09C619.354,225.953,617.34,227.967,614.854,227.967z"/>
		</g>
		<g>
			<g>
				<rect x="652.025" y="195.297" fill="#CC8148" width="6.05" height="91.961"/>
			</g>
			<g>
				<path fill="#CC8148" d="M658.72,315.088h-6.13c-6.028,0-10.642-5.366-9.739-11.326l3.065-20.23
					c0.729-4.815,4.869-8.375,9.739-8.375l0,0c4.87,0,9.009,3.56,9.739,8.375l3.065,20.23
					C669.362,309.723,664.748,315.088,658.72,315.088z"/>
			</g>
			<path fill="#85544D" d="M655.995,227.967h-1.89c-2.485,0-4.5-2.015-4.5-4.5v-26.09c0-2.485,2.015-4.5,4.5-4.5h1.89
				c2.485,0,4.5,2.015,4.5,4.5v26.09C660.495,225.953,658.48,227.967,655.995,227.967z"/>
		</g>
		<circle fill="#FFD59D" cx="547.964" cy="212.237" r="4.84"/>
		<circle fill="#FFD59D" cx="591.524" cy="212.237" r="4.84"/>
		<circle fill="#FFD59D" cx="635.085" cy="212.237" r="4.84"/>
		<circle fill="#FFD59D" cx="675.015" cy="212.237" r="4.84"/>
	</g>
</g>
</svg>
