<?xml version="1.0" encoding="UTF-8"?>
<!DOCTYPE svg PUBLIC "-//W3C//DTD SVG 1.1//EN" "http://www.w3.org/Graphics/SVG/1.1/DTD/svg11.dtd">
<!-- Creator: CorelDRAW 2019 (64 Bit) -->
<svg xmlns="http://www.w3.org/2000/svg" xml:space="preserve" width="600px" height="590px" version="1.1" style="shape-rendering:geometricPrecision; text-rendering:geometricPrecision; image-rendering:optimizeQuality; fill-rule:evenodd; clip-rule:evenodd"
viewBox="0 0 600 590"
 xmlns:xlink="http://www.w3.org/1999/xlink">
 <defs>
  <style type="text/css">
   <![CDATA[
    .str0 {stroke:black;stroke-width:0.9;stroke-miterlimit:22.9256}
    .fil3 {fill:none;fill-rule:nonzero}
    .fil1 {fill:black}
    .fil0 {fill:white}
    .fil2 {fill:black;fill-rule:nonzero}
   ]]>
  </style>
 </defs>
 <g id="Camada_x0020_1">
  <metadata id="CorelCorpID_0Corel-Layer"/>
  <circle class="fil0" cx="-111.26" cy="-809.75" r="19.76"/>
  <g id="_1735743912048">
   <path class="fil1" d="M283.38 59.34c-23.14,-26.39 -80.16,-9.35 -93.1,25.32 -27.27,15.92 -35.73,35.79 -26.4,55.38 -3.48,-1.1 -6.25,-4.75 -8.62,-9.82 -7.66,22 -1.02,41.62 18.93,40.83 8.8,7.33 16.75,7.15 23.66,-2.09 -0.98,-2.76 -1.56,-6.02 -1.76,-9.79l-0.08 0.07c-17.75,-0.83 -29.04,-7.08 -31.81,-18.43 9.91,11.72 22.62,14.64 37.53,10.68 5.13,-5.7 11.37,-10.87 18.17,-15.77 -20.47,-8.41 -29.16,-23.62 -30.36,-43.14 7.86,21.13 19.63,35.33 38.43,37 8.92,-5.61 18.55,-10.07 29.14,-12.91 2.42,-9.94 1.62,-21.2 -0.78,-33.12 5.22,8.87 7.76,18.28 7.04,30.32 6.3,-2.47 17.08,-4.09 25.69,-4.41 1.76,-21.98 2.66,-35.23 7.01,-42.91 -2.5,16.28 -2.95,30.36 -1.37,42.27 22.37,0.75 33.72,-22 21.47,-27.36 9.18,-23.79 -7.48,-45.79 -44.15,-37.41 7.21,5.48 11.18,10.6 11.36,15.29zm19.23 56.64l13.97 34.71 -7.86 -36.41c16.05,-6.61 23.85,-27.66 16.62,-35.5 5.57,-32.25 -20.85,-54.41 -61.14,-40.21 -39.72,-3.23 -64.77,12.37 -80.04,40.5 -18.67,11.18 -28.68,24.46 -31.05,39.61 -16.98,24.84 -8.38,61.29 18.27,60.67 9.63,7.81 19.93,7.32 31.05,-3.07 0.56,0.53 1.16,1.01 1.8,1.44 0.15,18 5.46,26.71 15.98,26.06l8.76 -9.09c-2.61,1.2 -5.36,1.29 -8.34,-0.29 24.58,-21.74 56.34,-35.05 96.85,-38.12 -33.36,-4.02 -67.61,7.05 -102.83,34.39 -3.15,-4.83 -4.83,-12.71 -4.65,-24.3 13.45,-17.28 43.79,-31.15 90.6,-41.69 -34.39,1.37 -67.17,11.76 -96.37,40.53 -2.98,-1.18 -3.37,-6.4 -2.97,-10.48 31.73,-26.41 65.08,-37.96 99.79,-38.55 0.53,-0.05 1.05,-0.12 1.56,-0.2z"/>
   <path class="fil1" d="M276.9 210.29c-7.59,-5.73 -20.97,-1.23 -26.6,7.31 -4.29,6.52 -13.74,20.26 -18.95,18.97 -7.37,-1.83 -8.27,-13.76 3.09,-11.89 -1.26,-3.98 -7.44,-4.65 -11.4,0.3 -12.25,17.89 7.84,30.88 28.89,23.01 12.08,-4.51 21.93,-11.74 29.56,-22.78 12.15,4.41 24.09,4.33 36.42,0.66 21.48,-6.4 31.07,-29.33 11.49,-36.55 -5.88,-1.66 -10.61,2.68 -9.53,6.71 8.34,-8.47 13.95,1.88 8.87,7.88 -3.6,4.25 -18.67,-1.27 -25.66,-4 -9.17,-3.58 -22.56,0.9 -25.75,10.24 -0.03,0.15 -0.07,0.3 -0.1,0.45 -0.11,-0.1 -0.22,-0.2 -0.33,-0.31z"/>
   <path class="fil1" d="M86.79 81.19l28.08 56.29c4.62,9.1 -2.72,13.16 -0.81,21.86 3.03,13.7 23.69,46.97 32.5,60.09 2.39,3.56 5.29,7.14 7.36,10.88 5.43,9.79 7.59,13.92 13.81,23.58 4.82,7.48 9.62,14.8 14.49,22.28 12.6,19.34 -9.37,34.06 -19.09,14.8 -5.09,-10.09 -7.82,-18.27 -12.18,-28.47 -3.95,-9.26 -8.11,-18.38 -11.84,-27.68 -3.7,-9.26 -7.47,-18.13 -11.02,-27.43 -2.8,-7.33 -8.66,-19.68 -10.76,-25.91 -0.08,-0.24 -0.17,-0.53 -0.22,-0.8 -0.16,-0.83 -0.09,-0.55 -0.08,-0.82 1.78,1.1 1.79,2.98 3.69,2.35 0.38,-4.05 -4.93,-13.67 -9.93,-17.26 -4.27,-3.06 -12.06,-3.89 -14.53,-7.39 1.95,-1.47 6.6,-2.75 9.23,-4.16 2.61,-1.4 6.67,-4.28 7.38,-6.69 0.42,-1.39 -0.37,-6.66 -6.11,-3.6 -4.54,2.42 -13.22,10.88 -17.76,5.87 -4.65,-5.13 -14.1,-27.54 -18.81,-36.66l-8.01 -15.31c-1.28,-2.54 1.92,-5.58 3.38,-3.3 7.27,11.35 17.2,34.08 23.33,46.53 1.47,2.86 2.7,5.07 5.42,4.24 -4.64,-14.97 -16.86,-35.01 -23.76,-48.86 -3.17,-6.04 0.07,-9.02 3.76,-2.56l21.22 41.8c1.53,3.03 2.62,7.34 5.84,5.66 -0.39,-5.23 -17.03,-36.86 -21.16,-44.1 -2.62,-4.61 -5.5,-10.3 -2.9,-10.92 1.81,-0.43 4.12,0.39 7.25,7.1 3.74,7.99 16.87,41.78 22.55,44.84 2.66,-1.83 1.07,-4.01 -0.49,-7.07l-17.09 -33.46c-1.81,-3.59 -3.73,-7.39 -5.65,-10.92 -0.98,-1.81 -3.35,-5.79 0.2,-7.02 1.28,-0.44 2,0.81 2.71,2.22zm90.92 210.58c-8.47,4.16 -13.46,-21.18 -19.89,-31.88 -4.28,-7.13 -4.63,2.3 -19.65,-34.76 -1.73,-4.26 -3.49,-8.4 -5.05,-12.67 -1.1,-3.02 -4.07,-9.94 -4.6,-12.64 0.86,0.22 0.73,0.28 1.81,1.87 4.33,6.4 7.43,12.42 11.01,19.43 5.77,11.29 36.51,66.49 36.37,70.65z"/>
   <path class="fil1" d="M391.73 226.88c-2.03,-0.62 -4.62,0.02 -5.64,1.18 -1.59,1.79 -0.2,3.86 -2.5,5.77 -3.55,-0.61 -2.4,-6.61 -1.98,-10.31 2.25,-19.94 2.51,-45.55 5.01,-65.04 0.41,-3.21 1.82,-9.09 1.18,-11.97 -1.01,-4.55 -3.34,-3.72 -0.67,-9.67 5.85,0.14 4.85,2.91 8.66,3.38 0.82,-1.14 1.68,-4.12 1.64,-5.74 -2.13,-1.91 -2.57,-3.06 -5.91,-1.11 -2.03,1.18 -4.28,1.65 -6.9,0.53 -4.29,-3.84 6.81,-94.55 9.19,-111.97 0.65,-4.71 1.22,-11.19 2.19,-15.8 9.12,0.81 8.85,39.71 8.27,49.99 -0.56,10.09 -1.08,20.29 -1.9,30.43 -0.34,4.22 -2.63,28.55 -1.94,30.38 0.66,-1.18 4.13,-28.07 4.52,-31.79 2.3,-21.65 6.44,-57.32 -2.33,-76.78 -1.14,-2.53 -4.49,-8.66 -8.28,-8.33 -3.44,22.11 -5.81,44.85 -8.5,67.21 -1.64,13.7 -7.24,58.43 -6.11,69.57 0.5,4.88 2.68,9.19 2.38,14.33 -0.54,9.43 -5.95,37.67 -7.52,49.28 -1.29,9.52 -5.07,23.43 -0.86,31.5 5.53,10.63 17.58,5.79 18,-5.04z"/>
   <path class="fil1" d="M390.97 184.53c4.9,-0.27 3.15,-13.79 2.93,-18.09 -0.27,-5.41 1.04,-12.43 -0.56,-17.63 -0.43,-1.4 -0.23,-1.29 -1.28,-1.83 -2.07,7.4 0.02,13.9 -1.14,21.02 -0.39,2.45 -2.99,7.39 -2.71,8.46 0.29,1.1 1.08,1.43 1.55,3.75 0.39,1.91 0.54,2.82 1.21,4.32z"/>
   <path class="fil1" d="M13.5 590.01c61.86,-205.06 444.51,-32.67 577.11,-228.04 -193.42,167.64 -547.86,7.97 -577.11,228.04z"/>
   <path class="fil2" d="M81.71 442.81c-2.75,0.79 -5.15,0.87 -7.21,0.28 -2.08,-0.6 -3.89,-1.78 -5.44,-3.52 -1.53,-1.76 -2.8,-4.01 -3.83,-6.81 -1.03,-2.78 -1.83,-5.91 -2.41,-9.36 -0.31,-2.72 -0.38,-5.59 -0.18,-8.65 0.15,-2.6 0.65,-5.56 1.49,-8.86 0.85,-3.3 2.25,-6.67 4.22,-10.11 0.61,-0.02 1.11,0.03 1.5,0.12 0.4,0.09 0.74,0.19 0.99,0.36 0.29,0.23 0.5,0.43 0.63,0.63 0.34,0.74 0.35,1.68 0.05,2.82 -0.33,1.12 -0.61,2.33 -0.89,3.6 -0.71,3.65 -1.08,7.02 -1.11,10.11 -0.03,3.09 0.15,5.92 0.57,8.43 0.42,2.17 0.93,4.08 1.54,5.77 0.63,1.69 1.28,3.1 1.94,4.24 0.68,1.14 1.31,2 1.91,2.55 0.59,0.57 1.08,0.81 1.42,0.72 0.36,-0.1 0.66,-0.44 0.93,-1.03 0.25,-0.6 0.48,-1.3 0.64,-2.09 0.25,-0.82 0.46,-2.01 0.65,-3.62 0.2,-1.59 0.37,-3.41 0.51,-5.49 0.14,-2.06 0.22,-4.29 0.27,-6.68 0.02,-2.37 -0.01,-4.75 -0.11,-7.14 -0.17,-4.77 -0.41,-10.14 -0.76,-16.1 -0.32,-5.99 -0.21,-12.36 0.4,-19.14 0.03,-2.79 0.16,-5.87 0.43,-9.25 0.15,-2.91 0.42,-6.31 0.82,-10.21 0.38,-3.9 0.89,-8.15 1.52,-12.74 -0.1,-0.37 0.11,-0.78 0.64,-1.25 0.51,-0.48 1.12,-0.98 1.8,-1.54 0.76,-0.56 1.61,-1.17 2.59,-1.78 1.27,-0.87 2.33,-1.43 3.12,-1.71 0.78,-0.28 1.44,-0.34 1.92,-0.17 0.51,0.18 0.87,0.47 1.14,0.9 0.26,0.42 0.47,0.92 0.61,1.48 0.75,2.29 1.38,4.46 1.94,6.5 0.57,2.03 1.09,3.82 1.56,5.36 0.54,1.8 1,3.46 1.39,4.94 0.58,1.97 1.15,4.62 1.7,7.98 0.58,3.34 1.16,6.87 1.78,10.55 0.6,3.68 1.21,7.28 1.86,10.75 0.63,3.5 1.31,6.35 2.03,8.57 0.31,1.2 0.65,2.3 1.02,3.29 0.37,1 0.74,1.98 1.14,2.92 0.27,-2.77 0.61,-5.71 1.01,-8.78 0.43,-3.07 0.85,-6.05 1.33,-8.91 0.46,-2.88 0.9,-5.55 1.31,-8.03 0.42,-2.48 0.72,-4.52 0.9,-6.15 0.34,-2.2 0.84,-4.99 1.46,-8.39 0.63,-3.4 1.28,-6.8 1.94,-10.21 0.66,-3.41 1.28,-6.56 1.88,-9.41 0.57,-2.86 1.02,-4.86 1.32,-5.98 0.26,-0.82 0.82,-1.64 1.68,-2.48 0.89,-0.82 1.86,-1.59 2.91,-2.33 1.05,-0.71 2.07,-1.3 3.06,-1.73 0.97,-0.44 1.65,-0.63 2.05,-0.58 0.97,-0.04 1.69,0.08 2.16,0.33 0.49,0.26 0.77,0.45 0.88,0.56 0.22,0.25 0.45,0.69 0.7,1.36 0.24,0.65 0.47,1.69 0.69,3.14 0.29,1.73 0.56,4.42 0.78,8.05 0.22,3.64 0.42,7.77 0.6,12.42 0.18,4.68 0.38,9.64 0.57,14.95 0.18,5.28 0.42,10.48 0.67,15.56 0.26,5.1 0.57,9.86 0.92,14.28 0.35,4.42 0.78,8.12 1.33,11.06 0.69,3.28 1.63,6.1 2.84,8.41 0.47,1.01 1.06,1.96 1.73,2.83 0.69,0.88 1.47,1.6 2.37,2.16 0.89,0.56 1.88,0.88 2.97,0.99 1.08,0.09 2.27,-0.1 3.56,-0.59 -1.44,1.66 -2.94,2.99 -4.5,3.99 -1.55,1 -3.12,1.71 -4.75,2.13 -1.75,0.53 -3.37,0.66 -4.87,0.4 -1.49,-0.25 -2.84,-0.8 -4.05,-1.67 -1.18,-0.85 -2.21,-1.99 -3.02,-3.4 -0.8,-1.41 -1.38,-3.04 -1.7,-4.92 -0.32,-1.73 -0.56,-4.64 -0.78,-8.72 -0.23,-4.09 -0.44,-8.72 -0.59,-13.9 -0.17,-5.2 -0.29,-10.62 -0.36,-16.28 -0.06,-5.67 -0.12,-11 -0.17,-15.99 -0.03,-5 -0.08,-9.29 -0.1,-12.91 -0.03,-3.59 -0.07,-5.95 -0.13,-7.07 -0.08,-0.89 -0.15,-1.72 -0.24,-2.49 -0.08,-0.77 -0.14,-1.44 -0.14,-2.04 -0.34,1.59 -0.77,3.51 -1.27,5.74 -0.53,2.24 -1.06,4.65 -1.6,7.2 -0.56,2.55 -1.1,5.17 -1.62,7.91 -0.55,2.74 -1.05,5.38 -1.53,7.91 -0.83,4.12 -1.58,8.32 -2.29,12.61 -0.7,4.29 -1.28,8.33 -1.73,12.13 -0.44,3.81 -0.77,7.21 -0.94,10.18 -0.16,2.97 -0.14,5.22 0.09,6.74l0.39 1.48c0.11,0.43 0.25,0.92 0.43,1.47 0.19,0.57 0.41,1.07 0.68,1.52l-3.38 4.38c-0.6,0.38 -1.09,0.7 -1.51,0.94 -0.43,0.27 -0.85,0.45 -1.28,0.57 -1.61,0.41 -3.08,-0.12 -4.36,-1.6 -1.23,-1.32 -2.79,-4.16 -4.66,-8.49 -1.88,-4.33 -3.51,-9.83 -4.93,-16.46 -0.69,-3.29 -1.3,-6.64 -1.85,-10.03 -0.53,-3.41 -1.02,-6.67 -1.49,-9.79 -0.46,-3.11 -0.9,-6.03 -1.29,-8.74 -0.4,-2.73 -0.86,-5.04 -1.35,-6.94 -0.29,-1.43 -0.66,-2.72 -1.08,-3.84 -0.45,-1.14 -0.87,-2.17 -1.27,-3.13 -0.21,1.79 -0.35,4.18 -0.41,7.16 -0.06,3 -0.07,6.3 -0.05,9.9 0.02,3.62 0.07,7.4 0.17,11.37 0.08,3.96 0.15,7.78 0.23,11.46 0.08,3.66 0.14,7.05 0.19,10.16 0.05,3.11 0.09,5.61 0.11,7.47 0.03,3.02 0.15,6.4 0.37,10.19 0.22,3.78 0.21,7.41 -0.01,10.89 -0.24,3.5 -0.91,6.56 -2.04,9.22 -1.12,2.66 -3.01,4.38 -5.67,5.14z"/>
   <path id="1" class="fil2" d="M167.26 401.48c-2.69,0.69 -4.99,0.82 -6.91,0.41 -1.89,-0.4 -3.5,-1.11 -4.75,-2.09 -1.28,-1 -2.3,-2.17 -3.06,-3.51 -0.76,-1.35 -1.3,-2.62 -1.61,-3.83 -0.54,-2.11 -0.94,-4.4 -1.2,-6.86 -0.25,-2.46 -0.4,-4.75 -0.41,-6.89 -0.03,-2.15 -0.04,-3.96 0,-5.47 0.01,-1.52 0.06,-2.46 0.11,-2.86 0.11,-2.2 0.48,-4.21 1.12,-5.99 0.62,-1.78 1.78,-3.18 3.47,-4.23 0.68,-0.31 1.38,-0.64 2.12,-0.99 0.61,-0.23 1.26,-0.44 1.92,-0.61 0.67,-0.17 1.33,-0.23 1.95,-0.15 -0.66,5.35 -1.12,9.8 -1.37,13.32 -0.26,3.53 -0.41,6.41 -0.45,8.59 -0.03,2.5 0.05,4.46 0.29,5.9 0.46,3.28 1.37,5.6 2.69,7 1.34,1.39 3.43,1.72 6.25,0.99 1.84,-0.47 3.41,-1.61 4.76,-3.44 1.34,-1.81 2.44,-3.98 3.29,-6.53 -0.51,-1.08 -0.92,-2.21 -1.23,-3.42 -0.58,-2.26 -0.95,-4.52 -1.13,-6.77 -0.15,-2.25 -0.22,-4.37 -0.16,-6.39 0.04,-2.02 0.17,-3.82 0.39,-5.46 0.23,-1.64 0.44,-2.94 0.63,-3.9 0.35,-1.88 0.78,-3.11 1.33,-3.67 0.53,-0.55 1.49,-1.04 2.89,-1.48 0.55,-0.22 1.02,-0.34 1.42,-0.42 0.39,-0.07 0.74,-0.1 1.03,-0.1 0.91,0 1.45,0.3 1.62,0.96 0.29,1.12 0.65,2.83 1.09,5.13 0.43,2.3 0.62,4.73 0.53,7.32 0,2.1 -0.03,3.9 -0.15,5.39 -0.1,1.49 -0.23,2.76 -0.42,3.83 -0.17,1.07 -0.4,1.96 -0.67,2.66 -0.28,0.71 -0.51,1.37 -0.75,1.95 0.69,2.07 1.31,3.72 1.85,4.93 0.53,1.24 1.05,2.13 1.55,2.71 0.48,0.59 1,0.96 1.51,1.08 0.53,0.13 1.07,0.12 1.63,-0.02 1,-0.26 2.03,-1.02 3.12,-2.33 1.11,-1.3 2.2,-2.86 3.27,-4.67 1.07,-1.82 2.11,-3.78 3.11,-5.89 1,-2.11 1.89,-4.09 2.71,-5.94 0.79,-1.86 1.47,-3.5 2.02,-4.87 0.55,-1.38 0.88,-2.26 1.03,-2.58 0.33,-0.76 0.69,-1.28 1.13,-1.54 0.42,-0.25 0.8,-0.31 1.14,-0.13 0.35,0.18 0.61,0.52 0.79,1.05 0.17,0.52 0.16,1.14 -0.04,1.86 -0.72,3.06 -1.74,6.35 -3.05,9.88 -1.3,3.54 -2.81,6.88 -4.52,10.03 -1.72,3.16 -3.56,5.89 -5.51,8.18 -1.96,2.32 -4.01,3.75 -6.12,4.3 -1.92,0.49 -3.58,0.23 -5,-0.8 -1.44,-1.03 -2.87,-2.67 -4.28,-4.95 -0.97,2.97 -2.37,5.41 -4.2,7.35 -1.83,1.95 -4.09,3.27 -6.77,3.96z"/>
   <path id="2" class="fil2" d="M218.53 382.63c0.5,0.16 1.08,0.17 1.75,0 0.66,-0.18 1.3,-0.49 1.89,-0.94 0.6,-0.46 1.15,-1.01 1.62,-1.66 0.47,-0.65 0.74,-1.39 0.83,-2.24 0.09,-0.85 -0.2,-1.97 -0.86,-3.35 -0.66,-1.37 -1.5,-2.81 -2.52,-4.32 -1.02,-1.49 -2.1,-3 -3.27,-4.52 -1.14,-1.51 -2.13,-2.91 -2.98,-4.2 -0.71,-0.93 -1.31,-1.84 -1.83,-2.69 -0.48,-0.7 -0.94,-1.39 -1.39,-2.07 -0.42,-0.68 -0.75,-1.13 -0.97,-1.39 -0.19,0.67 -0.59,1.74 -1.13,3.24 -0.56,1.5 -1.18,3.06 -1.86,4.7 -0.65,1.65 -1.3,3.17 -1.92,4.56 -0.62,1.42 -1.05,2.37 -1.29,2.88 -0.41,0.78 -0.86,1.3 -1.35,1.54 -0.5,0.24 -0.98,0.25 -1.41,0.02 -0.43,-0.22 -0.75,-0.64 -0.95,-1.22 -0.19,-0.59 -0.1,-1.38 0.24,-2.38 0.29,-0.67 0.69,-1.73 1.22,-3.2 0.53,-1.45 1.06,-2.93 1.55,-4.47 0.51,-1.52 0.99,-2.87 1.43,-4.08 0.44,-1.21 0.68,-1.93 0.7,-2.15 0,-0.62 -0.39,-1.31 -1.15,-2.07 -0.78,-0.78 -1.14,-1.83 -1.09,-3.11 0.03,-1.07 0.37,-2.37 1.01,-3.94 0.66,-1.56 1.53,-3.04 2.59,-4.45 1.07,-1.41 2.23,-2.56 3.51,-3.45 1.27,-0.88 2.56,-1.2 3.83,-0.92 1.06,0.32 1.97,0.76 2.7,1.29 0.75,0.52 1.12,1.15 1.16,1.89 -0.04,0.38 -0.13,0.91 -0.28,1.54 -0.12,0.63 -0.38,1.43 -0.73,2.39 -0.35,0.95 -0.9,2.21 -1.64,3.75 0.64,1.57 1.33,2.97 2.05,4.21 0.73,1.24 1.41,2.32 2.02,3.22 0.73,1.09 1.46,2.07 2.22,2.92 0.96,1.12 1.97,2.25 3.02,3.4 1.04,1.16 2.02,2.33 2.93,3.49 0.9,1.15 1.66,2.25 2.32,3.29 0.63,1.03 0.98,1.96 1.04,2.78 0.11,1.26 -0.15,2.87 -0.73,4.81 -0.59,1.96 -1.43,3.94 -2.54,5.92 -1.11,1.98 -2.49,3.78 -4.14,5.4 -1.66,1.64 -3.54,2.72 -5.65,3.26 -1.48,0.39 -3.03,0.3 -4.66,-0.26 -1.61,-0.57 -3.04,-1.34 -4.32,-2.34 -1.27,-0.98 -2.29,-2.01 -3.05,-3.1 -0.76,-1.08 -1.05,-1.99 -0.87,-2.71 0.21,-0.96 0.42,-1.73 0.66,-2.31 0.21,-0.59 0.59,-1.29 1.13,-2.1 0.23,-0.29 0.53,-0.64 0.88,-1.02 0.3,-0.31 0.73,-0.65 1.32,-1.01 0.57,-0.38 1.25,-0.82 2.03,-1.31 1.27,2 2.34,3.54 3.24,4.63 0.87,1.09 1.57,1.95 2.12,2.56 0.61,0.67 1.15,1.09 1.57,1.29z"/>
   <path id="3" class="fil2" d="M274.81 343.42c0.18,-0.51 0.47,-0.87 0.92,-1.08 0.42,-0.23 0.81,-0.27 1.14,-0.15 0.34,0.15 0.6,0.47 0.76,0.95 0.16,0.47 0.13,1.19 -0.08,2.16 -0.72,3.05 -1.82,6.42 -3.31,10.12 -1.5,3.7 -3.17,7.23 -5.02,10.6 -1.83,3.38 -3.72,6.25 -5.68,8.63 -1.94,2.39 -3.72,3.79 -5.35,4.21 -2.33,0.6 -4.39,0.62 -6.17,0.12 -1.79,-0.52 -3.3,-1.35 -4.53,-2.46 -1.23,-1.11 -2.22,-2.41 -2.99,-3.91 -0.75,-1.5 -1.24,-2.94 -1.44,-4.31 -0.22,-1.16 -0.5,-3.24 -0.82,-6.28 -0.34,-3.04 -0.66,-6.58 -0.94,-10.61 -0.29,-4.03 -0.55,-8.36 -0.81,-12.99 -0.24,-4.64 -0.4,-9.15 -0.46,-13.49 -1.17,0.46 -2.33,0.89 -3.51,1.35 -1.15,0.45 -2.24,0.81 -3.21,1.06 -2.26,0.58 -4.46,0.86 -6.62,0.86 -2.14,-0.01 -3.78,-0.15 -4.9,-0.38 -0.63,-0.15 -0.99,-0.48 -1.05,-1.02 -0.07,-0.56 0.01,-1.14 0.22,-1.76 0.23,-0.63 0.54,-1.19 0.99,-1.71 0.42,-0.54 0.84,-0.86 1.27,-0.97 1.37,-0.2 2.85,-0.44 4.44,-0.73 1.58,-0.3 3.28,-0.72 5.09,-1.26 1.32,-0.41 2.59,-0.86 3.78,-1.32 1.19,-0.46 2.38,-0.94 3.52,-1.46 0.04,-3.64 0.19,-6.82 0.43,-9.54 0.22,-2.73 0.57,-4.69 1.02,-5.85 0.12,-0.41 0.53,-0.85 1.21,-1.27 0.68,-0.45 1.41,-0.83 2.23,-1.16 0.83,-0.3 1.64,-0.51 2.44,-0.62 0.81,-0.1 1.44,0.03 1.9,0.35 0.5,0.49 1.01,1.9 1.54,4.25 0.53,2.35 0.91,5.41 1.13,9.19 2.97,-0.76 5.63,-1.27 8,-1.56 2.38,-0.26 4.44,-0.43 6.17,-0.45 1.71,-0.03 3.13,0.02 4.2,0.15 1.1,0.15 1.9,0.21 2.43,0.23 0.54,0.01 0.89,0.31 1.07,0.86 0.18,0.55 0.22,1.16 0.14,1.81 -0.1,0.68 -0.36,1.29 -0.83,1.85 -0.45,0.58 -1.05,0.89 -1.79,0.93 -0.73,0.11 -1.56,0.17 -2.5,0.18 -0.94,0.03 -2.03,0.12 -3.32,0.29 -1.26,0.17 -2.76,0.42 -4.49,0.72 -1.74,0.29 -3.73,0.72 -5.99,1.31 -0.41,0.1 -0.9,0.25 -1.41,0.42 -0.52,0.17 -1.07,0.33 -1.63,0.48 0,1.19 0.03,2.38 0.06,3.53 0.03,1.16 0,2.39 -0.1,3.7 -0.2,3.06 -0.47,6.41 -0.81,10.04 -0.32,3.16 -0.74,6.8 -1.26,10.92 -0.51,4.12 -1.15,8.54 -1.9,13.25 0.36,3.14 1.01,5.44 1.95,6.9 0.93,1.45 1.89,2.43 2.85,2.94 1.11,0.54 2.35,0.67 3.71,0.39 1.1,-0.13 2.29,-0.84 3.58,-2.11 1.29,-1.26 2.56,-2.86 3.8,-4.76 1.23,-1.89 2.46,-3.94 3.67,-6.12 1.2,-2.2 2.29,-4.33 3.27,-6.38 0.97,-2.06 1.82,-3.92 2.52,-5.56 0.71,-1.67 1.2,-2.81 1.47,-3.48z"/>
   <path id="4" class="fil2" d="M324.26 336.78c-0.63,1.66 -1.44,3.74 -2.46,6.22 -1.02,2.48 -2.09,4.97 -3.22,7.49 -1.11,2.5 -2.24,4.82 -3.39,6.97 -1.14,2.14 -2.15,3.69 -3.03,4.67 -0.6,0.62 -1.32,1.17 -2.17,1.69 -0.83,0.51 -1.73,0.93 -2.66,1.25 -0.94,0.32 -1.84,0.49 -2.74,0.53 -0.89,0.06 -1.71,-0.06 -2.45,-0.31 -0.78,-0.34 -1.49,-0.91 -2.14,-1.73 -0.56,-0.68 -1.15,-1.61 -1.8,-2.81 -0.65,-1.18 -1.17,-2.74 -1.59,-4.66 -0.97,3.26 -2.29,5.91 -3.94,7.96 -1.65,2.04 -3.32,3.66 -4.96,4.84 -1.92,1.32 -3.93,2.32 -6.01,3.01 -0.99,0.25 -2.13,0.18 -3.44,-0.2 -1.29,-0.38 -2.52,-1.18 -3.67,-2.44 -1.15,-1.25 -2.12,-2.98 -2.93,-5.22 -0.81,-2.24 -1.22,-5.04 -1.26,-8.42 -0.12,-4.58 0.45,-8.89 1.69,-12.98 1.24,-4.08 2.81,-7.7 4.69,-10.87 1.91,-3.15 3.93,-5.69 6.07,-7.59 2.15,-1.9 4.04,-3.01 5.7,-3.28 2.01,-0.13 3.71,0.03 5.1,0.5 1.18,0.45 2.1,1.33 2.76,2.62 0.68,1.29 0.57,3.27 -0.33,5.91 0.94,-0.48 1.71,-0.83 2.36,-1.07 0.67,-0.25 1.17,-0.42 1.51,-0.51 0.44,-0.11 0.73,-0.15 0.88,-0.11 0.11,0.13 0.22,0.43 0.34,0.88 0.12,0.45 0.22,1.31 0.33,2.57 0.09,1.25 0.19,2.96 0.3,5.11 0.09,2.15 0.21,4.95 0.35,8.39 0.02,0.67 0.04,1.28 0.08,1.82 0.03,0.57 0.06,1.13 0.09,1.68 0.02,0.55 0.06,1.22 0.11,1.95 0.04,0.75 0.09,1.68 0.14,2.78 0.09,0.65 0.25,1.34 0.48,2.08 0.23,0.73 0.53,1.4 0.91,1.98 0.38,0.57 0.84,0.99 1.39,1.28 0.57,0.25 1.27,0.29 2.12,0.07 0.71,-0.18 1.51,-0.87 2.41,-2.03 0.91,-1.18 1.81,-2.62 2.72,-4.32 0.93,-1.71 1.86,-3.56 2.8,-5.58 0.95,-2.02 1.83,-3.96 2.63,-5.8 0.8,-1.86 1.52,-3.54 2.17,-4.97 0.63,-1.44 1.11,-2.51 1.38,-3.17 0.4,-0.8 0.86,-1.3 1.41,-1.56 0.53,-0.25 0.99,-0.2 1.39,0.14 0.4,0.36 0.62,0.98 0.65,1.88 0.04,0.89 -0.21,2 -0.77,3.36zm-29.83 12.65c0,-1.51 -0.01,-3.27 -0.02,-5.32 0.02,-2.02 -0.04,-3.97 -0.13,-5.82 -0.11,-1.86 -0.22,-3.39 -0.33,-4.6 -0.14,-1.21 -0.34,-1.74 -0.59,-1.6 -0.34,0.17 -0.7,0.35 -1.09,0.61 -0.31,0.23 -0.75,0.46 -1.29,0.68 -0.55,0.22 -1.08,0.47 -1.62,0.74 0.29,-1.27 0.37,-2.29 0.29,-3.06 -0.09,-0.77 -0.22,-1.35 -0.4,-1.77 -0.2,-0.47 -0.44,-0.81 -0.71,-1.04 -0.94,-0.44 -2.17,0.42 -3.69,2.58 -1.51,2.16 -2.96,5.79 -4.37,10.9 -0.59,2.1 -0.92,4.28 -1.03,6.53 -0.1,2.24 -0.03,4.32 0.19,6.21 0.22,1.91 0.6,3.53 1.08,4.87 0.5,1.33 1.02,2.16 1.54,2.47 0.98,0.58 1.96,0.73 2.95,0.44 0.96,-0.29 1.9,-0.84 2.8,-1.63 0.87,-0.78 1.73,-1.74 2.54,-2.85 0.79,-1.11 1.49,-2.23 2.06,-3.36 0.58,-1.14 1.03,-2.14 1.36,-3.05 0.34,-0.92 0.48,-1.57 0.46,-1.93z"/>
   <path id="5" class="fil2" d="M380.82 365.69c-3.52,0.9 -6.94,0.88 -10.23,-0.09 -3.31,-0.96 -6.33,-2.65 -9.12,-5.11 -2.77,-2.44 -5.18,-5.52 -7.24,-9.25 -2.03,-3.72 -3.58,-7.87 -4.6,-12.42 -0.95,-4.27 -1.59,-9 -1.9,-14.18 -0.32,-5.19 -0.24,-10.49 0.23,-15.93 0.49,-5.43 1.39,-10.79 2.71,-16.06 1.33,-5.25 3.15,-10.08 5.47,-14.43 2.35,-4.38 5.21,-8.15 8.62,-11.32 3.4,-3.17 7.46,-5.37 12.19,-6.59 2.89,-0.74 5.51,-0.78 7.81,-0.14 2.3,0.64 4.32,1.76 6.06,3.36 1.72,1.58 3.14,3.5 4.25,5.78 1.11,2.28 1.95,4.66 2.52,7.16 0.47,2.34 0.7,4.69 0.75,7.03 0.02,2.33 -0.22,4.47 -0.71,6.45 -0.52,1.96 -1.33,3.65 -2.45,5.02 -1.11,1.38 -2.55,2.29 -4.3,2.74 -0.87,0.15 -1.75,0.09 -2.66,-0.22 -0.81,-0.23 -1.7,-0.68 -2.66,-1.34 -0.96,-0.65 -1.96,-1.71 -3.03,-3.16 1.72,-1.28 2.87,-3.02 3.45,-5.25 0.6,-2.21 0.91,-4.45 0.93,-6.73 0.01,-2.55 -0.25,-5.35 -0.81,-8.37 -0.6,-2.93 -1.74,-4.89 -3.43,-5.9 -1.68,-0.99 -3.37,-1.27 -5.07,-0.83 -3.32,0.85 -6.36,3.49 -9.14,7.88 -2.78,4.42 -4.99,9.96 -6.62,16.68 -1.63,6.7 -2.49,14.25 -2.63,22.62 -0.13,8.4 0.74,17.02 2.65,25.86 0.87,3.99 2.01,7.28 3.38,9.86 1.38,2.57 2.92,4.59 4.6,6.04 1.69,1.45 3.41,2.36 5.16,2.74 1.75,0.38 3.41,0.35 4.96,-0.05 2.48,-0.63 4.67,-1.76 6.58,-3.39 1.92,-1.61 3.57,-3.44 4.98,-5.44 1.41,-2.02 2.55,-4.03 3.42,-6.02 0.87,-2 1.51,-3.73 1.89,-5.17 0.25,-1.05 0.63,-1.75 1.15,-2.11 0.51,-0.36 1.01,-0.44 1.53,-0.22 0.49,0.2 0.91,0.63 1.23,1.26 0.3,0.64 0.37,1.47 0.18,2.5 -0.58,2.69 -1.43,5.47 -2.54,8.32 -1.12,2.85 -2.49,5.52 -4.15,8.01 -1.64,2.5 -3.59,4.68 -5.83,6.53 -2.22,1.86 -4.76,3.15 -7.58,3.88z"/>
   <path id="6" class="fil2" d="M461.12 299.17c0.37,-0.69 0.79,-1.13 1.31,-1.3 0.53,-0.18 0.98,-0.14 1.39,0.1 0.39,0.23 0.66,0.68 0.79,1.32 0.12,0.65 0.01,1.42 -0.36,2.35 -0.87,2.17 -1.94,4.47 -3.19,6.85 -1.27,2.41 -2.68,4.78 -4.21,7.14 -1.54,2.34 -3.14,4.6 -4.76,6.75 -1.62,2.16 -3.25,4 -4.89,5.56 -1.81,1.74 -3.44,2.79 -4.89,3.17 -1.44,0.37 -3.11,-0.19 -4.99,-1.65 -1.68,-1.3 -2.77,-2.89 -3.21,-4.76 -0.45,-1.89 -0.64,-4.35 -0.59,-7.36 0.04,-1.9 0.18,-4.17 0.44,-6.84 0.26,-2.65 0.36,-5.18 0.31,-7.58 -0.06,-2.39 -0.4,-4.37 -1,-5.89 -0.63,-1.53 -1.75,-2.09 -3.38,-1.67 -1.12,0.29 -2.25,0.98 -3.35,2.1 -1.1,1.11 -2.16,2.46 -3.15,4.02 -0.98,1.57 -1.87,3.3 -2.68,5.16 -0.79,1.87 -1.47,3.64 -2.01,5.36 0.15,2.91 0.29,5.76 0.42,8.6 0.08,2.39 0.2,4.96 0.36,7.75 0.14,2.78 0.24,5.26 0.28,7.44 -0.35,0.46 -0.73,0.83 -1.18,1.1 -0.48,0.26 -0.91,0.44 -1.34,0.56 -0.49,0.12 -0.99,0.21 -1.51,0.27 -0.6,0.02 -1.17,-0.07 -1.74,-0.23 -0.5,-0.16 -1.02,-0.43 -1.57,-0.77 -0.53,-0.36 -1.02,-0.89 -1.43,-1.62 -0.18,-13.86 -0.37,-25.01 -0.58,-33.38 -0.2,-8.39 -0.34,-14.79 -0.42,-19.2 -0.15,-5.22 -0.25,-8.85 -0.31,-10.86 -0.15,-1.41 -0.3,-2.76 -0.48,-4.06 -0.15,-1.17 -0.38,-2.35 -0.68,-3.54 -0.32,-1.21 -0.7,-2.27 -1.18,-3.21 0.47,-0.5 1.03,-0.94 1.65,-1.33 0.61,-0.39 1.21,-0.73 1.81,-1.02 0.72,-0.42 1.45,-0.8 2.2,-1.14 0.74,-0.33 1.43,-0.58 2.06,-0.75 0.56,-0.14 1.11,-0.23 1.63,-0.26 0.51,-0.02 0.9,0.13 1.14,0.46 0.5,0.23 0.88,0.89 1.12,1.96 0.23,1.06 0.43,2.18 0.57,3.34 0.08,1.43 0.12,2.96 0.18,4.6 -0.01,6.09 -0.24,12.09 -0.7,17.95 -0.43,5.87 -0.64,12.09 -0.62,18.62 0.56,-1.65 1.27,-3.38 2.17,-5.19 0.89,-1.81 1.93,-3.52 3.13,-5.14 1.2,-1.64 2.55,-3.06 4.04,-4.31 1.47,-1.25 3.17,-2.13 5.08,-2.62 0.98,-0.26 1.96,-0.33 2.93,-0.24 0.96,0.08 1.88,0.42 2.74,0.99 0.86,0.57 1.62,1.42 2.3,2.57 0.66,1.14 1.2,2.64 1.6,4.5 0.29,1.12 0.47,2.33 0.54,3.58 0.05,1.26 0.05,2.69 0.01,4.24 -0.04,1.55 -0.19,3.3 -0.41,5.23 -0.21,1.94 -0.48,4.19 -0.8,6.76 -0.21,1.79 -0.35,3.29 -0.42,4.52 -0.05,1.21 0.28,2.18 0.98,2.91 0.92,0.95 2.24,0.9 3.97,-0.18 1.72,-1.1 4.05,-3.62 7.01,-7.62 0.67,-0.93 1.38,-2.05 2.17,-3.39 0.8,-1.33 1.53,-2.67 2.25,-4.01 0.71,-1.36 1.35,-2.62 1.94,-3.84 0.59,-1.21 1.1,-2.17 1.51,-2.87z"/>
   <path id="7" class="fil2" d="M505.29 289.15c-1.31,3.65 -2.94,7.29 -4.86,10.9 -1.94,3.62 -4.1,6.97 -6.51,10.04 -2.41,3.07 -5.01,5.7 -7.79,7.92 -2.76,2.24 -5.63,3.73 -8.59,4.49 -1.56,0.4 -3.34,0.45 -5.33,0.18 -1.98,-0.28 -3.92,-1 -5.8,-2.17 -1.89,-1.18 -3.6,-2.89 -5.1,-5.13 -1.52,-2.24 -2.57,-5.17 -3.11,-8.79 -0.48,-2.98 -0.36,-6.25 0.33,-9.86 0.69,-3.6 1.81,-7.03 3.34,-10.3 1.54,-3.25 3.46,-6.11 5.8,-8.6 2.33,-2.47 4.91,-4.08 7.73,-4.8 2.69,-0.7 4.8,-0.53 6.35,0.5 1.54,1.03 2.49,2.56 2.88,4.58 0.34,2.24 0.24,4.4 -0.31,6.51 -0.56,2.09 -1.34,4.07 -2.37,5.91 -1.03,1.85 -2.19,3.57 -3.46,5.19 -1.29,1.6 -2.5,3.09 -3.66,4.43 -1.28,1.47 -2.5,2.86 -3.67,4.16 -1.17,1.32 -2.19,2.51 -3.04,3.56 0.53,1.73 1.22,3.15 2.09,4.2 0.88,1.05 1.84,1.84 2.88,2.36 1.02,0.53 2.13,0.8 3.32,0.84 1.17,0.05 2.32,-0.09 3.45,-0.38 2.4,-0.62 4.71,-2.03 6.93,-4.22 2.23,-2.19 4.3,-4.67 6.26,-7.47 1.96,-2.79 3.72,-5.64 5.27,-8.52 1.55,-2.89 2.81,-5.37 3.79,-7.41 0.34,-0.71 0.76,-1.16 1.28,-1.41 0.49,-0.24 0.93,-0.28 1.32,-0.11 0.38,0.15 0.64,0.55 0.79,1.15 0.16,0.59 0.1,1.34 -0.21,2.25zm-31.3 -9.33c-0.85,0.22 -1.74,0.89 -2.69,2.05 -0.94,1.14 -1.79,2.65 -2.5,4.53 -0.73,1.88 -1.27,4.11 -1.68,6.66 -0.4,2.55 -0.47,5.36 -0.19,8.45 0.69,-0.85 1.44,-1.74 2.24,-2.66 0.83,-0.93 1.63,-1.9 2.43,-2.94 2.42,-3.1 4.02,-5.71 4.76,-7.77 0.74,-2.08 1.03,-3.78 0.83,-5.07 -0.2,-1.38 -0.59,-2.32 -1.16,-2.81 -0.59,-0.5 -1.27,-0.64 -2.04,-0.44z"/>
   <path id="8" class="fil2" d="M502.62 301.59c-0.98,-0.58 -1.72,-1.2 -2.23,-1.85 -0.5,-0.67 -0.92,-1.33 -1.25,-2 -0.34,-0.74 -0.54,-1.51 -0.6,-2.33 0.04,-1.07 0.21,-2.1 0.57,-3.09 0.29,-0.91 0.75,-1.87 1.4,-2.91 0.64,-1.01 1.56,-2.06 2.79,-3.14 0.34,-2.5 0.56,-5.08 0.66,-7.78 0.09,-2.71 0.15,-5.15 0.21,-7.34 0.01,-2.57 -0.05,-5.11 -0.18,-7.63 0.23,-6.45 -0.11,-11.59 -1.01,-15.38 -0.9,-3.8 -1.61,-6.27 -2.14,-7.41 -0.19,-0.47 -0.4,-0.96 -0.59,-1.43 -0.26,-0.39 -0.49,-0.83 -0.73,-1.33 -0.25,-0.5 -0.51,-0.99 -0.78,-1.44 0.67,-0.63 1.26,-1.15 1.79,-1.59 0.54,-0.43 0.99,-0.78 1.37,-1.03 0.45,-0.35 0.87,-0.59 1.28,-0.78 1.52,-0.77 3.01,-1.37 4.44,-1.78 1.46,-0.41 2.32,-0.34 2.59,0.19 0.17,0.34 0.42,0.95 0.77,1.84 0.34,0.9 0.68,2 1.03,3.34 0.35,1.35 0.63,2.88 0.83,4.58 0.21,1.72 0.29,3.57 0.19,5.54 -0.08,1.76 -0.17,4.19 -0.28,7.3 -0.14,2.68 -0.3,6.24 -0.52,10.69 -0.2,4.47 -0.5,10.17 -0.89,17.11 1.93,-1.25 4.09,-2.51 6.48,-3.8 2.36,-1.29 4.83,-2.5 7.36,-3.59 2.55,-1.1 5.1,-2.11 7.7,-3.01 2.59,-0.88 5.04,-1.55 7.33,-2 0.43,-0.11 0.77,0.01 1.06,0.36 0.27,0.34 0.38,0.75 0.31,1.21 -0.08,0.47 -0.35,0.98 -0.87,1.52 -0.49,0.55 -1.3,1.01 -2.4,1.35 -1.37,0.51 -2.89,1.07 -4.54,1.69 -1.65,0.61 -3.33,1.3 -5.05,2.09 -1.73,0.77 -3.4,1.62 -5.05,2.53 -1.65,0.93 -3.15,1.89 -4.55,2.93 -1.1,0.74 -2.18,1.46 -3.27,2.19 -0.9,0.61 -1.84,1.28 -2.81,2.03 -0.98,0.73 -1.78,1.38 -2.4,1.91l-0.43 8.36c4.83,1.84 8.76,3.99 11.76,6.45 3.01,2.46 5.33,4.83 6.98,7.13 1.96,2.65 3.37,5.37 4.25,8.17 0.79,3.09 1.13,6.34 1.03,9.72 -0.11,3.38 -0.55,6.69 -1.33,9.94 -0.79,3.24 -1.87,6.37 -3.23,9.36 -1.4,2.98 -2.97,5.64 -4.73,7.98 -1.77,2.35 -3.69,4.27 -5.74,5.78 -2.06,1.51 -4.14,2.41 -6.24,2.72 -1.52,0.24 -2.89,0.09 -4.07,-0.47 -1.2,-0.56 -2.21,-1.38 -3.02,-2.5 -0.82,-1.1 -1.44,-2.4 -1.9,-3.9 -0.47,-1.5 -0.71,-3.04 -0.75,-4.61 -0.09,-1.56 -0.21,-4.47 -0.32,-8.72 -0.09,-3.6 -0.17,-8.82 -0.21,-15.71 -0.03,-6.87 -0.06,-16.04 -0.07,-27.46zm7.53 3.36c-0.09,3.78 -0.12,7.26 -0.09,10.41 0.02,3.15 0.08,5.93 0.17,8.32 0.04,2.76 0.14,5.26 0.34,7.46 0.07,2.86 0.07,5.67 0.08,8.46 0,2.78 0.08,5.26 0.24,7.44 0.14,2.19 0.41,3.9 0.81,5.16 0.4,1.25 1.01,1.77 1.86,1.55 2.1,-0.39 4.03,-1.73 5.8,-4.04 1.78,-2.29 3.24,-5.01 4.4,-8.13 1.15,-3.12 1.93,-6.37 2.35,-9.75 0.4,-3.38 0.26,-6.37 -0.4,-8.98 -0.75,-2.89 -1.94,-5.64 -3.59,-8.23 -1.01,-1.32 -2.12,-2.57 -3.34,-3.76 -1.09,-1.01 -2.36,-2.05 -3.79,-3.15 -1.46,-1.09 -3.07,-2.02 -4.84,-2.76z"/>
   <path id="9" class="fil3 str0" d="M81.71 442.81c-2.75,0.79 -5.15,0.87 -7.21,0.28 -2.08,-0.6 -3.89,-1.78 -5.44,-3.52 -1.53,-1.76 -2.8,-4.01 -3.83,-6.81 -1.03,-2.78 -1.83,-5.91 -2.41,-9.36 -0.31,-2.72 -0.38,-5.59 -0.18,-8.65 0.15,-2.6 0.65,-5.56 1.49,-8.86 0.85,-3.3 2.25,-6.67 4.22,-10.11 0.61,-0.02 1.11,0.03 1.5,0.12 0.4,0.09 0.74,0.19 0.99,0.36 0.29,0.23 0.5,0.43 0.63,0.63 0.34,0.74 0.35,1.68 0.05,2.82 -0.33,1.12 -0.61,2.33 -0.89,3.6 -0.71,3.65 -1.08,7.02 -1.11,10.11 -0.03,3.09 0.15,5.92 0.57,8.43 0.42,2.17 0.93,4.08 1.54,5.77 0.63,1.69 1.28,3.1 1.94,4.24 0.68,1.14 1.31,2 1.91,2.55 0.59,0.57 1.08,0.81 1.42,0.72 0.36,-0.1 0.66,-0.44 0.93,-1.03 0.25,-0.6 0.48,-1.3 0.64,-2.09 0.25,-0.82 0.46,-2.01 0.65,-3.62 0.2,-1.59 0.37,-3.41 0.51,-5.49 0.14,-2.06 0.22,-4.29 0.27,-6.68 0.02,-2.37 -0.01,-4.75 -0.11,-7.14 -0.17,-4.77 -0.41,-10.14 -0.76,-16.1 -0.32,-5.99 -0.21,-12.36 0.4,-19.14 0.03,-2.79 0.16,-5.87 0.43,-9.25 0.15,-2.91 0.42,-6.31 0.82,-10.21 0.38,-3.9 0.89,-8.15 1.52,-12.74 -0.1,-0.37 0.11,-0.78 0.64,-1.25 0.51,-0.48 1.12,-0.98 1.8,-1.54 0.76,-0.56 1.61,-1.17 2.59,-1.78 1.27,-0.87 2.33,-1.43 3.12,-1.71 0.78,-0.28 1.44,-0.34 1.92,-0.17 0.51,0.18 0.87,0.47 1.14,0.9 0.26,0.42 0.47,0.92 0.61,1.48 0.75,2.29 1.38,4.46 1.94,6.5 0.57,2.03 1.09,3.82 1.56,5.36 0.54,1.8 1,3.46 1.39,4.94 0.58,1.97 1.15,4.62 1.7,7.98 0.58,3.34 1.16,6.87 1.78,10.55 0.6,3.68 1.21,7.28 1.86,10.75 0.63,3.5 1.31,6.35 2.03,8.57 0.31,1.2 0.65,2.3 1.02,3.29 0.37,1 0.74,1.98 1.14,2.92 0.27,-2.77 0.61,-5.71 1.01,-8.78 0.43,-3.07 0.85,-6.05 1.33,-8.91 0.46,-2.88 0.9,-5.55 1.31,-8.03 0.42,-2.48 0.72,-4.52 0.9,-6.15 0.34,-2.2 0.84,-4.99 1.46,-8.39 0.63,-3.4 1.28,-6.8 1.94,-10.21 0.66,-3.41 1.28,-6.56 1.88,-9.41 0.57,-2.86 1.02,-4.86 1.32,-5.98 0.26,-0.82 0.82,-1.64 1.68,-2.48 0.89,-0.82 1.86,-1.59 2.91,-2.33 1.05,-0.71 2.07,-1.3 3.06,-1.73 0.97,-0.44 1.65,-0.63 2.05,-0.58 0.97,-0.04 1.69,0.08 2.16,0.33 0.49,0.26 0.77,0.45 0.88,0.56 0.22,0.25 0.45,0.69 0.7,1.36 0.24,0.65 0.47,1.69 0.69,3.14 0.29,1.73 0.56,4.42 0.78,8.05 0.22,3.64 0.42,7.77 0.6,12.42 0.18,4.68 0.38,9.64 0.57,14.95 0.18,5.28 0.42,10.48 0.67,15.56 0.26,5.1 0.57,9.86 0.92,14.28 0.35,4.42 0.78,8.12 1.33,11.06 0.69,3.28 1.63,6.1 2.84,8.41 0.47,1.01 1.06,1.96 1.73,2.83 0.69,0.88 1.47,1.6 2.37,2.16 0.89,0.56 1.88,0.88 2.97,0.99 1.08,0.09 2.27,-0.1 3.56,-0.59 -1.44,1.66 -2.94,2.99 -4.5,3.99 -1.55,1 -3.12,1.71 -4.75,2.13 -1.75,0.53 -3.37,0.66 -4.87,0.4 -1.49,-0.25 -2.84,-0.8 -4.05,-1.67 -1.18,-0.85 -2.21,-1.99 -3.02,-3.4 -0.8,-1.41 -1.38,-3.04 -1.7,-4.92 -0.32,-1.73 -0.56,-4.64 -0.78,-8.72 -0.23,-4.09 -0.44,-8.72 -0.59,-13.9 -0.17,-5.2 -0.29,-10.62 -0.36,-16.28 -0.06,-5.67 -0.12,-11 -0.17,-15.99 -0.03,-5 -0.08,-9.29 -0.1,-12.91 -0.03,-3.59 -0.07,-5.95 -0.13,-7.07 -0.08,-0.89 -0.15,-1.72 -0.24,-2.49 -0.08,-0.77 -0.14,-1.44 -0.14,-2.04 -0.34,1.59 -0.77,3.51 -1.27,5.74 -0.53,2.24 -1.06,4.65 -1.6,7.2 -0.56,2.55 -1.1,5.17 -1.62,7.91 -0.55,2.74 -1.05,5.38 -1.53,7.91 -0.83,4.12 -1.58,8.32 -2.29,12.61 -0.7,4.29 -1.28,8.33 -1.73,12.13 -0.44,3.81 -0.77,7.21 -0.94,10.18 -0.16,2.97 -0.14,5.22 0.09,6.74l0.39 1.48c0.11,0.43 0.25,0.92 0.43,1.47 0.19,0.57 0.41,1.07 0.68,1.52l-3.38 4.38c-0.6,0.38 -1.09,0.7 -1.51,0.94 -0.43,0.27 -0.85,0.45 -1.28,0.57 -1.61,0.41 -3.08,-0.12 -4.36,-1.6 -1.23,-1.32 -2.79,-4.16 -4.66,-8.49 -1.88,-4.33 -3.51,-9.83 -4.93,-16.46 -0.69,-3.29 -1.3,-6.64 -1.85,-10.03 -0.53,-3.41 -1.02,-6.67 -1.49,-9.79 -0.46,-3.11 -0.9,-6.03 -1.29,-8.74 -0.4,-2.73 -0.86,-5.04 -1.35,-6.94 -0.29,-1.43 -0.66,-2.72 -1.08,-3.84 -0.45,-1.14 -0.87,-2.17 -1.27,-3.13 -0.21,1.79 -0.35,4.18 -0.41,7.16 -0.06,3 -0.07,6.3 -0.05,9.9 0.02,3.62 0.07,7.4 0.17,11.37 0.08,3.96 0.15,7.78 0.23,11.46 0.08,3.66 0.14,7.05 0.19,10.16 0.05,3.11 0.09,5.61 0.11,7.47 0.03,3.02 0.15,6.4 0.37,10.19 0.22,3.78 0.21,7.41 -0.01,10.89 -0.24,3.5 -0.91,6.56 -2.04,9.22 -1.12,2.66 -3.01,4.38 -5.67,5.14z"/>
   <path id="10" class="fil3 str0" d="M167.26 401.48c-2.69,0.69 -4.99,0.82 -6.91,0.41 -1.89,-0.4 -3.5,-1.11 -4.75,-2.09 -1.28,-1 -2.3,-2.17 -3.06,-3.51 -0.76,-1.35 -1.3,-2.62 -1.61,-3.83 -0.54,-2.11 -0.94,-4.4 -1.2,-6.86 -0.25,-2.46 -0.4,-4.75 -0.41,-6.89 -0.03,-2.15 -0.04,-3.96 0,-5.47 0.01,-1.52 0.06,-2.46 0.11,-2.86 0.11,-2.2 0.48,-4.21 1.12,-5.99 0.62,-1.78 1.78,-3.18 3.47,-4.23 0.68,-0.31 1.38,-0.64 2.12,-0.99 0.61,-0.23 1.26,-0.44 1.92,-0.61 0.67,-0.17 1.33,-0.23 1.95,-0.15 -0.66,5.35 -1.12,9.8 -1.37,13.32 -0.26,3.53 -0.41,6.41 -0.45,8.59 -0.03,2.5 0.05,4.46 0.29,5.9 0.46,3.28 1.37,5.6 2.69,7 1.34,1.39 3.43,1.72 6.25,0.99 1.84,-0.47 3.41,-1.61 4.76,-3.44 1.34,-1.81 2.44,-3.98 3.29,-6.53 -0.51,-1.08 -0.92,-2.21 -1.23,-3.42 -0.58,-2.26 -0.95,-4.52 -1.13,-6.77 -0.15,-2.25 -0.22,-4.37 -0.16,-6.39 0.04,-2.02 0.17,-3.82 0.39,-5.46 0.23,-1.64 0.44,-2.94 0.63,-3.9 0.35,-1.88 0.78,-3.11 1.33,-3.67 0.53,-0.55 1.49,-1.04 2.89,-1.48 0.55,-0.22 1.02,-0.34 1.42,-0.42 0.39,-0.07 0.74,-0.1 1.03,-0.1 0.91,0 1.45,0.3 1.62,0.96 0.29,1.12 0.65,2.83 1.09,5.13 0.43,2.3 0.62,4.73 0.53,7.32 0,2.1 -0.03,3.9 -0.15,5.39 -0.1,1.49 -0.23,2.76 -0.42,3.83 -0.17,1.07 -0.4,1.96 -0.67,2.66 -0.28,0.71 -0.51,1.37 -0.75,1.95 0.69,2.07 1.31,3.72 1.85,4.93 0.53,1.24 1.05,2.13 1.55,2.71 0.48,0.59 1,0.96 1.51,1.08 0.53,0.13 1.07,0.12 1.63,-0.02 1,-0.26 2.03,-1.02 3.12,-2.33 1.11,-1.3 2.2,-2.86 3.27,-4.67 1.07,-1.82 2.11,-3.78 3.11,-5.89 1,-2.11 1.89,-4.09 2.71,-5.94 0.79,-1.86 1.47,-3.5 2.02,-4.87 0.55,-1.38 0.88,-2.26 1.03,-2.58 0.33,-0.76 0.69,-1.28 1.13,-1.54 0.42,-0.25 0.8,-0.31 1.14,-0.13 0.35,0.18 0.61,0.52 0.79,1.05 0.17,0.52 0.16,1.14 -0.04,1.86 -0.72,3.06 -1.74,6.35 -3.05,9.88 -1.3,3.54 -2.81,6.88 -4.52,10.03 -1.72,3.16 -3.56,5.89 -5.51,8.18 -1.96,2.32 -4.01,3.75 -6.12,4.3 -1.92,0.49 -3.58,0.23 -5,-0.8 -1.44,-1.03 -2.87,-2.67 -4.28,-4.95 -0.97,2.97 -2.37,5.41 -4.2,7.35 -1.83,1.95 -4.09,3.27 -6.77,3.96z"/>
   <path id="11" class="fil3 str0" d="M218.53 382.63c0.5,0.16 1.08,0.17 1.75,0 0.66,-0.18 1.3,-0.49 1.89,-0.94 0.6,-0.46 1.15,-1.01 1.62,-1.66 0.47,-0.65 0.74,-1.39 0.83,-2.24 0.09,-0.85 -0.2,-1.97 -0.86,-3.35 -0.66,-1.37 -1.5,-2.81 -2.52,-4.32 -1.02,-1.49 -2.1,-3 -3.27,-4.52 -1.14,-1.51 -2.13,-2.91 -2.98,-4.2 -0.71,-0.93 -1.31,-1.84 -1.83,-2.69 -0.48,-0.7 -0.94,-1.39 -1.39,-2.07 -0.42,-0.68 -0.75,-1.13 -0.97,-1.39 -0.19,0.67 -0.59,1.74 -1.13,3.24 -0.56,1.5 -1.18,3.06 -1.86,4.7 -0.65,1.65 -1.3,3.17 -1.92,4.56 -0.62,1.42 -1.05,2.37 -1.29,2.88 -0.41,0.78 -0.86,1.3 -1.35,1.54 -0.5,0.24 -0.98,0.25 -1.41,0.02 -0.43,-0.22 -0.75,-0.64 -0.95,-1.22 -0.19,-0.59 -0.1,-1.38 0.24,-2.38 0.29,-0.67 0.69,-1.73 1.22,-3.2 0.53,-1.45 1.06,-2.93 1.55,-4.47 0.51,-1.52 0.99,-2.87 1.43,-4.08 0.44,-1.21 0.68,-1.93 0.7,-2.15 0,-0.62 -0.39,-1.31 -1.15,-2.07 -0.78,-0.78 -1.14,-1.83 -1.09,-3.11 0.03,-1.07 0.37,-2.37 1.01,-3.94 0.66,-1.56 1.53,-3.04 2.59,-4.45 1.07,-1.41 2.23,-2.56 3.51,-3.45 1.27,-0.88 2.56,-1.2 3.83,-0.92 1.06,0.32 1.97,0.76 2.7,1.29 0.75,0.52 1.12,1.15 1.16,1.89 -0.04,0.38 -0.13,0.91 -0.28,1.54 -0.12,0.63 -0.38,1.43 -0.73,2.39 -0.35,0.95 -0.9,2.21 -1.64,3.75 0.64,1.57 1.33,2.97 2.05,4.21 0.73,1.24 1.41,2.32 2.02,3.22 0.73,1.09 1.46,2.07 2.22,2.92 0.96,1.12 1.97,2.25 3.02,3.4 1.04,1.16 2.02,2.33 2.93,3.49 0.9,1.15 1.66,2.25 2.32,3.29 0.63,1.03 0.98,1.96 1.04,2.78 0.11,1.26 -0.15,2.87 -0.73,4.81 -0.59,1.96 -1.43,3.94 -2.54,5.92 -1.11,1.98 -2.49,3.78 -4.14,5.4 -1.66,1.64 -3.54,2.72 -5.65,3.26 -1.48,0.39 -3.03,0.3 -4.66,-0.26 -1.61,-0.57 -3.04,-1.34 -4.32,-2.34 -1.27,-0.98 -2.29,-2.01 -3.05,-3.1 -0.76,-1.08 -1.05,-1.99 -0.87,-2.71 0.21,-0.96 0.42,-1.73 0.66,-2.31 0.21,-0.59 0.59,-1.29 1.13,-2.1 0.23,-0.29 0.53,-0.64 0.88,-1.02 0.3,-0.31 0.73,-0.65 1.32,-1.01 0.57,-0.38 1.25,-0.82 2.03,-1.31 1.27,2 2.34,3.54 3.24,4.63 0.87,1.09 1.57,1.95 2.12,2.56 0.61,0.67 1.15,1.09 1.57,1.29z"/>
   <path id="12" class="fil3 str0" d="M274.81 343.42c0.18,-0.51 0.47,-0.87 0.92,-1.08 0.42,-0.23 0.81,-0.27 1.14,-0.15 0.34,0.15 0.6,0.47 0.76,0.95 0.16,0.47 0.13,1.19 -0.08,2.16 -0.72,3.05 -1.82,6.42 -3.31,10.12 -1.5,3.7 -3.17,7.23 -5.02,10.6 -1.83,3.38 -3.72,6.25 -5.68,8.63 -1.94,2.39 -3.72,3.79 -5.35,4.21 -2.33,0.6 -4.39,0.62 -6.17,0.12 -1.79,-0.52 -3.3,-1.35 -4.53,-2.46 -1.23,-1.11 -2.22,-2.41 -2.99,-3.91 -0.75,-1.5 -1.24,-2.94 -1.44,-4.31 -0.22,-1.16 -0.5,-3.24 -0.82,-6.28 -0.34,-3.04 -0.66,-6.58 -0.94,-10.61 -0.29,-4.03 -0.55,-8.36 -0.81,-12.99 -0.24,-4.64 -0.4,-9.15 -0.46,-13.49 -1.17,0.46 -2.33,0.89 -3.51,1.35 -1.15,0.45 -2.24,0.81 -3.21,1.06 -2.26,0.58 -4.46,0.86 -6.62,0.86 -2.14,-0.01 -3.78,-0.15 -4.9,-0.38 -0.63,-0.15 -0.99,-0.48 -1.05,-1.02 -0.07,-0.56 0.01,-1.14 0.22,-1.76 0.23,-0.63 0.54,-1.19 0.99,-1.71 0.42,-0.54 0.84,-0.86 1.27,-0.97 1.37,-0.2 2.85,-0.44 4.44,-0.73 1.58,-0.3 3.28,-0.72 5.09,-1.26 1.32,-0.41 2.59,-0.86 3.78,-1.32 1.19,-0.46 2.38,-0.94 3.52,-1.46 0.04,-3.64 0.19,-6.82 0.43,-9.54 0.22,-2.73 0.57,-4.69 1.02,-5.85 0.12,-0.41 0.53,-0.85 1.21,-1.27 0.68,-0.45 1.41,-0.83 2.23,-1.16 0.83,-0.3 1.64,-0.51 2.44,-0.62 0.81,-0.1 1.44,0.03 1.9,0.35 0.5,0.49 1.01,1.9 1.54,4.25 0.53,2.35 0.91,5.41 1.13,9.19 2.97,-0.76 5.63,-1.27 8,-1.56 2.38,-0.26 4.44,-0.43 6.17,-0.45 1.71,-0.03 3.13,0.02 4.2,0.15 1.1,0.15 1.9,0.21 2.43,0.23 0.54,0.01 0.89,0.31 1.07,0.86 0.18,0.55 0.22,1.16 0.14,1.81 -0.1,0.68 -0.36,1.29 -0.83,1.85 -0.45,0.58 -1.05,0.89 -1.79,0.93 -0.73,0.11 -1.56,0.17 -2.5,0.18 -0.94,0.03 -2.03,0.12 -3.32,0.29 -1.26,0.17 -2.76,0.42 -4.49,0.72 -1.74,0.29 -3.73,0.72 -5.99,1.31 -0.41,0.1 -0.9,0.25 -1.41,0.42 -0.52,0.17 -1.07,0.33 -1.63,0.48 0,1.19 0.03,2.38 0.06,3.53 0.03,1.16 0,2.39 -0.1,3.7 -0.2,3.06 -0.47,6.41 -0.81,10.04 -0.32,3.16 -0.74,6.8 -1.26,10.92 -0.51,4.12 -1.15,8.54 -1.9,13.25 0.36,3.14 1.01,5.44 1.95,6.9 0.93,1.45 1.89,2.43 2.85,2.94 1.11,0.54 2.35,0.67 3.71,0.39 1.1,-0.13 2.29,-0.84 3.58,-2.11 1.29,-1.26 2.56,-2.86 3.8,-4.76 1.23,-1.89 2.46,-3.94 3.67,-6.12 1.2,-2.2 2.29,-4.33 3.27,-6.38 0.97,-2.06 1.82,-3.92 2.52,-5.56 0.71,-1.67 1.2,-2.81 1.47,-3.48z"/>
   <path id="13" class="fil3 str0" d="M324.26 336.78c-0.63,1.66 -1.44,3.74 -2.46,6.22 -1.02,2.48 -2.09,4.97 -3.22,7.49 -1.11,2.5 -2.24,4.82 -3.39,6.97 -1.14,2.14 -2.15,3.69 -3.03,4.67 -0.6,0.62 -1.32,1.17 -2.17,1.69 -0.83,0.51 -1.73,0.93 -2.66,1.25 -0.94,0.32 -1.84,0.49 -2.74,0.53 -0.89,0.06 -1.71,-0.06 -2.45,-0.31 -0.78,-0.34 -1.49,-0.91 -2.14,-1.73 -0.56,-0.68 -1.15,-1.61 -1.8,-2.81 -0.65,-1.18 -1.17,-2.74 -1.59,-4.66 -0.97,3.26 -2.29,5.91 -3.94,7.96 -1.65,2.04 -3.32,3.66 -4.96,4.84 -1.92,1.32 -3.93,2.32 -6.01,3.01 -0.99,0.25 -2.13,0.18 -3.44,-0.2 -1.29,-0.38 -2.52,-1.18 -3.67,-2.44 -1.15,-1.25 -2.12,-2.98 -2.93,-5.22 -0.81,-2.24 -1.22,-5.04 -1.26,-8.42 -0.12,-4.58 0.45,-8.89 1.69,-12.98 1.24,-4.08 2.81,-7.7 4.69,-10.87 1.91,-3.15 3.93,-5.69 6.07,-7.59 2.15,-1.9 4.04,-3.01 5.7,-3.28 2.01,-0.13 3.71,0.03 5.1,0.5 1.18,0.45 2.1,1.33 2.76,2.62 0.68,1.29 0.57,3.27 -0.33,5.91 0.94,-0.48 1.71,-0.83 2.36,-1.07 0.67,-0.25 1.17,-0.42 1.51,-0.51 0.44,-0.11 0.73,-0.15 0.88,-0.11 0.11,0.13 0.22,0.43 0.34,0.88 0.12,0.45 0.22,1.31 0.33,2.57 0.09,1.25 0.19,2.96 0.3,5.11 0.09,2.15 0.21,4.95 0.35,8.39 0.02,0.67 0.04,1.28 0.08,1.82 0.03,0.57 0.06,1.13 0.09,1.68 0.02,0.55 0.06,1.22 0.11,1.95 0.04,0.75 0.09,1.68 0.14,2.78 0.09,0.65 0.25,1.34 0.48,2.08 0.23,0.73 0.53,1.4 0.91,1.98 0.38,0.57 0.84,0.99 1.39,1.28 0.57,0.25 1.27,0.29 2.12,0.07 0.71,-0.18 1.51,-0.87 2.41,-2.03 0.91,-1.18 1.81,-2.62 2.72,-4.32 0.93,-1.71 1.86,-3.56 2.8,-5.58 0.95,-2.02 1.83,-3.96 2.63,-5.8 0.8,-1.86 1.52,-3.54 2.17,-4.97 0.63,-1.44 1.11,-2.51 1.38,-3.17 0.4,-0.8 0.86,-1.3 1.41,-1.56 0.53,-0.25 0.99,-0.2 1.39,0.14 0.4,0.36 0.62,0.98 0.65,1.88 0.04,0.89 -0.21,2 -0.77,3.36zm-29.83 12.65c0,-1.51 -0.01,-3.27 -0.02,-5.32 0.02,-2.02 -0.04,-3.97 -0.13,-5.82 -0.11,-1.86 -0.22,-3.39 -0.33,-4.6 -0.14,-1.21 -0.34,-1.74 -0.59,-1.6 -0.34,0.17 -0.7,0.35 -1.09,0.61 -0.31,0.23 -0.75,0.46 -1.29,0.68 -0.55,0.22 -1.08,0.47 -1.62,0.74 0.29,-1.27 0.37,-2.29 0.29,-3.06 -0.09,-0.77 -0.22,-1.35 -0.4,-1.77 -0.2,-0.47 -0.44,-0.81 -0.71,-1.04 -0.94,-0.44 -2.17,0.42 -3.69,2.58 -1.51,2.16 -2.96,5.79 -4.37,10.9 -0.59,2.1 -0.92,4.28 -1.03,6.53 -0.1,2.24 -0.03,4.32 0.19,6.21 0.22,1.91 0.6,3.53 1.08,4.87 0.5,1.33 1.02,2.16 1.54,2.47 0.98,0.58 1.96,0.73 2.95,0.44 0.96,-0.29 1.9,-0.84 2.8,-1.63 0.87,-0.78 1.73,-1.74 2.54,-2.85 0.79,-1.11 1.49,-2.23 2.06,-3.36 0.58,-1.14 1.03,-2.14 1.36,-3.05 0.34,-0.92 0.48,-1.57 0.46,-1.93z"/>
   <path id="14" class="fil3 str0" d="M380.82 365.69c-3.52,0.9 -6.94,0.88 -10.23,-0.09 -3.31,-0.96 -6.33,-2.65 -9.12,-5.11 -2.77,-2.44 -5.18,-5.52 -7.24,-9.25 -2.03,-3.72 -3.58,-7.87 -4.6,-12.42 -0.95,-4.27 -1.59,-9 -1.9,-14.18 -0.32,-5.19 -0.24,-10.49 0.23,-15.93 0.49,-5.43 1.39,-10.79 2.71,-16.06 1.33,-5.25 3.15,-10.08 5.47,-14.43 2.35,-4.38 5.21,-8.15 8.62,-11.32 3.4,-3.17 7.46,-5.37 12.19,-6.59 2.89,-0.74 5.51,-0.78 7.81,-0.14 2.3,0.64 4.32,1.76 6.06,3.36 1.72,1.58 3.14,3.5 4.25,5.78 1.11,2.28 1.95,4.66 2.52,7.16 0.47,2.34 0.7,4.69 0.75,7.03 0.02,2.33 -0.22,4.47 -0.71,6.45 -0.52,1.96 -1.33,3.65 -2.45,5.02 -1.11,1.38 -2.55,2.29 -4.3,2.74 -0.87,0.15 -1.75,0.09 -2.66,-0.22 -0.81,-0.23 -1.7,-0.68 -2.66,-1.34 -0.96,-0.65 -1.96,-1.71 -3.03,-3.16 1.72,-1.28 2.87,-3.02 3.45,-5.25 0.6,-2.21 0.91,-4.45 0.93,-6.73 0.01,-2.55 -0.25,-5.35 -0.81,-8.37 -0.6,-2.93 -1.74,-4.89 -3.43,-5.9 -1.68,-0.99 -3.37,-1.27 -5.07,-0.83 -3.32,0.85 -6.36,3.49 -9.14,7.88 -2.78,4.42 -4.99,9.96 -6.62,16.68 -1.63,6.7 -2.49,14.25 -2.63,22.62 -0.13,8.4 0.74,17.02 2.65,25.86 0.87,3.99 2.01,7.28 3.38,9.86 1.38,2.57 2.92,4.59 4.6,6.04 1.69,1.45 3.41,2.36 5.16,2.74 1.75,0.38 3.41,0.35 4.96,-0.05 2.48,-0.63 4.67,-1.76 6.58,-3.39 1.92,-1.61 3.57,-3.44 4.98,-5.44 1.41,-2.02 2.55,-4.03 3.42,-6.02 0.87,-2 1.51,-3.73 1.89,-5.17 0.25,-1.05 0.63,-1.75 1.15,-2.11 0.51,-0.36 1.01,-0.44 1.53,-0.22 0.49,0.2 0.91,0.63 1.23,1.26 0.3,0.64 0.37,1.47 0.18,2.5 -0.58,2.69 -1.43,5.47 -2.54,8.32 -1.12,2.85 -2.49,5.52 -4.15,8.01 -1.64,2.5 -3.59,4.68 -5.83,6.53 -2.22,1.86 -4.76,3.15 -7.58,3.88z"/>
   <path id="15" class="fil3 str0" d="M461.12 299.17c0.37,-0.69 0.79,-1.13 1.31,-1.3 0.53,-0.18 0.98,-0.14 1.39,0.1 0.39,0.23 0.66,0.68 0.79,1.32 0.12,0.65 0.01,1.42 -0.36,2.35 -0.87,2.17 -1.94,4.47 -3.19,6.85 -1.27,2.41 -2.68,4.78 -4.21,7.14 -1.54,2.34 -3.14,4.6 -4.76,6.75 -1.62,2.16 -3.25,4 -4.89,5.56 -1.81,1.74 -3.44,2.79 -4.89,3.17 -1.44,0.37 -3.11,-0.19 -4.99,-1.65 -1.68,-1.3 -2.77,-2.89 -3.21,-4.76 -0.45,-1.89 -0.64,-4.35 -0.59,-7.36 0.04,-1.9 0.18,-4.17 0.44,-6.84 0.26,-2.65 0.36,-5.18 0.31,-7.58 -0.06,-2.39 -0.4,-4.37 -1,-5.89 -0.63,-1.53 -1.75,-2.09 -3.38,-1.67 -1.12,0.29 -2.25,0.98 -3.35,2.1 -1.1,1.11 -2.16,2.46 -3.15,4.02 -0.98,1.57 -1.87,3.3 -2.68,5.16 -0.79,1.87 -1.47,3.64 -2.01,5.36 0.15,2.91 0.29,5.76 0.42,8.6 0.08,2.39 0.2,4.96 0.36,7.75 0.14,2.78 0.24,5.26 0.28,7.44 -0.35,0.46 -0.73,0.83 -1.18,1.1 -0.48,0.26 -0.91,0.44 -1.34,0.56 -0.49,0.12 -0.99,0.21 -1.51,0.27 -0.6,0.02 -1.17,-0.07 -1.74,-0.23 -0.5,-0.16 -1.02,-0.43 -1.57,-0.77 -0.53,-0.36 -1.02,-0.89 -1.43,-1.62 -0.18,-13.86 -0.37,-25.01 -0.58,-33.38 -0.2,-8.39 -0.34,-14.79 -0.42,-19.2 -0.15,-5.22 -0.25,-8.85 -0.31,-10.86 -0.15,-1.41 -0.3,-2.76 -0.48,-4.06 -0.15,-1.17 -0.38,-2.35 -0.68,-3.54 -0.32,-1.21 -0.7,-2.27 -1.18,-3.21 0.47,-0.5 1.03,-0.94 1.65,-1.33 0.61,-0.39 1.21,-0.73 1.81,-1.02 0.72,-0.42 1.45,-0.8 2.2,-1.14 0.74,-0.33 1.43,-0.58 2.06,-0.75 0.56,-0.14 1.11,-0.23 1.63,-0.26 0.51,-0.02 0.9,0.13 1.14,0.46 0.5,0.23 0.88,0.89 1.12,1.96 0.23,1.06 0.43,2.18 0.57,3.34 0.08,1.43 0.12,2.96 0.18,4.6 -0.01,6.09 -0.24,12.09 -0.7,17.95 -0.43,5.87 -0.64,12.09 -0.62,18.62 0.56,-1.65 1.27,-3.38 2.17,-5.19 0.89,-1.81 1.93,-3.52 3.13,-5.14 1.2,-1.64 2.55,-3.06 4.04,-4.31 1.47,-1.25 3.17,-2.13 5.08,-2.62 0.98,-0.26 1.96,-0.33 2.93,-0.24 0.96,0.08 1.88,0.42 2.74,0.99 0.86,0.57 1.62,1.42 2.3,2.57 0.66,1.14 1.2,2.64 1.6,4.5 0.29,1.12 0.47,2.33 0.54,3.58 0.05,1.26 0.05,2.69 0.01,4.24 -0.04,1.55 -0.19,3.3 -0.41,5.23 -0.21,1.94 -0.48,4.19 -0.8,6.76 -0.21,1.79 -0.35,3.29 -0.42,4.52 -0.05,1.21 0.28,2.18 0.98,2.91 0.92,0.95 2.24,0.9 3.97,-0.18 1.72,-1.1 4.05,-3.62 7.01,-7.62 0.67,-0.93 1.38,-2.05 2.17,-3.39 0.8,-1.33 1.53,-2.67 2.25,-4.01 0.71,-1.36 1.35,-2.62 1.94,-3.84 0.59,-1.21 1.1,-2.17 1.51,-2.87z"/>
   <path id="16" class="fil3 str0" d="M505.29 289.15c-1.31,3.65 -2.94,7.29 -4.86,10.9 -1.94,3.62 -4.1,6.97 -6.51,10.04 -2.41,3.07 -5.01,5.7 -7.79,7.92 -2.76,2.24 -5.63,3.73 -8.59,4.49 -1.56,0.4 -3.34,0.45 -5.33,0.18 -1.98,-0.28 -3.92,-1 -5.8,-2.17 -1.89,-1.18 -3.6,-2.89 -5.1,-5.13 -1.52,-2.24 -2.57,-5.17 -3.11,-8.79 -0.48,-2.98 -0.36,-6.25 0.33,-9.86 0.69,-3.6 1.81,-7.03 3.34,-10.3 1.54,-3.25 3.46,-6.11 5.8,-8.6 2.33,-2.47 4.91,-4.08 7.73,-4.8 2.69,-0.7 4.8,-0.53 6.35,0.5 1.54,1.03 2.49,2.56 2.88,4.58 0.34,2.24 0.24,4.4 -0.31,6.51 -0.56,2.09 -1.34,4.07 -2.37,5.91 -1.03,1.85 -2.19,3.57 -3.46,5.19 -1.29,1.6 -2.5,3.09 -3.66,4.43 -1.28,1.47 -2.5,2.86 -3.67,4.16 -1.17,1.32 -2.19,2.51 -3.04,3.56 0.53,1.73 1.22,3.15 2.09,4.2 0.88,1.05 1.84,1.84 2.88,2.36 1.02,0.53 2.13,0.8 3.32,0.84 1.17,0.05 2.32,-0.09 3.45,-0.38 2.4,-0.62 4.71,-2.03 6.93,-4.22 2.23,-2.19 4.3,-4.67 6.26,-7.47 1.96,-2.79 3.72,-5.64 5.27,-8.52 1.55,-2.89 2.81,-5.37 3.79,-7.41 0.34,-0.71 0.76,-1.16 1.28,-1.41 0.49,-0.24 0.93,-0.28 1.32,-0.11 0.38,0.15 0.64,0.55 0.79,1.15 0.16,0.59 0.1,1.34 -0.21,2.25zm-31.3 -9.33c-0.85,0.22 -1.74,0.89 -2.69,2.05 -0.94,1.14 -1.79,2.65 -2.5,4.53 -0.73,1.88 -1.27,4.11 -1.68,6.66 -0.4,2.55 -0.47,5.36 -0.19,8.45 0.69,-0.85 1.44,-1.74 2.24,-2.66 0.83,-0.93 1.63,-1.9 2.43,-2.94 2.42,-3.1 4.02,-5.71 4.76,-7.77 0.74,-2.08 1.03,-3.78 0.83,-5.07 -0.2,-1.38 -0.59,-2.32 -1.16,-2.81 -0.59,-0.5 -1.27,-0.64 -2.04,-0.44z"/>
   <path id="17" class="fil3 str0" d="M502.62 301.59c-0.98,-0.58 -1.72,-1.2 -2.23,-1.85 -0.5,-0.67 -0.92,-1.33 -1.25,-2 -0.34,-0.74 -0.54,-1.51 -0.6,-2.33 0.04,-1.07 0.21,-2.1 0.57,-3.09 0.29,-0.91 0.75,-1.87 1.4,-2.91 0.64,-1.01 1.56,-2.06 2.79,-3.14 0.34,-2.5 0.56,-5.08 0.66,-7.78 0.09,-2.71 0.15,-5.15 0.21,-7.34 0.01,-2.57 -0.05,-5.11 -0.18,-7.63 0.23,-6.45 -0.11,-11.59 -1.01,-15.38 -0.9,-3.8 -1.61,-6.27 -2.14,-7.41 -0.19,-0.47 -0.4,-0.96 -0.59,-1.43 -0.26,-0.39 -0.49,-0.83 -0.73,-1.33 -0.25,-0.5 -0.51,-0.99 -0.78,-1.44 0.67,-0.63 1.26,-1.15 1.79,-1.59 0.54,-0.43 0.99,-0.78 1.37,-1.03 0.45,-0.35 0.87,-0.59 1.28,-0.78 1.52,-0.77 3.01,-1.37 4.44,-1.78 1.46,-0.41 2.32,-0.34 2.59,0.19 0.17,0.34 0.42,0.95 0.77,1.84 0.34,0.9 0.68,2 1.03,3.34 0.35,1.35 0.63,2.88 0.83,4.58 0.21,1.72 0.29,3.57 0.19,5.54 -0.08,1.76 -0.17,4.19 -0.28,7.3 -0.14,2.68 -0.3,6.24 -0.52,10.69 -0.2,4.47 -0.5,10.17 -0.89,17.11 1.93,-1.25 4.09,-2.51 6.48,-3.8 2.36,-1.29 4.83,-2.5 7.36,-3.59 2.55,-1.1 5.1,-2.11 7.7,-3.01 2.59,-0.88 5.04,-1.55 7.33,-2 0.43,-0.11 0.77,0.01 1.06,0.36 0.27,0.34 0.38,0.75 0.31,1.21 -0.08,0.47 -0.35,0.98 -0.87,1.52 -0.49,0.55 -1.3,1.01 -2.4,1.35 -1.37,0.51 -2.89,1.07 -4.54,1.69 -1.65,0.61 -3.33,1.3 -5.05,2.09 -1.73,0.77 -3.4,1.62 -5.05,2.53 -1.65,0.93 -3.15,1.89 -4.55,2.93 -1.1,0.74 -2.18,1.46 -3.27,2.19 -0.9,0.61 -1.84,1.28 -2.81,2.03 -0.98,0.73 -1.78,1.38 -2.4,1.91l-0.43 8.36c4.83,1.84 8.76,3.99 11.76,6.45 3.01,2.46 5.33,4.83 6.98,7.13 1.96,2.65 3.37,5.37 4.25,8.17 0.79,3.09 1.13,6.34 1.03,9.72 -0.11,3.38 -0.55,6.69 -1.33,9.94 -0.79,3.24 -1.87,6.37 -3.23,9.36 -1.4,2.98 -2.97,5.64 -4.73,7.98 -1.77,2.35 -3.69,4.27 -5.74,5.78 -2.06,1.51 -4.14,2.41 -6.24,2.72 -1.52,0.24 -2.89,0.09 -4.07,-0.47 -1.2,-0.56 -2.21,-1.38 -3.02,-2.5 -0.82,-1.1 -1.44,-2.4 -1.9,-3.9 -0.47,-1.5 -0.71,-3.04 -0.75,-4.61 -0.09,-1.56 -0.21,-4.47 -0.32,-8.72 -0.09,-3.6 -0.17,-8.82 -0.21,-15.71 -0.03,-6.87 -0.06,-16.04 -0.07,-27.46zm7.53 3.36c-0.09,3.78 -0.12,7.26 -0.09,10.41 0.02,3.15 0.08,5.93 0.17,8.32 0.04,2.76 0.14,5.26 0.34,7.46 0.07,2.86 0.07,5.67 0.08,8.46 0,2.78 0.08,5.26 0.24,7.44 0.14,2.19 0.41,3.9 0.81,5.16 0.4,1.25 1.01,1.77 1.86,1.55 2.1,-0.39 4.03,-1.73 5.8,-4.04 1.78,-2.29 3.24,-5.01 4.4,-8.13 1.15,-3.12 1.93,-6.37 2.35,-9.75 0.4,-3.38 0.26,-6.37 -0.4,-8.98 -0.75,-2.89 -1.94,-5.64 -3.59,-8.23 -1.01,-1.32 -2.12,-2.57 -3.34,-3.76 -1.09,-1.01 -2.36,-2.05 -3.79,-3.15 -1.46,-1.09 -3.07,-2.02 -4.84,-2.76z"/>
  </g>
 </g>
</svg>
