<?xml version="1.0" encoding="UTF-8"?>
<!DOCTYPE svg PUBLIC "-//W3C//DTD SVG 1.1//EN" "http://www.w3.org/Graphics/SVG/1.1/DTD/svg11.dtd">
<!-- Creator: CorelDRAW 2019 (64 Bit) -->
<svg xmlns="http://www.w3.org/2000/svg" xml:space="preserve" width="600px" height="600px" version="1.1" style="shape-rendering:geometricPrecision; text-rendering:geometricPrecision; image-rendering:optimizeQuality; fill-rule:evenodd; clip-rule:evenodd"
viewBox="0 0 600 600"
 xmlns:xlink="http://www.w3.org/1999/xlink">
 <defs>
  <style type="text/css">
   <![CDATA[
    .str0 {stroke:#E6E6E6;stroke-width:2.36;stroke-miterlimit:22.9256}
    .str1 {stroke:black;stroke-width:0.9;stroke-miterlimit:22.9256}
    .fil3 {fill:none;fill-rule:nonzero}
    .fil1 {fill:black}
    .fil0 {fill:white}
    .fil2 {fill:black;fill-rule:nonzero}
   ]]>
  </style>
 </defs>
 <g id="Camada_x0020_1">
  <metadata id="CorelCorpID_0Corel-Layer"/>
  <rect class="fil0 str0" x="0.02" width="600" height="600" rx="43.16" ry="43.16"/>
  <g id="_1873238008432">
   <path class="fil1" d="M285.16 94.11c-20.05,-22.86 -69.45,-8.1 -80.66,21.93 -23.62,13.8 -30.95,31.01 -22.88,47.99 -3.01,-0.95 -5.41,-4.12 -7.46,-8.51 -6.64,19.06 -0.89,36.05 16.4,35.37 7.62,6.35 14.51,6.2 20.5,-1.81 -0.85,-2.39 -1.36,-5.22 -1.53,-8.48l-0.06 0.06c-15.39,-0.72 -25.16,-6.13 -27.56,-15.97 8.58,10.16 19.59,12.69 32.51,9.26 4.45,-4.94 9.85,-9.42 15.74,-13.67 -17.74,-7.28 -25.26,-20.46 -26.3,-37.37 6.81,18.31 17.01,30.61 33.29,32.06 7.73,-4.87 16.08,-8.73 25.25,-11.19 2.09,-8.61 1.41,-18.37 -0.67,-28.7 4.52,7.69 6.72,15.84 6.1,26.28 5.45,-2.15 14.79,-3.55 22.25,-3.83 1.53,-19.04 2.31,-30.52 6.08,-37.17 -2.17,14.1 -2.56,26.3 -1.19,36.61 19.38,0.66 29.22,-19.05 18.6,-23.7 7.95,-20.61 -6.48,-39.67 -38.26,-32.41 6.26,4.75 9.69,9.19 9.85,13.25zm16.66 49.08l12.11 30.07 -6.81 -31.55c13.9,-5.73 20.65,-23.96 14.39,-30.76 4.83,-27.94 -18.06,-47.14 -52.97,-34.83 -34.41,-2.8 -56.11,10.71 -69.34,35.09 -16.18,9.68 -24.85,21.19 -26.91,34.31 -14.71,21.52 -7.26,53.1 15.83,52.57 8.35,6.77 17.28,6.34 26.91,-2.66 0.49,0.45 1.01,0.87 1.56,1.24 0.12,15.6 4.73,23.15 13.84,22.58l7.59 -7.87c-2.26,1.04 -4.65,1.11 -7.23,-0.26 21.3,-18.83 48.82,-30.37 83.92,-33.02 -28.91,-3.49 -58.58,6.1 -89.09,29.8 -2.74,-4.19 -4.19,-11.02 -4.04,-21.06 11.66,-14.97 37.94,-26.99 78.5,-36.12 -29.8,1.19 -58.19,10.19 -83.49,35.11 -2.58,-1.02 -2.92,-5.54 -2.58,-9.08 27.49,-22.88 56.39,-32.88 86.46,-33.39 0.46,-0.05 0.91,-0.11 1.35,-0.17z"/>
   <path class="fil1" d="M279.55 224.89c-6.58,-4.96 -18.17,-1.06 -23.05,6.33 -3.72,5.65 -11.9,17.55 -16.42,16.44 -6.38,-1.59 -7.16,-11.92 2.68,-10.3 -1.09,-3.45 -6.45,-4.03 -9.88,0.26 -10.61,15.5 6.79,26.75 25.03,19.94 10.47,-3.91 19.01,-10.18 25.62,-19.75 10.52,3.83 20.87,3.76 31.55,0.58 18.61,-5.54 26.92,-25.41 9.95,-31.67 -5.1,-1.43 -9.19,2.32 -8.25,5.82 7.22,-7.35 12.08,1.63 7.68,6.82 -3.12,3.68 -16.17,-1.1 -22.24,-3.47 -7.94,-3.1 -19.53,0.78 -22.3,8.88 -0.03,0.13 -0.06,0.26 -0.09,0.39 -0.09,-0.09 -0.18,-0.18 -0.28,-0.27z"/>
   <path class="fil1" d="M114.84 113.04l24.33 48.77c4,7.89 -2.36,11.4 -0.7,18.94 2.61,11.87 20.51,40.69 28.15,52.06 2.07,3.09 4.58,6.19 6.38,9.43 4.7,8.48 6.57,12.05 11.96,20.43 4.18,6.48 8.34,12.82 12.56,19.3 10.92,16.76 -8.12,29.5 -16.54,12.82 -4.41,-8.74 -6.78,-15.83 -10.55,-24.67 -3.43,-8.02 -7.03,-15.91 -10.26,-23.98 -3.21,-8.02 -6.48,-15.7 -9.55,-23.76 -2.43,-6.35 -7.5,-17.05 -9.32,-22.45 -0.08,-0.21 -0.15,-0.46 -0.2,-0.69 -0.14,-0.72 -0.07,-0.48 -0.06,-0.71 1.54,0.95 1.55,2.58 3.2,2.04 0.32,-3.52 -4.27,-11.86 -8.61,-14.96 -3.7,-2.65 -10.45,-3.37 -12.59,-6.4 1.69,-1.28 5.72,-2.39 8,-3.6 2.26,-1.22 5.77,-3.72 6.4,-5.81 0.36,-1.2 -0.33,-5.77 -5.3,-3.11 -3.93,2.09 -11.45,9.42 -15.39,5.08 -4.03,-4.45 -12.22,-23.85 -16.29,-31.76l-6.95 -13.26c-1.1,-2.2 1.67,-4.84 2.94,-2.87 6.3,9.84 14.89,29.53 20.2,40.32 1.28,2.48 2.35,4.4 4.7,3.67 -4.02,-12.96 -14.61,-30.33 -20.58,-42.33 -2.75,-5.23 0.05,-7.81 3.25,-2.21l18.39 36.21c1.32,2.63 2.27,6.36 5.06,4.9 -0.33,-4.53 -14.76,-31.93 -18.33,-38.21 -2.27,-3.99 -4.77,-8.92 -2.51,-9.46 1.56,-0.37 3.56,0.34 6.28,6.15 3.23,6.92 14.61,36.21 19.53,38.85 2.31,-1.58 0.93,-3.47 -0.42,-6.12l-14.81 -28.99c-1.57,-3.11 -3.23,-6.4 -4.89,-9.46 -0.85,-1.57 -2.9,-5.02 0.17,-6.08 1.11,-0.39 1.73,0.7 2.35,1.92zm78.77 182.44c-7.34,3.61 -11.66,-18.35 -17.23,-27.62 -3.71,-6.17 -4.01,2 -17.03,-30.12 -1.49,-3.68 -3.02,-7.26 -4.37,-10.97 -0.96,-2.61 -3.53,-8.61 -3.99,-10.95 0.75,0.19 0.64,0.24 1.57,1.62 3.76,5.55 6.44,10.76 9.54,16.83 5,9.79 31.64,57.61 31.51,61.21z"/>
   <path class="fil1" d="M379.03 239.26c-1.75,-0.53 -4,0.02 -4.89,1.02 -1.37,1.56 -0.16,3.36 -2.16,5.01 -3.08,-0.53 -2.08,-5.73 -1.72,-8.93 1.96,-17.28 2.18,-39.47 4.35,-56.36 0.35,-2.77 1.57,-7.87 1.02,-10.37 -0.88,-3.94 -2.89,-3.22 -0.58,-8.37 5.06,0.12 4.2,2.51 7.5,2.93 0.71,-0.99 1.46,-3.57 1.42,-4.98 -1.84,-1.65 -2.22,-2.65 -5.12,-0.96 -1.75,1.02 -3.71,1.42 -5.97,0.46 -3.73,-3.33 5.89,-81.92 7.96,-97.01 0.56,-4.08 1.06,-9.7 1.89,-13.69 7.91,0.7 7.67,34.4 7.17,43.31 -0.49,8.74 -0.93,17.58 -1.64,26.36 -0.3,3.66 -2.29,24.74 -1.69,26.33 0.57,-1.03 3.58,-24.32 3.92,-27.55 1.99,-18.76 5.57,-49.66 -2.02,-66.52 -0.99,-2.19 -3.89,-7.5 -7.18,-7.22 -2.98,19.16 -5.03,38.87 -7.36,58.23 -1.42,11.87 -6.27,50.63 -5.29,60.28 0.43,4.22 2.32,7.96 2.06,12.41 -0.46,8.18 -5.16,32.64 -6.52,42.7 -1.11,8.25 -4.39,20.3 -0.74,27.29 4.79,9.21 15.23,5.02 15.59,-4.37z"/>
   <path class="fil1" d="M378.37 202.57c4.25,-0.23 2.73,-11.94 2.54,-15.67 -0.23,-4.68 0.91,-10.77 -0.48,-15.28 -0.37,-1.21 -0.2,-1.12 -1.11,-1.58 -1.8,6.41 0.01,12.04 -0.98,18.21 -0.35,2.12 -2.6,6.41 -2.35,7.34 0.25,0.94 0.93,1.23 1.34,3.24 0.34,1.66 0.47,2.45 1.04,3.74z"/>
   <path class="fil1" d="M51.34 553.88c53.6,-177.67 385.12,-28.31 500,-197.57 -167.58,145.24 -474.65,6.9 -500,197.57z"/>
   <path class="fil2" d="M110.44 426.34c-2.38,0.68 -4.47,0.75 -6.25,0.24 -1.8,-0.52 -3.37,-1.53 -4.71,-3.04 -1.33,-1.53 -2.43,-3.48 -3.32,-5.91 -0.89,-2.41 -1.59,-5.11 -2.09,-8.11 -0.27,-2.35 -0.33,-4.84 -0.16,-7.48 0.14,-2.26 0.56,-4.82 1.3,-7.68 0.73,-2.86 1.95,-5.78 3.65,-8.76 0.53,-0.02 0.96,0.02 1.3,0.1 0.35,0.08 0.64,0.17 0.86,0.31 0.25,0.21 0.43,0.38 0.54,0.55 0.3,0.64 0.31,1.46 0.05,2.44 -0.29,0.98 -0.53,2.03 -0.77,3.12 -0.62,3.17 -0.94,6.09 -0.96,8.76 -0.03,2.68 0.13,5.13 0.49,7.31 0.37,1.87 0.81,3.53 1.34,4.99 0.54,1.46 1.1,2.69 1.68,3.68 0.58,0.98 1.13,1.73 1.65,2.21 0.51,0.48 0.93,0.69 1.23,0.62 0.31,-0.08 0.57,-0.38 0.8,-0.89 0.22,-0.53 0.42,-1.13 0.56,-1.82 0.22,-0.7 0.4,-1.74 0.56,-3.13 0.18,-1.38 0.32,-2.95 0.44,-4.76 0.13,-1.78 0.2,-3.72 0.23,-5.78 0.02,-2.06 0,-4.12 -0.09,-6.19 -0.14,-4.13 -0.36,-8.79 -0.65,-13.95 -0.28,-5.19 -0.19,-10.7 0.34,-16.58 0.03,-2.41 0.14,-5.08 0.37,-8.01 0.14,-2.52 0.37,-5.47 0.71,-8.85 0.34,-3.37 0.77,-7.06 1.32,-11.04 -0.08,-0.31 0.09,-0.67 0.55,-1.08 0.45,-0.41 0.97,-0.85 1.56,-1.33 0.66,-0.49 1.4,-1.01 2.24,-1.55 1.11,-0.75 2.02,-1.24 2.71,-1.48 0.67,-0.24 1.24,-0.29 1.67,-0.14 0.44,0.15 0.75,0.4 0.98,0.78 0.23,0.36 0.41,0.79 0.53,1.28 0.65,1.99 1.2,3.87 1.69,5.63 0.48,1.76 0.93,3.31 1.34,4.64 0.47,1.57 0.87,3 1.2,4.28 0.51,1.71 1,4 1.48,6.92 0.5,2.89 1,5.95 1.54,9.13 0.52,3.19 1.05,6.31 1.61,9.32 0.55,3.03 1.13,5.5 1.76,7.43 0.27,1.03 0.57,1.99 0.89,2.84 0.32,0.87 0.64,1.72 0.98,2.54 0.24,-2.4 0.53,-4.95 0.88,-7.61 0.37,-2.67 0.74,-5.25 1.15,-7.72 0.4,-2.49 0.78,-4.81 1.13,-6.96 0.37,-2.14 0.63,-3.91 0.79,-5.32 0.29,-1.91 0.72,-4.33 1.26,-7.27 0.55,-2.95 1.11,-5.9 1.68,-8.85 0.58,-2.95 1.11,-5.68 1.63,-8.15 0.49,-2.48 0.88,-4.22 1.15,-5.18 0.22,-0.71 0.7,-1.42 1.45,-2.15 0.77,-0.71 1.61,-1.38 2.52,-2.02 0.91,-0.61 1.79,-1.13 2.65,-1.5 0.84,-0.38 1.43,-0.55 1.77,-0.5 0.85,-0.04 1.47,0.07 1.88,0.28 0.42,0.23 0.67,0.4 0.76,0.49 0.19,0.22 0.39,0.6 0.6,1.18 0.21,0.56 0.41,1.46 0.6,2.72 0.26,1.5 0.49,3.83 0.68,6.97 0.19,3.15 0.36,6.73 0.52,10.77 0.16,4.05 0.33,8.34 0.49,12.94 0.16,4.58 0.37,9.09 0.59,13.49 0.22,4.42 0.49,8.54 0.79,12.36 0.3,3.83 0.68,7.04 1.15,9.59 0.6,2.83 1.41,5.28 2.46,7.28 0.41,0.88 0.92,1.7 1.5,2.45 0.6,0.77 1.28,1.39 2.05,1.88 0.78,0.48 1.64,0.76 2.58,0.85 0.93,0.08 1.96,-0.08 3.09,-0.51 -1.25,1.44 -2.56,2.6 -3.9,3.46 -1.35,0.87 -2.71,1.48 -4.12,1.85 -1.52,0.45 -2.92,0.56 -4.22,0.35 -1.29,-0.22 -2.46,-0.7 -3.51,-1.45 -1.02,-0.74 -1.91,-1.73 -2.61,-2.95 -0.7,-1.23 -1.2,-2.63 -1.48,-4.26 -0.27,-1.5 -0.48,-4.02 -0.68,-7.56 -0.19,-3.54 -0.37,-7.55 -0.51,-12.04 -0.14,-4.5 -0.25,-9.2 -0.31,-14.11 -0.05,-4.91 -0.1,-9.52 -0.14,-13.85 -0.03,-4.33 -0.07,-8.04 -0.09,-11.18 -0.02,-3.11 -0.06,-5.16 -0.11,-6.13 -0.07,-0.77 -0.14,-1.48 -0.21,-2.15 -0.07,-0.67 -0.12,-1.25 -0.12,-1.77 -0.3,1.38 -0.67,3.04 -1.11,4.97 -0.45,1.94 -0.91,4.03 -1.38,6.24 -0.48,2.21 -0.95,4.48 -1.41,6.85 -0.47,2.38 -0.9,4.66 -1.32,6.86 -0.72,3.57 -1.36,7.21 -1.98,10.92 -0.61,3.71 -1.11,7.22 -1.5,10.5 -0.39,3.31 -0.66,6.25 -0.82,8.83 -0.14,2.57 -0.12,4.52 0.09,5.84l0.33 1.28c0.09,0.38 0.22,0.79 0.38,1.27 0.15,0.49 0.35,0.93 0.58,1.32l-2.93 3.79c-0.51,0.33 -0.94,0.61 -1.3,0.82 -0.38,0.23 -0.74,0.39 -1.11,0.49 -1.4,0.36 -2.67,-0.1 -3.78,-1.38 -1.06,-1.15 -2.41,-3.6 -4.03,-7.36 -1.64,-3.75 -3.05,-8.52 -4.28,-14.26 -0.6,-2.85 -1.13,-5.75 -1.6,-8.69 -0.46,-2.95 -0.88,-5.78 -1.29,-8.48 -0.4,-2.7 -0.78,-5.22 -1.12,-7.57 -0.34,-2.37 -0.74,-4.37 -1.16,-6.01 -0.26,-1.24 -0.58,-2.36 -0.95,-3.33 -0.38,-0.99 -0.75,-1.88 -1.09,-2.71 -0.19,1.55 -0.31,3.62 -0.36,6.2 -0.05,2.6 -0.06,5.46 -0.04,8.58 0.02,3.13 0.06,6.41 0.14,9.85 0.07,3.43 0.14,6.74 0.21,9.92 0.06,3.18 0.12,6.12 0.16,8.81 0.04,2.69 0.08,4.86 0.1,6.47 0.02,2.61 0.12,5.54 0.32,8.83 0.19,3.27 0.18,6.42 -0.01,9.44 -0.21,3.02 -0.79,5.68 -1.77,7.98 -0.98,2.3 -2.61,3.79 -4.91,4.45z"/>
   <path id="1" class="fil2" d="M184.55 390.54c-2.33,0.6 -4.32,0.71 -5.98,0.35 -1.64,-0.35 -3.04,-0.96 -4.12,-1.81 -1.11,-0.87 -1.99,-1.88 -2.66,-3.04 -0.65,-1.17 -1.11,-2.27 -1.38,-3.32 -0.48,-1.83 -0.82,-3.81 -1.05,-5.94 -0.21,-2.13 -0.34,-4.12 -0.35,-5.97 -0.03,-1.86 -0.03,-3.43 0,-4.74 0.01,-1.32 0.05,-2.13 0.09,-2.47 0.1,-1.92 0.42,-3.65 0.97,-5.2 0.54,-1.54 1.55,-2.75 3.01,-3.66 0.59,-0.27 1.2,-0.56 1.84,-0.86 0.53,-0.2 1.08,-0.38 1.66,-0.52 0.58,-0.15 1.16,-0.2 1.69,-0.14 -0.58,4.64 -0.97,8.5 -1.19,11.54 -0.23,3.07 -0.35,5.55 -0.38,7.45 -0.03,2.16 0.04,3.86 0.24,5.11 0.4,2.83 1.19,4.85 2.33,6.06 1.16,1.2 2.97,1.49 5.42,0.86 1.59,-0.41 2.96,-1.4 4.12,-2.98 1.16,-1.57 2.12,-3.45 2.85,-5.66 -0.44,-0.94 -0.79,-1.92 -1.06,-2.97 -0.51,-1.95 -0.83,-3.91 -0.98,-5.85 -0.13,-1.96 -0.19,-3.79 -0.14,-5.54 0.03,-1.75 0.15,-3.31 0.34,-4.73 0.2,-1.42 0.37,-2.55 0.54,-3.38 0.3,-1.63 0.68,-2.7 1.15,-3.18 0.47,-0.47 1.29,-0.9 2.51,-1.29 0.47,-0.18 0.88,-0.29 1.23,-0.36 0.33,-0.05 0.64,-0.08 0.9,-0.08 0.78,0 1.25,0.26 1.39,0.82 0.25,0.97 0.57,2.46 0.95,4.45 0.38,1.99 0.54,4.1 0.46,6.34 0,1.82 -0.03,3.38 -0.13,4.68 -0.09,1.29 -0.2,2.39 -0.37,3.31 -0.14,0.93 -0.34,1.7 -0.57,2.31 -0.24,0.61 -0.45,1.18 -0.65,1.68 0.59,1.8 1.13,3.23 1.6,4.28 0.46,1.07 0.91,1.84 1.34,2.34 0.41,0.51 0.86,0.83 1.31,0.94 0.46,0.11 0.93,0.11 1.41,-0.02 0.86,-0.22 1.76,-0.88 2.71,-2.01 0.96,-1.13 1.9,-2.48 2.83,-4.05 0.93,-1.58 1.82,-3.28 2.69,-5.1 0.86,-1.83 1.64,-3.55 2.35,-5.15 0.68,-1.61 1.27,-3.03 1.75,-4.22 0.48,-1.19 0.76,-1.95 0.89,-2.24 0.28,-0.65 0.6,-1.1 0.98,-1.33 0.36,-0.21 0.7,-0.27 0.99,-0.11 0.3,0.16 0.53,0.45 0.68,0.91 0.15,0.45 0.14,0.98 -0.03,1.61 -0.62,2.65 -1.51,5.5 -2.64,8.56 -1.13,3.06 -2.44,5.96 -3.93,8.69 -1.48,2.74 -3.07,5.1 -4.76,7.09 -1.71,2.01 -3.48,3.25 -5.31,3.72 -1.66,0.42 -3.1,0.2 -4.33,-0.69 -1.25,-0.9 -2.48,-2.32 -3.71,-4.29 -0.84,2.57 -2.05,4.69 -3.64,6.37 -1.58,1.69 -3.54,2.83 -5.86,3.43z"/>
   <path id="2" class="fil2" d="M228.96 374.21c0.44,0.14 0.94,0.14 1.52,-0.01 0.58,-0.15 1.13,-0.42 1.65,-0.81 0.51,-0.4 0.99,-0.87 1.39,-1.44 0.41,-0.56 0.65,-1.2 0.72,-1.94 0.08,-0.74 -0.17,-1.71 -0.74,-2.9 -0.58,-1.18 -1.3,-2.43 -2.19,-3.74 -0.88,-1.29 -1.82,-2.6 -2.82,-3.91 -0.99,-1.32 -1.86,-2.53 -2.59,-3.64 -0.61,-0.81 -1.13,-1.6 -1.59,-2.33 -0.41,-0.62 -0.81,-1.21 -1.2,-1.8 -0.36,-0.59 -0.65,-0.98 -0.84,-1.2 -0.17,0.58 -0.51,1.5 -0.98,2.81 -0.48,1.29 -1.02,2.65 -1.6,4.07 -0.57,1.43 -1.13,2.74 -1.68,3.95 -0.53,1.22 -0.9,2.05 -1.11,2.49 -0.36,0.68 -0.74,1.12 -1.17,1.34 -0.43,0.21 -0.85,0.21 -1.22,0.01 -0.38,-0.19 -0.66,-0.55 -0.82,-1.06 -0.16,-0.51 -0.09,-1.19 0.2,-2.05 0.26,-0.59 0.6,-1.51 1.06,-2.78 0.46,-1.25 0.92,-2.54 1.34,-3.87 0.45,-1.31 0.86,-2.49 1.24,-3.54 0.38,-1.05 0.59,-1.67 0.61,-1.86 0,-0.53 -0.34,-1.13 -1,-1.8 -0.67,-0.67 -0.99,-1.58 -0.94,-2.69 0.03,-0.93 0.32,-2.05 0.87,-3.41 0.57,-1.35 1.33,-2.63 2.25,-3.85 0.92,-1.23 1.93,-2.22 3.04,-2.99 1.1,-0.77 2.22,-1.04 3.31,-0.8 0.93,0.28 1.71,0.66 2.34,1.11 0.65,0.45 0.98,1 1.01,1.65 -0.03,0.32 -0.11,0.78 -0.24,1.33 -0.11,0.54 -0.33,1.24 -0.64,2.06 -0.3,0.83 -0.77,1.92 -1.41,3.26 0.55,1.36 1.14,2.57 1.77,3.65 0.63,1.07 1.22,2 1.75,2.78 0.63,0.94 1.27,1.8 1.92,2.53 0.84,0.97 1.71,1.95 2.62,2.95 0.9,1 1.75,2.02 2.54,3.02 0.78,1 1.44,1.95 2.01,2.86 0.54,0.89 0.85,1.7 0.9,2.4 0.1,1.09 -0.13,2.49 -0.63,4.17 -0.51,1.7 -1.24,3.41 -2.2,5.12 -0.96,1.72 -2.16,3.28 -3.59,4.68 -1.44,1.43 -3.07,2.36 -4.9,2.83 -1.28,0.33 -2.62,0.26 -4.03,-0.23 -1.39,-0.49 -2.63,-1.15 -3.74,-2.02 -1.11,-0.85 -1.99,-1.74 -2.65,-2.69 -0.66,-0.94 -0.91,-1.72 -0.75,-2.35 0.18,-0.83 0.36,-1.49 0.57,-2 0.18,-0.51 0.51,-1.11 0.98,-1.82 0.2,-0.25 0.46,-0.55 0.76,-0.88 0.27,-0.27 0.64,-0.56 1.14,-0.88 0.5,-0.33 1.09,-0.71 1.76,-1.13 1.1,1.73 2.03,3.06 2.81,4.02 0.76,0.93 1.37,1.68 1.84,2.21 0.53,0.58 0.99,0.95 1.35,1.12z"/>
   <path id="3" class="fil2" d="M277.73 340.24c0.15,-0.45 0.4,-0.76 0.79,-0.94 0.37,-0.2 0.71,-0.24 0.99,-0.12 0.3,0.12 0.52,0.4 0.66,0.81 0.14,0.42 0.12,1.04 -0.07,1.87 -0.62,2.65 -1.57,5.56 -2.87,8.77 -1.29,3.2 -2.74,6.27 -4.35,9.18 -1.58,2.93 -3.22,5.42 -4.92,7.48 -1.68,2.07 -3.22,3.28 -4.63,3.65 -2.02,0.52 -3.8,0.54 -5.35,0.11 -1.55,-0.46 -2.85,-1.17 -3.92,-2.13 -1.07,-0.97 -1.92,-2.1 -2.59,-3.39 -0.65,-1.3 -1.07,-2.55 -1.25,-3.74 -0.19,-1 -0.44,-2.81 -0.71,-5.44 -0.3,-2.63 -0.57,-5.7 -0.82,-9.19 -0.25,-3.49 -0.48,-7.24 -0.69,-11.26 -0.22,-4.01 -0.35,-7.92 -0.41,-11.68 -1.01,0.4 -2.02,0.77 -3.03,1.17 -1,0.39 -1.94,0.7 -2.79,0.92 -1.96,0.5 -3.86,0.74 -5.73,0.74 -1.86,-0.01 -3.28,-0.13 -4.25,-0.33 -0.54,-0.13 -0.85,-0.41 -0.91,-0.88 -0.06,-0.49 0.02,-0.99 0.2,-1.52 0.19,-0.55 0.46,-1.04 0.85,-1.49 0.36,-0.46 0.73,-0.74 1.1,-0.84 1.19,-0.17 2.47,-0.38 3.84,-0.63 1.37,-0.26 2.85,-0.62 4.42,-1.09 1.14,-0.36 2.24,-0.74 3.27,-1.14 1.04,-0.4 2.06,-0.82 3.05,-1.27 0.04,-3.15 0.17,-5.9 0.38,-8.26 0.19,-2.37 0.49,-4.07 0.88,-5.07 0.11,-0.36 0.46,-0.74 1.05,-1.11 0.58,-0.38 1.22,-0.71 1.93,-1 0.71,-0.26 1.42,-0.44 2.11,-0.54 0.7,-0.08 1.25,0.03 1.65,0.31 0.43,0.43 0.88,1.65 1.33,3.68 0.46,2.04 0.79,4.69 0.98,7.96 2.57,-0.66 4.88,-1.1 6.94,-1.35 2.06,-0.23 3.84,-0.37 5.34,-0.39 1.48,-0.03 2.71,0.02 3.64,0.13 0.95,0.13 1.65,0.18 2.1,0.2 0.47,0.01 0.77,0.27 0.93,0.74 0.15,0.48 0.19,1 0.12,1.57 -0.08,0.59 -0.32,1.12 -0.72,1.61 -0.39,0.5 -0.91,0.77 -1.55,0.8 -0.63,0.09 -1.35,0.15 -2.17,0.15 -0.81,0.03 -1.75,0.11 -2.87,0.26 -1.09,0.15 -2.39,0.36 -3.89,0.62 -1.51,0.25 -3.23,0.63 -5.19,1.13 -0.36,0.1 -0.78,0.22 -1.22,0.37 -0.45,0.15 -0.93,0.29 -1.41,0.41 -0.01,1.04 0.03,2.06 0.05,3.06 0.02,1.01 0,2.07 -0.09,3.21 -0.17,2.65 -0.41,5.55 -0.7,8.7 -0.28,2.74 -0.64,5.89 -1.09,9.46 -0.45,3.57 -1,7.4 -1.65,11.48 0.32,2.72 0.88,4.71 1.69,5.97 0.81,1.26 1.64,2.11 2.47,2.55 0.96,0.47 2.04,0.58 3.21,0.34 0.96,-0.11 1.99,-0.72 3.1,-1.83 1.12,-1.09 2.22,-2.47 3.3,-4.12 1.06,-1.64 2.12,-3.42 3.17,-5.31 1.05,-1.9 1.99,-3.75 2.84,-5.52 0.84,-1.78 1.58,-3.39 2.18,-4.82 0.61,-1.44 1.04,-2.44 1.28,-3.01z"/>
   <path id="4" class="fil2" d="M320.57 334.48c-0.55,1.44 -1.25,3.24 -2.14,5.39 -0.88,2.15 -1.81,4.31 -2.78,6.49 -0.96,2.17 -1.95,4.18 -2.94,6.04 -0.99,1.86 -1.86,3.2 -2.63,4.05 -0.51,0.53 -1.14,1.01 -1.87,1.46 -0.73,0.44 -1.5,0.81 -2.32,1.08 -0.81,0.28 -1.59,0.43 -2.36,0.46 -0.78,0.05 -1.49,-0.05 -2.13,-0.27 -0.67,-0.29 -1.29,-0.79 -1.85,-1.49 -0.49,-0.59 -0.99,-1.4 -1.56,-2.44 -0.57,-1.02 -1.02,-2.37 -1.38,-4.04 -0.84,2.83 -1.98,5.13 -3.41,6.9 -1.43,1.77 -2.88,3.17 -4.3,4.19 -1.66,1.15 -3.41,2.01 -5.2,2.61 -0.86,0.22 -1.85,0.16 -2.99,-0.17 -1.11,-0.33 -2.18,-1.02 -3.18,-2.12 -0.99,-1.08 -1.83,-2.58 -2.53,-4.52 -0.7,-1.94 -1.06,-4.37 -1.1,-7.3 -0.1,-3.96 0.39,-7.69 1.47,-11.24 1.07,-3.53 2.44,-6.67 4.07,-9.41 1.65,-2.73 3.4,-4.94 5.25,-6.58 1.86,-1.65 3.5,-2.61 4.94,-2.84 1.74,-0.12 3.21,0.02 4.42,0.43 1.02,0.39 1.82,1.15 2.39,2.27 0.59,1.12 0.49,2.83 -0.29,5.12 0.82,-0.41 1.49,-0.72 2.05,-0.93 0.58,-0.22 1.01,-0.36 1.31,-0.44 0.37,-0.09 0.63,-0.13 0.76,-0.09 0.09,0.11 0.19,0.36 0.29,0.76 0.1,0.39 0.2,1.13 0.29,2.22 0.08,1.09 0.16,2.57 0.26,4.43 0.08,1.87 0.19,4.29 0.3,7.27 0.02,0.58 0.04,1.11 0.07,1.58 0.03,0.49 0.05,0.97 0.08,1.45 0.02,0.48 0.05,1.06 0.1,1.69 0.03,0.65 0.07,1.45 0.12,2.41 0.08,0.57 0.21,1.16 0.41,1.8 0.2,0.63 0.46,1.21 0.79,1.71 0.33,0.5 0.73,0.87 1.21,1.11 0.49,0.23 1.1,0.25 1.83,0.07 0.61,-0.16 1.31,-0.76 2.09,-1.76 0.79,-1.02 1.57,-2.27 2.35,-3.75 0.81,-1.47 1.61,-3.08 2.43,-4.83 0.82,-1.74 1.59,-3.43 2.28,-5.03 0.69,-1.61 1.32,-3.06 1.88,-4.3 0.55,-1.24 0.96,-2.17 1.2,-2.75 0.34,-0.69 0.74,-1.12 1.22,-1.35 0.46,-0.22 0.86,-0.17 1.2,0.13 0.35,0.31 0.54,0.84 0.57,1.62 0.03,0.78 -0.19,1.74 -0.67,2.91zm-25.84 10.96c0,-1.3 -0.02,-2.83 -0.02,-4.6 0.02,-1.76 -0.04,-3.45 -0.11,-5.05 -0.1,-1.61 -0.19,-2.94 -0.29,-3.98 -0.13,-1.05 -0.29,-1.51 -0.51,-1.39 -0.3,0.15 -0.61,0.31 -0.95,0.53 -0.27,0.2 -0.65,0.4 -1.12,0.59 -0.47,0.19 -0.93,0.41 -1.4,0.64 0.25,-1.1 0.32,-1.98 0.25,-2.65 -0.07,-0.67 -0.18,-1.17 -0.34,-1.53 -0.17,-0.41 -0.39,-0.7 -0.62,-0.91 -0.82,-0.37 -1.88,0.37 -3.2,2.24 -1.3,1.87 -2.56,5.02 -3.78,9.44 -0.51,1.82 -0.8,3.71 -0.9,5.66 -0.08,1.94 -0.02,3.74 0.17,5.38 0.19,1.65 0.52,3.05 0.94,4.22 0.43,1.15 0.88,1.87 1.33,2.14 0.85,0.5 1.7,0.63 2.56,0.38 0.83,-0.25 1.64,-0.73 2.42,-1.41 0.76,-0.68 1.5,-1.51 2.2,-2.47 0.69,-0.96 1.29,-1.94 1.79,-2.92 0.5,-0.98 0.89,-1.84 1.17,-2.64 0.3,-0.79 0.42,-1.35 0.41,-1.67z"/>
   <path id="5" class="fil2" d="M369.57 359.53c-3.05,0.78 -6.01,0.76 -8.87,-0.07 -2.86,-0.83 -5.48,-2.3 -7.9,-4.43 -2.4,-2.12 -4.49,-4.79 -6.27,-8.02 -1.76,-3.22 -3.11,-6.81 -3.99,-10.76 -0.82,-3.69 -1.37,-7.79 -1.64,-12.28 -0.27,-4.5 -0.2,-9.09 0.2,-13.81 0.43,-4.7 1.2,-9.34 2.35,-13.91 1.14,-4.55 2.72,-8.73 4.74,-12.5 2.03,-3.8 4.51,-7.06 7.46,-9.8 2.95,-2.75 6.46,-4.65 10.57,-5.71 2.5,-0.64 4.76,-0.68 6.76,-0.12 2,0.55 3.75,1.52 5.26,2.9 1.48,1.37 2.71,3.04 3.67,5.02 0.96,1.97 1.69,4.03 2.18,6.19 0.41,2.04 0.62,4.07 0.65,6.1 0.02,2.01 -0.19,3.87 -0.61,5.58 -0.45,1.7 -1.16,3.17 -2.12,4.35 -0.96,1.2 -2.21,1.99 -3.73,2.38 -0.75,0.13 -1.52,0.07 -2.3,-0.19 -0.7,-0.2 -1.47,-0.59 -2.3,-1.16 -0.84,-0.57 -1.7,-1.48 -2.63,-2.75 1.49,-1.1 2.48,-2.61 2.99,-4.54 0.52,-1.92 0.79,-3.86 0.8,-5.83 0.01,-2.21 -0.21,-4.64 -0.7,-7.25 -0.52,-2.54 -1.51,-4.24 -2.97,-5.11 -1.46,-0.86 -2.92,-1.1 -4.39,-0.72 -2.88,0.74 -5.52,3.02 -7.92,6.83 -2.41,3.82 -4.33,8.62 -5.73,14.44 -1.41,5.81 -2.17,12.35 -2.29,19.61 -0.11,7.27 0.64,14.74 2.3,22.39 0.76,3.46 1.74,6.32 2.93,8.55 1.19,2.23 2.53,3.97 3.99,5.23 1.46,1.26 2.94,2.05 4.46,2.37 1.52,0.33 2.96,0.31 4.3,-0.04 2.15,-0.55 4.05,-1.52 5.71,-2.93 1.66,-1.4 3.08,-2.99 4.31,-4.72 1.22,-1.75 2.2,-3.49 2.96,-5.22 0.76,-1.73 1.31,-3.22 1.64,-4.48 0.21,-0.9 0.54,-1.51 0.99,-1.82 0.44,-0.32 0.88,-0.38 1.33,-0.19 0.42,0.17 0.79,0.54 1.06,1.09 0.26,0.55 0.33,1.27 0.16,2.16 -0.5,2.34 -1.24,4.74 -2.2,7.22 -0.97,2.46 -2.16,4.77 -3.59,6.93 -1.43,2.17 -3.11,4.06 -5.06,5.66 -1.92,1.61 -4.12,2.73 -6.56,3.36z"/>
   <path id="6" class="fil2" d="M439.14 301.9c0.31,-0.6 0.68,-0.98 1.13,-1.13 0.46,-0.15 0.85,-0.11 1.2,0.09 0.34,0.2 0.57,0.59 0.68,1.15 0.11,0.56 0.02,1.23 -0.31,2.03 -0.75,1.88 -1.67,3.87 -2.76,5.94 -1.1,2.08 -2.32,4.14 -3.65,6.18 -1.33,2.03 -2.71,3.99 -4.12,5.85 -1.41,1.87 -2.81,3.47 -4.24,4.82 -1.56,1.5 -2.98,2.42 -4.23,2.74 -1.25,0.32 -2.7,-0.16 -4.32,-1.43 -1.46,-1.12 -2.4,-2.5 -2.79,-4.12 -0.38,-1.64 -0.55,-3.77 -0.5,-6.38 0.03,-1.64 0.15,-3.61 0.38,-5.92 0.22,-2.3 0.31,-4.49 0.26,-6.57 -0.05,-2.07 -0.34,-3.78 -0.86,-5.1 -0.55,-1.33 -1.52,-1.81 -2.93,-1.45 -0.97,0.25 -1.95,0.85 -2.91,1.82 -0.95,0.96 -1.87,2.13 -2.72,3.49 -0.85,1.35 -1.62,2.85 -2.32,4.47 -0.69,1.61 -1.28,3.15 -1.75,4.64 0.14,2.52 0.25,4.99 0.37,7.45 0.07,2.07 0.17,4.29 0.31,6.71 0.12,2.41 0.2,4.56 0.24,6.45 -0.3,0.4 -0.63,0.71 -1.02,0.95 -0.41,0.22 -0.79,0.38 -1.16,0.48 -0.43,0.11 -0.86,0.19 -1.31,0.24 -0.52,0.01 -1.02,-0.06 -1.51,-0.2 -0.43,-0.14 -0.88,-0.37 -1.35,-0.67 -0.47,-0.31 -0.89,-0.77 -1.25,-1.4 -0.15,-12.01 -0.32,-21.67 -0.5,-28.92 -0.17,-7.26 -0.29,-12.81 -0.36,-16.63 -0.13,-4.52 -0.22,-7.67 -0.27,-9.41 -0.13,-1.22 -0.26,-2.39 -0.42,-3.52 -0.13,-1.02 -0.32,-2.03 -0.59,-3.07 -0.27,-1.05 -0.6,-1.96 -1.01,-2.77 0.4,-0.44 0.89,-0.82 1.42,-1.15 0.53,-0.34 1.05,-0.64 1.57,-0.89 0.63,-0.37 1.26,-0.7 1.9,-0.99 0.65,-0.29 1.24,-0.51 1.79,-0.65 0.48,-0.12 0.97,-0.2 1.41,-0.23 0.45,-0.01 0.78,0.12 0.99,0.4 0.43,0.2 0.76,0.77 0.97,1.7 0.2,0.92 0.37,1.89 0.49,2.9 0.07,1.23 0.11,2.56 0.16,3.98 -0.01,5.28 -0.21,10.47 -0.6,15.55 -0.38,5.08 -0.56,10.47 -0.54,16.13 0.48,-1.43 1.1,-2.92 1.88,-4.49 0.77,-1.57 1.67,-3.05 2.71,-4.46 1.04,-1.42 2.2,-2.65 3.49,-3.73 1.28,-1.08 2.75,-1.85 4.41,-2.27 0.85,-0.22 1.7,-0.29 2.54,-0.21 0.83,0.07 1.63,0.37 2.37,0.86 0.75,0.49 1.4,1.23 1.99,2.23 0.58,0.98 1.04,2.28 1.39,3.9 0.25,0.97 0.4,2.01 0.47,3.1 0.04,1.09 0.04,2.32 0.01,3.67 -0.04,1.34 -0.17,2.86 -0.36,4.53 -0.18,1.68 -0.41,3.63 -0.69,5.85 -0.19,1.56 -0.3,2.85 -0.36,3.92 -0.05,1.05 0.23,1.89 0.85,2.52 0.79,0.83 1.93,0.79 3.43,-0.15 1.49,-0.95 3.51,-3.14 6.08,-6.61 0.58,-0.8 1.19,-1.77 1.88,-2.93 0.69,-1.15 1.32,-2.32 1.94,-3.48 0.62,-1.17 1.17,-2.27 1.69,-3.32 0.51,-1.05 0.95,-1.88 1.31,-2.49z"/>
   <path id="7" class="fil2" d="M477.4 293.22c-1.14,3.16 -2.55,6.31 -4.21,9.45 -1.68,3.13 -3.55,6.04 -5.64,8.69 -2.09,2.66 -4.34,4.94 -6.75,6.87 -2.39,1.93 -4.88,3.22 -7.44,3.88 -1.35,0.35 -2.89,0.4 -4.62,0.16 -1.72,-0.25 -3.4,-0.87 -5.03,-1.88 -1.63,-1.02 -3.11,-2.51 -4.41,-4.44 -1.32,-1.95 -2.23,-4.49 -2.7,-7.62 -0.41,-2.58 -0.31,-5.41 0.29,-8.54 0.6,-3.12 1.57,-6.09 2.9,-8.92 1.32,-2.82 2.99,-5.3 5.02,-7.46 2.02,-2.14 4.25,-3.53 6.69,-4.16 2.34,-0.6 4.16,-0.45 5.51,0.44 1.33,0.89 2.15,2.21 2.49,3.96 0.3,1.95 0.21,3.82 -0.27,5.65 -0.49,1.81 -1.16,3.52 -2.05,5.12 -0.89,1.6 -1.89,3.09 -3,4.49 -1.12,1.39 -2.17,2.68 -3.17,3.84 -1.11,1.27 -2.17,2.48 -3.18,3.61 -1.01,1.14 -1.89,2.17 -2.63,3.08 0.45,1.5 1.05,2.73 1.81,3.64 0.76,0.9 1.59,1.59 2.49,2.04 0.89,0.46 1.85,0.7 2.88,0.73 1.01,0.04 2.01,-0.08 2.98,-0.33 2.09,-0.54 4.09,-1.75 6.01,-3.65 1.93,-1.9 3.73,-4.05 5.43,-6.47 1.69,-2.43 3.21,-4.89 4.56,-7.39 1.34,-2.5 2.44,-4.65 3.28,-6.42 0.3,-0.61 0.66,-1 1.11,-1.22 0.43,-0.21 0.8,-0.24 1.14,-0.09 0.34,0.13 0.56,0.47 0.69,0.99 0.14,0.51 0.09,1.16 -0.18,1.95zm-27.12 -8.08c-0.74,0.19 -1.5,0.77 -2.33,1.77 -0.81,1 -1.55,2.3 -2.16,3.93 -0.63,1.63 -1.11,3.56 -1.46,5.77 -0.35,2.21 -0.4,4.64 -0.16,7.32 0.59,-0.74 1.24,-1.51 1.94,-2.3 0.71,-0.81 1.41,-1.65 2.1,-2.55 2.09,-2.69 3.48,-4.95 4.13,-6.74 0.63,-1.8 0.89,-3.27 0.72,-4.39 -0.18,-1.19 -0.52,-2 -1.01,-2.43 -0.51,-0.43 -1.1,-0.55 -1.77,-0.38z"/>
   <path id="8" class="fil2" d="M475.08 304c-0.84,-0.5 -1.48,-1.04 -1.93,-1.61 -0.43,-0.57 -0.8,-1.15 -1.08,-1.72 -0.3,-0.65 -0.47,-1.32 -0.52,-2.02 0.03,-0.93 0.19,-1.82 0.5,-2.68 0.25,-0.79 0.65,-1.63 1.2,-2.52 0.56,-0.88 1.36,-1.79 2.42,-2.73 0.3,-2.16 0.49,-4.39 0.57,-6.74 0.08,-2.34 0.14,-4.45 0.18,-6.35 0.02,-2.23 -0.03,-4.43 -0.14,-6.61 0.19,-5.59 -0.1,-10.04 -0.88,-13.33 -0.78,-3.29 -1.4,-5.43 -1.85,-6.42 -0.17,-0.4 -0.35,-0.82 -0.52,-1.23 -0.22,-0.35 -0.42,-0.73 -0.63,-1.16 -0.22,-0.43 -0.44,-0.85 -0.67,-1.24 0.57,-0.55 1.09,-1 1.54,-1.39 0.47,-0.37 0.86,-0.67 1.19,-0.89 0.39,-0.3 0.75,-0.51 1.11,-0.67 1.32,-0.67 2.6,-1.19 3.85,-1.54 1.26,-0.36 2.01,-0.3 2.24,0.16 0.14,0.29 0.36,0.82 0.66,1.6 0.3,0.77 0.6,1.73 0.9,2.89 0.3,1.17 0.54,2.5 0.72,3.97 0.18,1.49 0.25,3.09 0.17,4.8 -0.08,1.52 -0.15,3.62 -0.24,6.32 -0.12,2.32 -0.26,5.41 -0.46,9.26 -0.17,3.87 -0.43,8.82 -0.77,14.83 1.67,-1.08 3.54,-2.18 5.61,-3.3 2.05,-1.11 4.18,-2.16 6.38,-3.11 2.21,-0.95 4.42,-1.82 6.67,-2.6 2.24,-0.77 4.37,-1.34 6.35,-1.74 0.38,-0.09 0.67,0.01 0.92,0.32 0.24,0.29 0.33,0.64 0.27,1.05 -0.07,0.4 -0.3,0.84 -0.75,1.31 -0.43,0.47 -1.13,0.87 -2.09,1.17 -1.19,0.44 -2.5,0.92 -3.93,1.46 -1.43,0.54 -2.88,1.13 -4.37,1.81 -1.5,0.67 -2.95,1.41 -4.38,2.2 -1.43,0.8 -2.73,1.64 -3.94,2.53 -0.95,0.65 -1.89,1.27 -2.83,1.9 -0.78,0.53 -1.6,1.11 -2.44,1.76 -0.85,0.64 -1.54,1.2 -2.07,1.65l-0.38 7.24c4.19,1.6 7.59,3.46 10.19,5.6 2.6,2.13 4.62,4.18 6.05,6.17 1.69,2.3 2.92,4.66 3.67,7.08 0.69,2.68 0.98,5.49 0.9,8.42 -0.1,2.93 -0.48,5.8 -1.15,8.61 -0.68,2.81 -1.62,5.52 -2.8,8.12 -1.21,2.58 -2.57,4.88 -4.1,6.91 -1.53,2.03 -3.19,3.69 -4.97,5 -1.79,1.31 -3.59,2.09 -5.41,2.36 -1.31,0.21 -2.5,0.08 -3.52,-0.41 -1.05,-0.48 -1.91,-1.19 -2.61,-2.17 -0.72,-0.95 -1.26,-2.08 -1.66,-3.38 -0.4,-1.3 -0.61,-2.63 -0.64,-3.99 -0.08,-1.34 -0.18,-3.87 -0.28,-7.55 -0.08,-3.12 -0.15,-7.65 -0.18,-13.61 -0.03,-5.96 -0.06,-13.9 -0.07,-23.79zm6.53 2.91c-0.07,3.27 -0.1,6.28 -0.08,9.02 0.02,2.73 0.07,5.14 0.15,7.2 0.03,2.4 0.12,4.56 0.3,6.47 0.05,2.48 0.06,4.91 0.06,7.33 0,2.4 0.07,4.56 0.21,6.44 0.12,1.91 0.35,3.38 0.7,4.48 0.35,1.08 0.88,1.52 1.61,1.33 1.82,-0.33 3.49,-1.49 5.03,-3.49 1.54,-1.99 2.81,-4.35 3.81,-7.04 0.99,-2.71 1.67,-5.53 2.03,-8.46 0.35,-2.92 0.24,-5.52 -0.34,-7.77 -0.65,-2.51 -1.68,-4.89 -3.11,-7.13 -0.88,-1.14 -1.84,-2.23 -2.89,-3.26 -0.95,-0.88 -2.05,-1.78 -3.29,-2.73 -1.26,-0.94 -2.66,-1.75 -4.19,-2.39z"/>
   <path id="9" class="fil3 str1" d="M110.44 426.34c-2.38,0.68 -4.47,0.75 -6.25,0.24 -1.8,-0.52 -3.37,-1.53 -4.71,-3.04 -1.33,-1.53 -2.43,-3.48 -3.32,-5.91 -0.89,-2.41 -1.59,-5.11 -2.09,-8.11 -0.27,-2.35 -0.33,-4.84 -0.16,-7.48 0.14,-2.26 0.56,-4.82 1.3,-7.68 0.73,-2.86 1.95,-5.78 3.65,-8.76 0.53,-0.02 0.96,0.02 1.3,0.1 0.35,0.08 0.64,0.17 0.86,0.31 0.25,0.21 0.43,0.38 0.54,0.55 0.3,0.64 0.31,1.46 0.05,2.44 -0.29,0.98 -0.53,2.03 -0.77,3.12 -0.62,3.17 -0.94,6.09 -0.96,8.76 -0.03,2.68 0.13,5.13 0.49,7.31 0.37,1.87 0.81,3.53 1.34,4.99 0.54,1.46 1.1,2.69 1.68,3.68 0.58,0.98 1.13,1.73 1.65,2.21 0.51,0.48 0.93,0.69 1.23,0.62 0.31,-0.08 0.57,-0.38 0.8,-0.89 0.22,-0.53 0.42,-1.13 0.56,-1.82 0.22,-0.7 0.4,-1.74 0.56,-3.13 0.18,-1.38 0.32,-2.95 0.44,-4.76 0.13,-1.78 0.2,-3.72 0.23,-5.78 0.02,-2.06 0,-4.12 -0.09,-6.19 -0.14,-4.13 -0.36,-8.79 -0.65,-13.95 -0.28,-5.19 -0.19,-10.7 0.34,-16.58 0.03,-2.41 0.14,-5.08 0.37,-8.01 0.14,-2.52 0.37,-5.47 0.71,-8.85 0.34,-3.37 0.77,-7.06 1.32,-11.04 -0.08,-0.31 0.09,-0.67 0.55,-1.08 0.45,-0.41 0.97,-0.85 1.56,-1.33 0.66,-0.49 1.4,-1.01 2.24,-1.55 1.11,-0.75 2.02,-1.24 2.71,-1.48 0.67,-0.24 1.24,-0.29 1.67,-0.14 0.44,0.15 0.75,0.4 0.98,0.78 0.23,0.36 0.41,0.79 0.53,1.28 0.65,1.99 1.2,3.87 1.69,5.63 0.48,1.76 0.93,3.31 1.34,4.64 0.47,1.57 0.87,3 1.2,4.28 0.51,1.71 1,4 1.48,6.92 0.5,2.89 1,5.95 1.54,9.13 0.52,3.19 1.05,6.31 1.61,9.32 0.55,3.03 1.13,5.5 1.76,7.43 0.27,1.03 0.57,1.99 0.89,2.84 0.32,0.87 0.64,1.72 0.98,2.54 0.24,-2.4 0.53,-4.95 0.88,-7.61 0.37,-2.67 0.74,-5.25 1.15,-7.72 0.4,-2.49 0.78,-4.81 1.13,-6.96 0.37,-2.14 0.63,-3.91 0.79,-5.32 0.29,-1.91 0.72,-4.33 1.26,-7.27 0.55,-2.95 1.11,-5.9 1.68,-8.85 0.58,-2.95 1.11,-5.68 1.63,-8.15 0.49,-2.48 0.88,-4.22 1.15,-5.18 0.22,-0.71 0.7,-1.42 1.45,-2.15 0.77,-0.71 1.61,-1.38 2.52,-2.02 0.91,-0.61 1.79,-1.13 2.65,-1.5 0.84,-0.38 1.43,-0.55 1.77,-0.5 0.85,-0.04 1.47,0.07 1.88,0.28 0.42,0.23 0.67,0.4 0.76,0.49 0.19,0.22 0.39,0.6 0.6,1.18 0.21,0.56 0.41,1.46 0.6,2.72 0.26,1.5 0.49,3.83 0.68,6.97 0.19,3.15 0.36,6.73 0.52,10.77 0.16,4.05 0.33,8.34 0.49,12.94 0.16,4.58 0.37,9.09 0.59,13.49 0.22,4.42 0.49,8.54 0.79,12.36 0.3,3.83 0.68,7.04 1.15,9.59 0.6,2.83 1.41,5.28 2.46,7.28 0.41,0.88 0.92,1.7 1.5,2.45 0.6,0.77 1.28,1.39 2.05,1.88 0.78,0.48 1.64,0.76 2.58,0.85 0.93,0.08 1.96,-0.08 3.09,-0.51 -1.25,1.44 -2.56,2.6 -3.9,3.46 -1.35,0.87 -2.71,1.48 -4.12,1.85 -1.52,0.45 -2.92,0.56 -4.22,0.35 -1.29,-0.22 -2.46,-0.7 -3.51,-1.45 -1.02,-0.74 -1.91,-1.73 -2.61,-2.95 -0.7,-1.23 -1.2,-2.63 -1.48,-4.26 -0.27,-1.5 -0.48,-4.02 -0.68,-7.56 -0.19,-3.54 -0.37,-7.55 -0.51,-12.04 -0.14,-4.5 -0.25,-9.2 -0.31,-14.11 -0.05,-4.91 -0.1,-9.52 -0.14,-13.85 -0.03,-4.33 -0.07,-8.04 -0.09,-11.18 -0.02,-3.11 -0.06,-5.16 -0.11,-6.13 -0.07,-0.77 -0.14,-1.48 -0.21,-2.15 -0.07,-0.67 -0.12,-1.25 -0.12,-1.77 -0.3,1.38 -0.67,3.04 -1.11,4.97 -0.45,1.94 -0.91,4.03 -1.38,6.24 -0.48,2.21 -0.95,4.48 -1.41,6.85 -0.47,2.38 -0.9,4.66 -1.32,6.86 -0.72,3.57 -1.36,7.21 -1.98,10.92 -0.61,3.71 -1.11,7.22 -1.5,10.5 -0.39,3.31 -0.66,6.25 -0.82,8.83 -0.14,2.57 -0.12,4.52 0.09,5.84l0.33 1.28c0.09,0.38 0.22,0.79 0.38,1.27 0.15,0.49 0.35,0.93 0.58,1.32l-2.93 3.79c-0.51,0.33 -0.94,0.61 -1.3,0.82 -0.38,0.23 -0.74,0.39 -1.11,0.49 -1.4,0.36 -2.67,-0.1 -3.78,-1.38 -1.06,-1.15 -2.41,-3.6 -4.03,-7.36 -1.64,-3.75 -3.05,-8.52 -4.28,-14.26 -0.6,-2.85 -1.13,-5.75 -1.6,-8.69 -0.46,-2.95 -0.88,-5.78 -1.29,-8.48 -0.4,-2.7 -0.78,-5.22 -1.12,-7.57 -0.34,-2.37 -0.74,-4.37 -1.16,-6.01 -0.26,-1.24 -0.58,-2.36 -0.95,-3.33 -0.38,-0.99 -0.75,-1.88 -1.09,-2.71 -0.19,1.55 -0.31,3.62 -0.36,6.2 -0.05,2.6 -0.06,5.46 -0.04,8.58 0.02,3.13 0.06,6.41 0.14,9.85 0.07,3.43 0.14,6.74 0.21,9.92 0.06,3.18 0.12,6.12 0.16,8.81 0.04,2.69 0.08,4.86 0.1,6.47 0.02,2.61 0.12,5.54 0.32,8.83 0.19,3.27 0.18,6.42 -0.01,9.44 -0.21,3.02 -0.79,5.68 -1.77,7.98 -0.98,2.3 -2.61,3.79 -4.91,4.45z"/>
   <path id="10" class="fil3 str1" d="M184.55 390.54c-2.33,0.6 -4.32,0.71 -5.98,0.35 -1.64,-0.35 -3.04,-0.96 -4.12,-1.81 -1.11,-0.87 -1.99,-1.88 -2.66,-3.04 -0.65,-1.17 -1.11,-2.27 -1.38,-3.32 -0.48,-1.83 -0.82,-3.81 -1.05,-5.94 -0.21,-2.13 -0.34,-4.12 -0.35,-5.97 -0.03,-1.86 -0.03,-3.43 0,-4.74 0.01,-1.32 0.05,-2.13 0.09,-2.47 0.1,-1.92 0.42,-3.65 0.97,-5.2 0.54,-1.54 1.55,-2.75 3.01,-3.66 0.59,-0.27 1.2,-0.56 1.84,-0.86 0.53,-0.2 1.08,-0.38 1.66,-0.52 0.58,-0.15 1.16,-0.2 1.69,-0.14 -0.58,4.64 -0.97,8.5 -1.19,11.54 -0.23,3.07 -0.35,5.55 -0.38,7.45 -0.03,2.16 0.04,3.86 0.24,5.11 0.4,2.83 1.19,4.85 2.33,6.06 1.16,1.2 2.97,1.49 5.42,0.86 1.59,-0.41 2.96,-1.4 4.12,-2.98 1.16,-1.57 2.12,-3.45 2.85,-5.66 -0.44,-0.94 -0.79,-1.92 -1.06,-2.97 -0.51,-1.95 -0.83,-3.91 -0.98,-5.85 -0.13,-1.96 -0.19,-3.79 -0.14,-5.54 0.03,-1.75 0.15,-3.31 0.34,-4.73 0.2,-1.42 0.37,-2.55 0.54,-3.38 0.3,-1.63 0.68,-2.7 1.15,-3.18 0.47,-0.47 1.29,-0.9 2.51,-1.29 0.47,-0.18 0.88,-0.29 1.23,-0.36 0.33,-0.05 0.64,-0.08 0.9,-0.08 0.78,0 1.25,0.26 1.39,0.82 0.25,0.97 0.57,2.46 0.95,4.45 0.38,1.99 0.54,4.1 0.46,6.34 0,1.82 -0.03,3.38 -0.13,4.68 -0.09,1.29 -0.2,2.39 -0.37,3.31 -0.14,0.93 -0.34,1.7 -0.57,2.31 -0.24,0.61 -0.45,1.18 -0.65,1.68 0.59,1.8 1.13,3.23 1.6,4.28 0.46,1.07 0.91,1.84 1.34,2.34 0.41,0.51 0.86,0.83 1.31,0.94 0.46,0.11 0.93,0.11 1.41,-0.02 0.86,-0.22 1.76,-0.88 2.71,-2.01 0.96,-1.13 1.9,-2.48 2.83,-4.05 0.93,-1.58 1.82,-3.28 2.69,-5.1 0.86,-1.83 1.64,-3.55 2.35,-5.15 0.68,-1.61 1.27,-3.03 1.75,-4.22 0.48,-1.19 0.76,-1.95 0.89,-2.24 0.28,-0.65 0.6,-1.1 0.98,-1.33 0.36,-0.21 0.7,-0.27 0.99,-0.11 0.3,0.16 0.53,0.45 0.68,0.91 0.15,0.45 0.14,0.98 -0.03,1.61 -0.62,2.65 -1.51,5.5 -2.64,8.56 -1.13,3.06 -2.44,5.96 -3.93,8.69 -1.48,2.74 -3.07,5.1 -4.76,7.09 -1.71,2.01 -3.48,3.25 -5.31,3.72 -1.66,0.42 -3.1,0.2 -4.33,-0.69 -1.25,-0.9 -2.48,-2.32 -3.71,-4.29 -0.84,2.57 -2.05,4.69 -3.64,6.37 -1.58,1.69 -3.54,2.83 -5.86,3.43z"/>
   <path id="11" class="fil3 str1" d="M228.96 374.21c0.44,0.14 0.94,0.14 1.52,-0.01 0.58,-0.15 1.13,-0.42 1.65,-0.81 0.51,-0.4 0.99,-0.87 1.39,-1.44 0.41,-0.56 0.65,-1.2 0.72,-1.94 0.08,-0.74 -0.17,-1.71 -0.74,-2.9 -0.58,-1.18 -1.3,-2.43 -2.19,-3.74 -0.88,-1.29 -1.82,-2.6 -2.82,-3.91 -0.99,-1.32 -1.86,-2.53 -2.59,-3.64 -0.61,-0.81 -1.13,-1.6 -1.59,-2.33 -0.41,-0.62 -0.81,-1.21 -1.2,-1.8 -0.36,-0.59 -0.65,-0.98 -0.84,-1.2 -0.17,0.58 -0.51,1.5 -0.98,2.81 -0.48,1.29 -1.02,2.65 -1.6,4.07 -0.57,1.43 -1.13,2.74 -1.68,3.95 -0.53,1.22 -0.9,2.05 -1.11,2.49 -0.36,0.68 -0.74,1.12 -1.17,1.34 -0.43,0.21 -0.85,0.21 -1.22,0.01 -0.38,-0.19 -0.66,-0.55 -0.82,-1.06 -0.16,-0.51 -0.09,-1.19 0.2,-2.05 0.26,-0.59 0.6,-1.51 1.06,-2.78 0.46,-1.25 0.92,-2.54 1.34,-3.87 0.45,-1.31 0.86,-2.49 1.24,-3.54 0.38,-1.05 0.59,-1.67 0.61,-1.86 0,-0.53 -0.34,-1.13 -1,-1.8 -0.67,-0.67 -0.99,-1.58 -0.94,-2.69 0.03,-0.93 0.32,-2.05 0.87,-3.41 0.57,-1.35 1.33,-2.63 2.25,-3.85 0.92,-1.23 1.93,-2.22 3.04,-2.99 1.1,-0.77 2.22,-1.04 3.31,-0.8 0.93,0.28 1.71,0.66 2.34,1.11 0.65,0.45 0.98,1 1.01,1.65 -0.03,0.32 -0.11,0.78 -0.24,1.33 -0.11,0.54 -0.33,1.24 -0.64,2.06 -0.3,0.83 -0.77,1.92 -1.41,3.26 0.55,1.36 1.14,2.57 1.77,3.65 0.63,1.07 1.22,2 1.75,2.78 0.63,0.94 1.27,1.8 1.92,2.53 0.84,0.97 1.71,1.95 2.62,2.95 0.9,1 1.75,2.02 2.54,3.02 0.78,1 1.44,1.95 2.01,2.86 0.54,0.89 0.85,1.7 0.9,2.4 0.1,1.09 -0.13,2.49 -0.63,4.17 -0.51,1.7 -1.24,3.41 -2.2,5.12 -0.96,1.72 -2.16,3.28 -3.59,4.68 -1.44,1.43 -3.07,2.36 -4.9,2.83 -1.28,0.33 -2.62,0.26 -4.03,-0.23 -1.39,-0.49 -2.63,-1.15 -3.74,-2.02 -1.11,-0.85 -1.99,-1.74 -2.65,-2.69 -0.66,-0.94 -0.91,-1.72 -0.75,-2.35 0.18,-0.83 0.36,-1.49 0.57,-2 0.18,-0.51 0.51,-1.11 0.98,-1.82 0.2,-0.25 0.46,-0.55 0.76,-0.88 0.27,-0.27 0.64,-0.56 1.14,-0.88 0.5,-0.33 1.09,-0.71 1.76,-1.13 1.1,1.73 2.03,3.06 2.81,4.02 0.76,0.93 1.37,1.68 1.84,2.21 0.53,0.58 0.99,0.95 1.35,1.12z"/>
   <path id="12" class="fil3 str1" d="M277.73 340.24c0.15,-0.45 0.4,-0.76 0.79,-0.94 0.37,-0.2 0.71,-0.24 0.99,-0.12 0.3,0.12 0.52,0.4 0.66,0.81 0.14,0.42 0.12,1.04 -0.07,1.87 -0.62,2.65 -1.57,5.56 -2.87,8.77 -1.29,3.2 -2.74,6.27 -4.35,9.18 -1.58,2.93 -3.22,5.42 -4.92,7.48 -1.68,2.07 -3.22,3.28 -4.63,3.65 -2.02,0.52 -3.8,0.54 -5.35,0.11 -1.55,-0.46 -2.85,-1.17 -3.92,-2.13 -1.07,-0.97 -1.92,-2.1 -2.59,-3.39 -0.65,-1.3 -1.07,-2.55 -1.25,-3.74 -0.19,-1 -0.44,-2.81 -0.71,-5.44 -0.3,-2.63 -0.57,-5.7 -0.82,-9.19 -0.25,-3.49 -0.48,-7.24 -0.69,-11.26 -0.22,-4.01 -0.35,-7.92 -0.41,-11.68 -1.01,0.4 -2.02,0.77 -3.03,1.17 -1,0.39 -1.94,0.7 -2.79,0.92 -1.96,0.5 -3.86,0.74 -5.73,0.74 -1.86,-0.01 -3.28,-0.13 -4.25,-0.33 -0.54,-0.13 -0.85,-0.41 -0.91,-0.88 -0.06,-0.49 0.02,-0.99 0.2,-1.52 0.19,-0.55 0.46,-1.04 0.85,-1.49 0.36,-0.46 0.73,-0.74 1.1,-0.84 1.19,-0.17 2.47,-0.38 3.84,-0.63 1.37,-0.26 2.85,-0.62 4.42,-1.09 1.14,-0.36 2.24,-0.74 3.27,-1.14 1.04,-0.4 2.06,-0.82 3.05,-1.27 0.04,-3.15 0.17,-5.9 0.38,-8.26 0.19,-2.37 0.49,-4.07 0.88,-5.07 0.11,-0.36 0.46,-0.74 1.05,-1.11 0.58,-0.38 1.22,-0.71 1.93,-1 0.71,-0.26 1.42,-0.44 2.11,-0.54 0.7,-0.08 1.25,0.03 1.65,0.31 0.43,0.43 0.88,1.65 1.33,3.68 0.46,2.04 0.79,4.69 0.98,7.96 2.57,-0.66 4.88,-1.1 6.94,-1.35 2.06,-0.23 3.84,-0.37 5.34,-0.39 1.48,-0.03 2.71,0.02 3.64,0.13 0.95,0.13 1.65,0.18 2.1,0.2 0.47,0.01 0.77,0.27 0.93,0.74 0.15,0.48 0.19,1 0.12,1.57 -0.08,0.59 -0.32,1.12 -0.72,1.61 -0.39,0.5 -0.91,0.77 -1.55,0.8 -0.63,0.09 -1.35,0.15 -2.17,0.15 -0.81,0.03 -1.75,0.11 -2.87,0.26 -1.09,0.15 -2.39,0.36 -3.89,0.62 -1.51,0.25 -3.23,0.63 -5.19,1.13 -0.36,0.1 -0.78,0.22 -1.22,0.37 -0.45,0.15 -0.93,0.29 -1.41,0.41 -0.01,1.04 0.03,2.06 0.05,3.06 0.02,1.01 0,2.07 -0.09,3.21 -0.17,2.65 -0.41,5.55 -0.7,8.7 -0.28,2.74 -0.64,5.89 -1.09,9.46 -0.45,3.57 -1,7.4 -1.65,11.48 0.32,2.72 0.88,4.71 1.69,5.97 0.81,1.26 1.64,2.11 2.47,2.55 0.96,0.47 2.04,0.58 3.21,0.34 0.96,-0.11 1.99,-0.72 3.1,-1.83 1.12,-1.09 2.22,-2.47 3.3,-4.12 1.06,-1.64 2.12,-3.42 3.17,-5.31 1.05,-1.9 1.99,-3.75 2.84,-5.52 0.84,-1.78 1.58,-3.39 2.18,-4.82 0.61,-1.44 1.04,-2.44 1.28,-3.01z"/>
   <path id="13" class="fil3 str1" d="M320.57 334.48c-0.55,1.44 -1.25,3.24 -2.14,5.39 -0.88,2.15 -1.81,4.31 -2.78,6.49 -0.96,2.17 -1.95,4.18 -2.94,6.04 -0.99,1.86 -1.86,3.2 -2.63,4.05 -0.51,0.53 -1.14,1.01 -1.87,1.46 -0.73,0.44 -1.5,0.81 -2.32,1.08 -0.81,0.28 -1.59,0.43 -2.36,0.46 -0.78,0.05 -1.49,-0.05 -2.13,-0.27 -0.67,-0.29 -1.29,-0.79 -1.85,-1.49 -0.49,-0.59 -0.99,-1.4 -1.56,-2.44 -0.57,-1.02 -1.02,-2.37 -1.38,-4.04 -0.84,2.83 -1.98,5.13 -3.41,6.9 -1.43,1.77 -2.88,3.17 -4.3,4.19 -1.66,1.15 -3.41,2.01 -5.2,2.61 -0.86,0.22 -1.85,0.16 -2.99,-0.17 -1.11,-0.33 -2.18,-1.02 -3.18,-2.12 -0.99,-1.08 -1.83,-2.58 -2.53,-4.52 -0.7,-1.94 -1.06,-4.37 -1.1,-7.3 -0.1,-3.96 0.39,-7.69 1.47,-11.24 1.07,-3.53 2.44,-6.67 4.07,-9.41 1.65,-2.73 3.4,-4.94 5.25,-6.58 1.86,-1.65 3.5,-2.61 4.94,-2.84 1.74,-0.12 3.21,0.02 4.42,0.43 1.02,0.39 1.82,1.15 2.39,2.27 0.59,1.12 0.49,2.83 -0.29,5.12 0.82,-0.41 1.49,-0.72 2.05,-0.93 0.58,-0.22 1.01,-0.36 1.31,-0.44 0.37,-0.09 0.63,-0.13 0.76,-0.09 0.09,0.11 0.19,0.36 0.29,0.76 0.1,0.39 0.2,1.13 0.29,2.22 0.08,1.09 0.16,2.57 0.26,4.43 0.08,1.87 0.19,4.29 0.3,7.27 0.02,0.58 0.04,1.11 0.07,1.58 0.03,0.49 0.05,0.97 0.08,1.45 0.02,0.48 0.05,1.06 0.1,1.69 0.03,0.65 0.07,1.45 0.12,2.41 0.08,0.57 0.21,1.16 0.41,1.8 0.2,0.63 0.46,1.21 0.79,1.71 0.33,0.5 0.73,0.87 1.21,1.11 0.49,0.23 1.1,0.25 1.83,0.07 0.61,-0.16 1.31,-0.76 2.09,-1.76 0.79,-1.02 1.57,-2.27 2.35,-3.75 0.81,-1.47 1.61,-3.08 2.43,-4.83 0.82,-1.74 1.59,-3.43 2.28,-5.03 0.69,-1.61 1.32,-3.06 1.88,-4.3 0.55,-1.24 0.96,-2.17 1.2,-2.75 0.34,-0.69 0.74,-1.12 1.22,-1.35 0.46,-0.22 0.86,-0.17 1.2,0.13 0.35,0.31 0.54,0.84 0.57,1.62 0.03,0.78 -0.19,1.74 -0.67,2.91zm-25.84 10.96c0,-1.3 -0.02,-2.83 -0.02,-4.6 0.02,-1.76 -0.04,-3.45 -0.11,-5.05 -0.1,-1.61 -0.19,-2.94 -0.29,-3.98 -0.13,-1.05 -0.29,-1.51 -0.51,-1.39 -0.3,0.15 -0.61,0.31 -0.95,0.53 -0.27,0.2 -0.65,0.4 -1.12,0.59 -0.47,0.19 -0.93,0.41 -1.4,0.64 0.25,-1.1 0.32,-1.98 0.25,-2.65 -0.07,-0.67 -0.18,-1.17 -0.34,-1.53 -0.17,-0.41 -0.39,-0.7 -0.62,-0.91 -0.82,-0.37 -1.88,0.37 -3.2,2.24 -1.3,1.87 -2.56,5.02 -3.78,9.44 -0.51,1.82 -0.8,3.71 -0.9,5.66 -0.08,1.94 -0.02,3.74 0.17,5.38 0.19,1.65 0.52,3.05 0.94,4.22 0.43,1.15 0.88,1.87 1.33,2.14 0.85,0.5 1.7,0.63 2.56,0.38 0.83,-0.25 1.64,-0.73 2.42,-1.41 0.76,-0.68 1.5,-1.51 2.2,-2.47 0.69,-0.96 1.29,-1.94 1.79,-2.92 0.5,-0.98 0.89,-1.84 1.17,-2.64 0.3,-0.79 0.42,-1.35 0.41,-1.67z"/>
   <path id="14" class="fil3 str1" d="M369.57 359.53c-3.05,0.78 -6.01,0.76 -8.87,-0.07 -2.86,-0.83 -5.48,-2.3 -7.9,-4.43 -2.4,-2.12 -4.49,-4.79 -6.27,-8.02 -1.76,-3.22 -3.11,-6.81 -3.99,-10.76 -0.82,-3.69 -1.37,-7.79 -1.64,-12.28 -0.27,-4.5 -0.2,-9.09 0.2,-13.81 0.43,-4.7 1.2,-9.34 2.35,-13.91 1.14,-4.55 2.72,-8.73 4.74,-12.5 2.03,-3.8 4.51,-7.06 7.46,-9.8 2.95,-2.75 6.46,-4.65 10.57,-5.71 2.5,-0.64 4.76,-0.68 6.76,-0.12 2,0.55 3.75,1.52 5.26,2.9 1.48,1.37 2.71,3.04 3.67,5.02 0.96,1.97 1.69,4.03 2.18,6.19 0.41,2.04 0.62,4.07 0.65,6.1 0.02,2.01 -0.19,3.87 -0.61,5.58 -0.45,1.7 -1.16,3.17 -2.12,4.35 -0.96,1.2 -2.21,1.99 -3.73,2.38 -0.75,0.13 -1.52,0.07 -2.3,-0.19 -0.7,-0.2 -1.47,-0.59 -2.3,-1.16 -0.84,-0.57 -1.7,-1.48 -2.63,-2.75 1.49,-1.1 2.48,-2.61 2.99,-4.54 0.52,-1.92 0.79,-3.86 0.8,-5.83 0.01,-2.21 -0.21,-4.64 -0.7,-7.25 -0.52,-2.54 -1.51,-4.24 -2.97,-5.11 -1.46,-0.86 -2.92,-1.1 -4.39,-0.72 -2.88,0.74 -5.52,3.02 -7.92,6.83 -2.41,3.82 -4.33,8.62 -5.73,14.44 -1.41,5.81 -2.17,12.35 -2.29,19.61 -0.11,7.27 0.64,14.74 2.3,22.39 0.76,3.46 1.74,6.32 2.93,8.55 1.19,2.23 2.53,3.97 3.99,5.23 1.46,1.26 2.94,2.05 4.46,2.37 1.52,0.33 2.96,0.31 4.3,-0.04 2.15,-0.55 4.05,-1.52 5.71,-2.93 1.66,-1.4 3.08,-2.99 4.31,-4.72 1.22,-1.75 2.2,-3.49 2.96,-5.22 0.76,-1.73 1.31,-3.22 1.64,-4.48 0.21,-0.9 0.54,-1.51 0.99,-1.82 0.44,-0.32 0.88,-0.38 1.33,-0.19 0.42,0.17 0.79,0.54 1.06,1.09 0.26,0.55 0.33,1.27 0.16,2.16 -0.5,2.34 -1.24,4.74 -2.2,7.22 -0.97,2.46 -2.16,4.77 -3.59,6.93 -1.43,2.17 -3.11,4.06 -5.06,5.66 -1.92,1.61 -4.12,2.73 -6.56,3.36z"/>
   <path id="15" class="fil3 str1" d="M439.14 301.9c0.31,-0.6 0.68,-0.98 1.13,-1.13 0.46,-0.15 0.85,-0.11 1.2,0.09 0.34,0.2 0.57,0.59 0.68,1.15 0.11,0.56 0.02,1.23 -0.31,2.03 -0.75,1.88 -1.67,3.87 -2.76,5.94 -1.1,2.08 -2.32,4.14 -3.65,6.18 -1.33,2.03 -2.71,3.99 -4.12,5.85 -1.41,1.87 -2.81,3.47 -4.24,4.82 -1.56,1.5 -2.98,2.42 -4.23,2.74 -1.25,0.32 -2.7,-0.16 -4.32,-1.43 -1.46,-1.12 -2.4,-2.5 -2.79,-4.12 -0.38,-1.64 -0.55,-3.77 -0.5,-6.38 0.03,-1.64 0.15,-3.61 0.38,-5.92 0.22,-2.3 0.31,-4.49 0.26,-6.57 -0.05,-2.07 -0.34,-3.78 -0.86,-5.1 -0.55,-1.33 -1.52,-1.81 -2.93,-1.45 -0.97,0.25 -1.95,0.85 -2.91,1.82 -0.95,0.96 -1.87,2.13 -2.72,3.49 -0.85,1.35 -1.62,2.85 -2.32,4.47 -0.69,1.61 -1.28,3.15 -1.75,4.64 0.14,2.52 0.25,4.99 0.37,7.45 0.07,2.07 0.17,4.29 0.31,6.71 0.12,2.41 0.2,4.56 0.24,6.45 -0.3,0.4 -0.63,0.71 -1.02,0.95 -0.41,0.22 -0.79,0.38 -1.16,0.48 -0.43,0.11 -0.86,0.19 -1.31,0.24 -0.52,0.01 -1.02,-0.06 -1.51,-0.2 -0.43,-0.14 -0.88,-0.37 -1.35,-0.67 -0.47,-0.31 -0.89,-0.77 -1.25,-1.4 -0.15,-12.01 -0.32,-21.67 -0.5,-28.92 -0.17,-7.26 -0.29,-12.81 -0.36,-16.63 -0.13,-4.52 -0.22,-7.67 -0.27,-9.41 -0.13,-1.22 -0.26,-2.39 -0.42,-3.52 -0.13,-1.02 -0.32,-2.03 -0.59,-3.07 -0.27,-1.05 -0.6,-1.96 -1.01,-2.77 0.4,-0.44 0.89,-0.82 1.42,-1.15 0.53,-0.34 1.05,-0.64 1.57,-0.89 0.63,-0.37 1.26,-0.7 1.9,-0.99 0.65,-0.29 1.24,-0.51 1.79,-0.65 0.48,-0.12 0.97,-0.2 1.41,-0.23 0.45,-0.01 0.78,0.12 0.99,0.4 0.43,0.2 0.76,0.77 0.97,1.7 0.2,0.92 0.37,1.89 0.49,2.9 0.07,1.23 0.11,2.56 0.16,3.98 -0.01,5.28 -0.21,10.47 -0.6,15.55 -0.38,5.08 -0.56,10.47 -0.54,16.13 0.48,-1.43 1.1,-2.92 1.88,-4.49 0.77,-1.57 1.67,-3.05 2.71,-4.46 1.04,-1.42 2.2,-2.65 3.49,-3.73 1.28,-1.08 2.75,-1.85 4.41,-2.27 0.85,-0.22 1.7,-0.29 2.54,-0.21 0.83,0.07 1.63,0.37 2.37,0.86 0.75,0.49 1.4,1.23 1.99,2.23 0.58,0.98 1.04,2.28 1.39,3.9 0.25,0.97 0.4,2.01 0.47,3.1 0.04,1.09 0.04,2.32 0.01,3.67 -0.04,1.34 -0.17,2.86 -0.36,4.53 -0.18,1.68 -0.41,3.63 -0.69,5.85 -0.19,1.56 -0.3,2.85 -0.36,3.92 -0.05,1.05 0.23,1.89 0.85,2.52 0.79,0.83 1.93,0.79 3.43,-0.15 1.49,-0.95 3.51,-3.14 6.08,-6.61 0.58,-0.8 1.19,-1.77 1.88,-2.93 0.69,-1.15 1.32,-2.32 1.94,-3.48 0.62,-1.17 1.17,-2.27 1.69,-3.32 0.51,-1.05 0.95,-1.88 1.31,-2.49z"/>
   <path id="16" class="fil3 str1" d="M477.4 293.22c-1.14,3.16 -2.55,6.31 -4.21,9.45 -1.68,3.13 -3.55,6.04 -5.64,8.69 -2.09,2.66 -4.34,4.94 -6.75,6.87 -2.39,1.93 -4.88,3.22 -7.44,3.88 -1.35,0.35 -2.89,0.4 -4.62,0.16 -1.72,-0.25 -3.4,-0.87 -5.03,-1.88 -1.63,-1.02 -3.11,-2.51 -4.41,-4.44 -1.32,-1.95 -2.23,-4.49 -2.7,-7.62 -0.41,-2.58 -0.31,-5.41 0.29,-8.54 0.6,-3.12 1.57,-6.09 2.9,-8.92 1.32,-2.82 2.99,-5.3 5.02,-7.46 2.02,-2.14 4.25,-3.53 6.69,-4.16 2.34,-0.6 4.16,-0.45 5.51,0.44 1.33,0.89 2.15,2.21 2.49,3.96 0.3,1.95 0.21,3.82 -0.27,5.65 -0.49,1.81 -1.16,3.52 -2.05,5.12 -0.89,1.6 -1.89,3.09 -3,4.49 -1.12,1.39 -2.17,2.68 -3.17,3.84 -1.11,1.27 -2.17,2.48 -3.18,3.61 -1.01,1.14 -1.89,2.17 -2.63,3.08 0.45,1.5 1.05,2.73 1.81,3.64 0.76,0.9 1.59,1.59 2.49,2.04 0.89,0.46 1.85,0.7 2.88,0.73 1.01,0.04 2.01,-0.08 2.98,-0.33 2.09,-0.54 4.09,-1.75 6.01,-3.65 1.93,-1.9 3.73,-4.05 5.43,-6.47 1.69,-2.43 3.21,-4.89 4.56,-7.39 1.34,-2.5 2.44,-4.65 3.28,-6.42 0.3,-0.61 0.66,-1 1.11,-1.22 0.43,-0.21 0.8,-0.24 1.14,-0.09 0.34,0.13 0.56,0.47 0.69,0.99 0.14,0.51 0.09,1.16 -0.18,1.95zm-27.12 -8.08c-0.74,0.19 -1.5,0.77 -2.33,1.77 -0.81,1 -1.55,2.3 -2.16,3.93 -0.63,1.63 -1.11,3.56 -1.46,5.77 -0.35,2.21 -0.4,4.64 -0.16,7.32 0.59,-0.74 1.24,-1.51 1.94,-2.3 0.71,-0.81 1.41,-1.65 2.1,-2.55 2.09,-2.69 3.48,-4.95 4.13,-6.74 0.63,-1.8 0.89,-3.27 0.72,-4.39 -0.18,-1.19 -0.52,-2 -1.01,-2.43 -0.51,-0.43 -1.1,-0.55 -1.77,-0.38z"/>
   <path id="17" class="fil3 str1" d="M475.08 304c-0.84,-0.5 -1.48,-1.04 -1.93,-1.61 -0.43,-0.57 -0.8,-1.15 -1.08,-1.72 -0.3,-0.65 -0.47,-1.32 -0.52,-2.02 0.03,-0.93 0.19,-1.82 0.5,-2.68 0.25,-0.79 0.65,-1.63 1.2,-2.52 0.56,-0.88 1.36,-1.79 2.42,-2.73 0.3,-2.16 0.49,-4.39 0.57,-6.74 0.08,-2.34 0.14,-4.45 0.18,-6.35 0.02,-2.23 -0.03,-4.43 -0.14,-6.61 0.19,-5.59 -0.1,-10.04 -0.88,-13.33 -0.78,-3.29 -1.4,-5.43 -1.85,-6.42 -0.17,-0.4 -0.35,-0.82 -0.52,-1.23 -0.22,-0.35 -0.42,-0.73 -0.63,-1.16 -0.22,-0.43 -0.44,-0.85 -0.67,-1.24 0.57,-0.55 1.09,-1 1.54,-1.39 0.47,-0.37 0.86,-0.67 1.19,-0.89 0.39,-0.3 0.75,-0.51 1.11,-0.67 1.32,-0.67 2.6,-1.19 3.85,-1.54 1.26,-0.36 2.01,-0.3 2.24,0.16 0.14,0.29 0.36,0.82 0.66,1.6 0.3,0.77 0.6,1.73 0.9,2.89 0.3,1.17 0.54,2.5 0.72,3.97 0.18,1.49 0.25,3.09 0.17,4.8 -0.08,1.52 -0.15,3.62 -0.24,6.32 -0.12,2.32 -0.26,5.41 -0.46,9.26 -0.17,3.87 -0.43,8.82 -0.77,14.83 1.67,-1.08 3.54,-2.18 5.61,-3.3 2.05,-1.11 4.18,-2.16 6.38,-3.11 2.21,-0.95 4.42,-1.82 6.67,-2.6 2.24,-0.77 4.37,-1.34 6.35,-1.74 0.38,-0.09 0.67,0.01 0.92,0.32 0.24,0.29 0.33,0.64 0.27,1.05 -0.07,0.4 -0.3,0.84 -0.75,1.31 -0.43,0.47 -1.13,0.87 -2.09,1.17 -1.19,0.44 -2.5,0.92 -3.93,1.46 -1.43,0.54 -2.88,1.13 -4.37,1.81 -1.5,0.67 -2.95,1.41 -4.38,2.2 -1.43,0.8 -2.73,1.64 -3.94,2.53 -0.95,0.65 -1.89,1.27 -2.83,1.9 -0.78,0.53 -1.6,1.11 -2.44,1.76 -0.85,0.64 -1.54,1.2 -2.07,1.65l-0.38 7.24c4.19,1.6 7.59,3.46 10.19,5.6 2.6,2.13 4.62,4.18 6.05,6.17 1.69,2.3 2.92,4.66 3.67,7.08 0.69,2.68 0.98,5.49 0.9,8.42 -0.1,2.93 -0.48,5.8 -1.15,8.61 -0.68,2.81 -1.62,5.52 -2.8,8.12 -1.21,2.58 -2.57,4.88 -4.1,6.91 -1.53,2.03 -3.19,3.69 -4.97,5 -1.79,1.31 -3.59,2.09 -5.41,2.36 -1.31,0.21 -2.5,0.08 -3.52,-0.41 -1.05,-0.48 -1.91,-1.19 -2.61,-2.17 -0.72,-0.95 -1.26,-2.08 -1.66,-3.38 -0.4,-1.3 -0.61,-2.63 -0.64,-3.99 -0.08,-1.34 -0.18,-3.87 -0.28,-7.55 -0.08,-3.12 -0.15,-7.65 -0.18,-13.61 -0.03,-5.96 -0.06,-13.9 -0.07,-23.79zm6.53 2.91c-0.07,3.27 -0.1,6.28 -0.08,9.02 0.02,2.73 0.07,5.14 0.15,7.2 0.03,2.4 0.12,4.56 0.3,6.47 0.05,2.48 0.06,4.91 0.06,7.33 0,2.4 0.07,4.56 0.21,6.44 0.12,1.91 0.35,3.38 0.7,4.48 0.35,1.08 0.88,1.52 1.61,1.33 1.82,-0.33 3.49,-1.49 5.03,-3.49 1.54,-1.99 2.81,-4.35 3.81,-7.04 0.99,-2.71 1.67,-5.53 2.03,-8.46 0.35,-2.92 0.24,-5.52 -0.34,-7.77 -0.65,-2.51 -1.68,-4.89 -3.11,-7.13 -0.88,-1.14 -1.84,-2.23 -2.89,-3.26 -0.95,-0.88 -2.05,-1.78 -3.29,-2.73 -1.26,-0.94 -2.66,-1.75 -4.19,-2.39z"/>
  </g>
 </g>
</svg>
