<?xml version="1.0" standalone="no"?>
<!DOCTYPE svg PUBLIC "-//W3C//DTD SVG 20010904//EN"
 "http://www.w3.org/TR/2001/REC-SVG-20010904/DTD/svg10.dtd">
<svg version="1.0" xmlns="http://www.w3.org/2000/svg"
 width="10px" height="10ox" viewBox="0 0 1024.000000 768.000000"
 preserveAspectRatio="xMidYMid meet">

<g transform="translate(0.000000,768.000000) scale(0.100000,-0.100000)"
fill="#7b3c15" stroke="none">
<path d="M6678 7555 c-48 -26 -118 -105 -118 -134 0 -10 -4 -21 -9 -26 -5 -6
-19 -57 -31 -115 -36 -178 -59 -247 -100 -292 l-37 -42 -59 19 c-83 26 -254
32 -327 10 -53 -15 -66 -27 -226 -193 -189 -197 -350 -380 -519 -588 -63 -76
-121 -148 -130 -159 -9 -11 -52 -65 -96 -120 -44 -55 -242 -300 -441 -545
-587 -722 -804 -1015 -971 -1310 -26 -47 -69 -117 -95 -156 -73 -113 -100
-203 -106 -359 -6 -152 13 -251 73 -393 l36 -83 -189 -192 c-104 -106 -213
-226 -242 -267 -90 -128 -158 -286 -166 -385 -2 -25 -7 -54 -10 -64 -3 -11 -1
-57 5 -102 18 -148 88 -257 193 -303 144 -63 279 -33 410 93 106 102 199 267
255 456 12 39 41 137 66 218 24 82 47 151 51 155 3 3 14 1 23 -6 98 -68 242
-87 364 -46 65 21 157 83 202 135 34 40 113 157 295 436 73 113 560 827 714
1047 53 76 97 145 97 153 0 9 -9 13 -26 11 -23 -3 -28 4 -57 72 -18 41 -33 68
-35 59 -1 -8 11 -45 28 -82 16 -36 30 -73 30 -81 0 -16 -46 -74 -52 -66 -2 3
-18 36 -36 74 -18 37 -35 66 -38 64 -2 -3 11 -38 31 -79 19 -40 35 -78 35 -84
0 -6 -13 -26 -29 -45 l-28 -34 -13 39 c-19 58 -58 143 -70 150 -15 9 -13 5 24
-76 57 -126 58 -122 -25 -243 -40 -58 -76 -103 -79 -101 -4 2 -17 30 -28 62
-22 59 -60 128 -67 122 -2 -2 12 -37 32 -77 37 -77 52 -145 35 -156 -6 -3 -18
16 -28 46 -19 60 -52 118 -65 118 -5 0 4 -24 20 -52 15 -29 34 -74 41 -100 12
-47 12 -49 -21 -93 -73 -99 -62 -93 -88 -50 -29 50 -39 37 -10 -14 23 -42 18
-72 -7 -36 -31 46 -43 60 -48 55 -2 -3 8 -26 24 -52 25 -40 27 -48 15 -64 -12
-18 -14 -17 -32 14 -27 49 -63 98 -63 85 0 -6 16 -37 35 -69 20 -32 34 -65 33
-73 -6 -27 -25 -22 -39 11 -16 40 -52 98 -61 98 -3 0 9 -30 28 -67 35 -68 41
-118 15 -118 -8 0 -19 20 -26 48 -13 51 -65 118 -65 84 0 -9 4 -17 9 -17 5 0
18 -16 30 -36 28 -46 29 -126 2 -160 l-19 -24 5 60 c6 65 -12 129 -47 171 -33
37 -33 15 -1 -37 17 -27 33 -69 36 -94 5 -41 3 -38 -30 40 -19 46 -40 89 -46
95 -15 13 -8 -11 25 -91 28 -67 44 -168 29 -177 -6 -4 -16 19 -23 51 -13 60
-61 166 -81 178 -6 4 -10 3 -7 -2 2 -5 18 -38 35 -72 56 -113 66 -257 17 -238
-9 3 -14 -1 -14 -13 0 -29 -11 -52 -21 -45 -5 3 -9 26 -9 52 0 26 -5 54 -10
62 -7 10 -8 -12 -4 -68 5 -60 3 -90 -6 -107 -21 -40 -30 -29 -30 38 0 69 -15
172 -30 213 -18 47 -21 19 -4 -45 18 -72 22 -244 6 -281 -9 -20 -11 -5 -12 75
-1 139 -33 266 -96 373 -39 67 -39 43 0 -34 60 -121 81 -204 81 -329 -1 -102
-14 -177 -35 -190 -4 -2 -5 44 -2 104 12 252 -77 478 -263 667 -212 215 -460
309 -648 245 -46 -16 -57 -17 -57 -6 0 31 109 85 171 85 21 0 41 5 44 10 9 15
-63 11 -110 -5 -51 -19 -59 -19 -51 1 25 66 330 488 557 771 63 78 285 354
494 615 209 260 400 498 425 528 26 30 102 123 171 205 241 292 567 636 628
662 55 24 195 28 271 9 186 -47 346 -189 424 -374 31 -73 33 -94 9 -85 -14 6
-13 1 5 -29 30 -48 62 -144 62 -182 -1 -27 -4 -22 -28 34 -32 73 -53 110 -64
110 -4 0 8 -30 27 -68 39 -75 67 -214 48 -233 -8 -8 -16 6 -28 48 -18 64 -76
174 -82 156 -3 -7 7 -29 21 -50 29 -44 71 -195 61 -221 -5 -14 -7 -14 -15 -2
-6 8 -10 27 -10 41 0 31 -62 151 -81 158 -9 3 -7 -6 6 -25 45 -69 59 -109 60
-173 0 -80 -19 -93 -34 -22 -11 50 -48 121 -64 121 -4 0 4 -19 18 -43 13 -24
28 -66 31 -93 l6 -49 -37 60 c-40 66 -55 85 -55 69 0 -5 12 -27 26 -48 35 -51
57 -123 44 -145 -9 -17 -7 -20 -54 94 -8 19 -20 35 -26 35 -6 0 1 -22 15 -49
27 -54 44 -131 28 -131 -6 0 -15 10 -21 23 -10 19 -11 17 -6 -15 3 -20 2 -44
-4 -54 -8 -14 -14 -8 -38 37 -16 29 -35 55 -42 57 -8 2 -3 -12 12 -35 29 -44
43 -97 28 -107 -6 -3 -13 7 -17 23 -3 16 -16 37 -27 47 -12 11 -19 15 -16 9 2
-5 12 -27 22 -48 25 -57 16 -82 -13 -34 -13 20 -27 37 -32 37 -13 0 -11 -8 11
-38 22 -30 30 -73 15 -78 -6 -2 -19 12 -29 31 -24 44 -34 37 -12 -9 28 -59 16
-95 -17 -49 -19 28 -19 28 -12 3 4 -14 8 -34 9 -45 1 -24 -392 -578 -405 -569
-5 3 -9 -6 -9 -19 0 -40 -25 -39 -44 1 -22 47 -59 102 -68 102 -4 0 10 -33 32
-73 22 -39 40 -79 40 -87 0 -8 -11 -28 -25 -45 -29 -34 -22 -39 -81 58 -20 32
-38 56 -41 53 -5 -4 8 -29 52 -101 29 -48 31 -72 6 -104 l-18 -23 -36 64 c-20
36 -43 71 -52 78 -21 17 -19 4 4 -28 10 -15 31 -51 46 -81 l27 -54 -21 -28
c-19 -26 -20 -59 -1 -59 7 0 154 201 210 287 8 12 132 185 275 384 143 199
277 386 297 416 47 68 153 215 195 271 32 42 33 47 33 136 0 164 -35 315 -102
448 -28 54 -29 58 -13 87 25 49 73 99 158 163 43 33 81 66 83 73 3 7 21 21 40
31 25 14 45 39 75 98 39 74 41 84 41 165 0 105 -23 174 -82 243 -82 95 -219
126 -322 73z m220 -44 c59 -30 109 -95 132 -169 11 -35 20 -76 20 -91 0 -24
-5 -21 -59 39 -34 37 -63 61 -67 56 -5 -5 -4 -11 3 -13 25 -9 113 -131 113
-157 0 -37 -12 -32 -49 20 -18 25 -34 44 -37 41 -3 -3 11 -27 30 -55 35 -48
46 -82 26 -82 -5 0 -16 13 -24 28 -16 30 -46 61 -46 46 0 -5 14 -29 30 -53 23
-34 27 -47 19 -62 -5 -11 -11 -19 -13 -19 -2 0 -16 19 -31 42 -16 24 -30 37
-33 30 -2 -7 8 -26 22 -43 14 -17 26 -36 26 -43 0 -29 -16 -25 -46 11 -18 21
-35 35 -39 32 -3 -4 5 -18 19 -32 22 -22 36 -67 21 -67 -3 0 -21 17 -40 38
l-36 37 26 -39 c27 -42 31 -56 15 -56 -6 0 -20 16 -31 35 -12 19 -25 35 -31
35 -5 0 0 -16 12 -35 12 -19 20 -43 18 -52 -3 -14 -11 -7 -32 25 -15 24 -30
41 -33 38 -3 -3 4 -20 16 -39 42 -68 12 -82 -31 -14 -15 23 -28 35 -28 27 0
-8 9 -28 20 -45 32 -48 23 -52 -16 -6 -43 49 -58 48 -20 -2 26 -34 34 -67 17
-67 -5 0 -20 15 -32 33 -24 34 -41 49 -47 42 -3 -2 7 -18 22 -35 42 -51 31
-68 -13 -19 -21 24 -42 41 -46 37 -4 -4 9 -24 29 -44 20 -20 36 -45 36 -56 0
-25 -19 -23 -30 5 -13 32 -57 83 -65 75 -4 -4 7 -24 24 -45 17 -21 31 -46 31
-57 0 -15 -4 -14 -22 10 -25 33 -49 53 -62 54 -4 0 8 -18 28 -40 61 -68 40
-67 -31 2 -38 35 -83 73 -100 83 -18 11 -33 23 -33 27 0 5 14 27 30 50 35 48
59 126 91 288 31 161 85 238 187 271 39 12 115 3 160 -20z m-2904 -3501 c213
-71 418 -260 526 -485 94 -196 100 -419 16 -610 -32 -71 -51 -83 -42 -24 6 37
37 140 62 203 5 12 4 17 -3 13 -24 -15 -88 -235 -78 -268 5 -14 -7 -32 -45
-69 -88 -86 -223 -139 -318 -126 -73 10 -135 34 -173 66 l-34 30 40 -5 40 -6
-27 16 c-29 16 -38 45 -15 45 7 0 18 -5 25 -12 8 -8 12 -8 12 -1 0 6 -7 16
-15 23 -19 16 -19 40 -1 40 9 0 12 7 9 20 -7 28 162 340 185 340 3 0 2 -25 -2
-55 -3 -30 -4 -55 -1 -55 6 0 22 64 30 123 6 42 4 48 -11 45 -13 -2 -20 8 -29
47 -6 28 -19 64 -28 81 -17 33 -76 88 -85 80 -2 -3 9 -17 26 -31 40 -34 72
-102 71 -151 l-1 -39 -9 39 c-10 44 -46 106 -60 106 -13 0 -11 -11 7 -31 18
-20 43 -84 44 -111 0 -29 -18 -20 -36 17 -9 19 -20 35 -25 35 -4 0 1 -19 11
-42 20 -44 26 -88 13 -88 -5 0 -16 19 -25 42 -10 23 -20 39 -23 36 -3 -3 2
-21 10 -41 8 -20 15 -51 14 -69 l-1 -33 -15 38 c-9 20 -20 37 -25 37 -6 0 -7
-8 -2 -17 12 -29 17 -93 6 -93 -5 0 -12 9 -15 20 -3 11 -10 20 -16 20 -8 0 -9
-6 -1 -19 5 -11 10 -35 10 -53 l-1 -33 -15 28 c-19 35 -28 30 -14 -7 5 -15 10
-37 10 -48 0 -20 -1 -20 -18 -5 -26 24 -36 21 -18 -5 9 -12 16 -30 16 -40 0
-26 -26 -22 -35 5 -4 13 -8 17 -11 10 -3 -7 1 -27 10 -44 11 -23 13 -36 5 -50
-13 -25 -23 -24 -38 4 -11 21 -11 20 -6 -7 3 -15 8 -40 11 -55 3 -15 -1 -34
-10 -46 -14 -20 -15 -19 -26 10 -7 17 -14 25 -17 18 -2 -6 2 -26 10 -45 11
-26 11 -40 2 -67 l-11 -33 -18 23 c-14 20 -16 21 -11 4 18 -58 15 -80 -34
-241 -63 -202 -66 -210 -75 -158 -4 21 -14 50 -22 64 l-15 25 6 -25 c20 -76
24 -153 9 -181 -8 -16 -16 -29 -19 -29 -2 0 -9 25 -15 55 -6 30 -16 58 -22 61
-7 4 -8 -2 -3 -17 15 -46 22 -144 12 -163 -12 -24 -21 -10 -32 48 -7 41 -53
141 -61 134 -2 -3 8 -32 23 -64 33 -71 44 -182 20 -202 -12 -10 -15 -1 -20 63
-5 51 -15 91 -33 126 -14 28 -28 49 -30 46 -3 -3 2 -19 11 -37 18 -35 14 -63
-8 -54 -7 2 -18 17 -24 32 -10 26 -11 26 -10 -11 0 -21 4 -40 9 -43 4 -3 8
-17 8 -30 0 -40 -23 -23 -39 29 -8 26 -19 47 -24 47 -5 0 -6 -8 -2 -18 3 -9 9
-30 11 -47 5 -29 5 -29 -10 -11 -9 11 -16 26 -16 33 0 7 -5 13 -11 13 -7 0 -8
-7 -4 -17 15 -38 22 -129 12 -163 -15 -55 -55 -128 -76 -140 -29 -15 -122 -12
-171 5 -56 20 -115 68 -145 119 -30 52 -58 170 -50 213 8 44 51 93 81 93 13 0
24 5 24 10 0 16 -33 11 -67 -10 l-33 -20 0 23 c0 34 59 215 73 224 6 4 26 6
44 4 36 -3 46 16 11 21 -12 2 -23 9 -26 17 -3 10 2 13 22 9 28 -6 36 9 11 18
-8 4 -15 10 -15 14 0 26 128 173 308 355 261 263 345 373 402 528 18 48 28 61
58 75 49 22 49 22 32 33 -13 8 -13 10 0 19 28 18 81 22 126 10 57 -16 138
-102 155 -163 18 -68 28 -89 40 -81 16 9 6 81 -17 129 -16 35 -71 96 -118 134
-36 28 -105 41 -152 30 -54 -14 -115 -66 -136 -116 -56 -130 -72 -163 -79
-163 -5 0 -9 6 -9 14 0 8 -4 17 -9 20 -5 4 -9 -15 -8 -41 2 -37 -2 -48 -13
-48 -8 0 -16 10 -18 23 -2 12 -8 22 -14 22 -6 0 -8 -9 -4 -22 23 -82 14 -106
-17 -45 -15 27 -17 28 -13 7 2 -14 8 -36 12 -49 12 -39 -15 -15 -37 33 -12 27
-19 34 -19 21 0 -12 9 -38 20 -60 20 -39 20 -40 1 -59 -19 -18 -20 -18 -46 35
-15 29 -41 105 -57 169 -26 103 -29 125 -23 209 19 261 139 445 322 491 53 13
156 4 227 -20z m-456 -1963 c3 -23 0 -28 -15 -25 -11 2 -19 14 -21 31 -3 23 0
28 15 25 11 -2 19 -14 21 -31z m-98 -48 c0 -5 -4 -9 -10 -9 -5 0 -10 7 -10 16
0 8 5 12 10 9 6 -3 10 -10 10 -16z m40 -5 c0 -8 -4 -12 -10 -9 -5 3 -10 10
-10 16 0 5 5 9 10 9 6 0 10 -7 10 -16z m60 -4 c0 -5 -7 -10 -15 -10 -8 0 -15
5 -15 10 0 6 7 10 15 10 8 0 15 -4 15 -10z m-106 -45 c-5 -21 -3 -25 15 -25
12 0 21 -4 21 -9 0 -5 -13 -9 -29 -9 -26 1 -29 4 -26 27 2 14 4 29 4 34 1 4 6
7 11 7 6 0 8 -11 4 -25z m46 5 c0 -5 -4 -10 -10 -10 -5 0 -10 5 -10 10 0 6 5
10 10 10 6 0 10 -4 10 -10z m48 -1 c-2 -6 -8 -10 -13 -10 -5 0 -11 4 -13 10
-2 6 4 11 13 11 9 0 15 -5 13 -11z m-14 -50 c-3 -5 -10 -7 -15 -3 -5 3 -7 10
-3 15 3 5 10 7 15 3 5 -3 7 -10 3 -15z"/>
<path d="M6700 7424 c-6 -15 -8 -29 -6 -32 8 -8 36 19 36 34 0 26 -20 25 -30
-2z"/>
<path d="M6940 7415 c0 -5 18 -30 40 -55 21 -25 39 -40 40 -34 0 6 -18 31 -40
55 -21 24 -39 40 -40 34z"/>
<path d="M6652 7338 c-6 -6 -12 -16 -12 -22 0 -6 5 -5 12 2 20 20 28 14 28
-25 1 -31 2 -35 11 -20 25 42 -7 97 -39 65z"/>
<path d="M6611 7269 c-13 -39 -14 -49 -2 -49 9 0 25 69 18 77 -3 2 -10 -10
-16 -28z"/>
<path d="M6650 7230 c-14 -10 -21 -22 -17 -26 4 -4 17 2 29 14 28 28 20 36
-12 12z"/>
<path d="M3695 3928 c-107 -59 -189 -226 -201 -411 -5 -69 -3 -110 4 -123 9
-15 11 7 12 96 0 130 8 165 57 267 55 113 149 184 220 167 14 -4 23 -2 23 5 0
14 -89 14 -115 -1z"/>
<path d="M3870 3910 c0 -5 10 -10 23 -10 18 0 19 2 7 10 -19 13 -30 13 -30 0z"/>
<path d="M4100 3876 c0 -4 24 -23 122 -95 12 -9 18 -10 18 -2 0 6 -27 31 -61
56 -55 40 -79 53 -79 41z"/>
<path d="M4256 3748 c15 -24 77 -88 82 -84 6 7 -68 96 -80 96 -5 0 -6 -6 -2
-12z"/>
<path d="M3695 3380 c3 -5 8 -10 11 -10 2 0 4 5 4 10 0 6 -5 10 -11 10 -5 0
-7 -4 -4 -10z"/>
<path d="M4257 3300 c-3 -14 -11 -68 -17 -120 -6 -52 -13 -111 -16 -130 -3
-23 -1 -30 4 -20 12 19 46 265 39 282 -2 7 -7 2 -10 -12z"/>
<path d="M4205 3223 c-3 -38 -8 -85 -11 -105 -3 -22 -2 -38 4 -38 5 0 13 41
17 91 4 51 9 98 12 105 3 8 1 14 -5 14 -6 0 -13 -30 -17 -67z"/>
<path d="M4297 3223 c-13 -44 -39 -232 -35 -254 2 -13 14 41 27 119 12 79 20
146 18 149 -3 2 -7 -4 -10 -14z"/>
<path d="M4360 3216 c-5 -14 -21 -85 -35 -158 -14 -73 -28 -141 -31 -150 -3
-10 -1 -18 4 -18 4 0 24 79 44 175 19 96 33 175 31 175 -2 0 -8 -11 -13 -24z"/>
<path d="M4419 3214 c-21 -55 -78 -264 -85 -311 -10 -75 6 -44 26 49 10 45 32
127 50 181 17 55 29 101 26 104 -3 3 -10 -7 -17 -23z"/>
<path d="M4496 3153 c-17 -52 -76 -300 -76 -321 0 -7 5 -10 10 -7 6 3 10 17
10 30 0 13 18 94 40 181 39 157 46 209 16 117z"/>
<path d="M4437 3097 c-26 -80 -57 -212 -57 -244 0 -36 13 1 32 94 11 54 31
126 44 160 12 34 19 65 15 67 -4 3 -20 -32 -34 -77z"/>
<path d="M3631 3070 c-30 -39 -107 -122 -172 -185 -159 -153 -161 -168 -3 -29
75 66 238 258 232 275 -2 5 -28 -22 -57 -61z"/>
<path d="M3560 2860 c0 -5 5 -10 10 -10 6 0 10 5 10 10 0 6 -4 10 -10 10 -5 0
-10 -4 -10 -10z"/>
<path d="M3519 2790 c13 -11 28 -20 35 -20 6 1 0 10 -13 20 -13 11 -28 20 -35
20 -6 -1 0 -10 13 -20z"/>
<path d="M3490 2774 c0 -11 34 -33 50 -33 10 0 8 6 -9 19 -23 20 -41 26 -41
14z"/>
<path d="M3466 2732 c-2 -4 11 -12 30 -18 37 -12 46 -1 15 16 -23 12 -38 13
-45 2z"/>
<path d="M3266 2711 c-4 -7 -5 -15 -2 -18 9 -9 19 4 14 18 -4 11 -6 11 -12 0z"/>
<path d="M3750 2521 c0 -5 5 -13 10 -16 6 -3 10 -2 10 4 0 5 -4 13 -10 16 -5
3 -10 2 -10 -4z"/>
<path d="M3216 2472 c5 -5 29 -17 54 -26 25 -10 64 -36 88 -59 23 -23 42 -36
42 -30 0 19 -69 81 -114 103 -42 20 -89 28 -70 12z"/>
<path d="M3265 2403 c28 -14 67 -41 88 -61 45 -44 50 -29 5 17 -35 36 -98 71
-125 71 -10 -1 5 -12 32 -27z"/>
<path d="M3044 2401 c3 -5 15 -7 25 -4 10 3 28 0 40 -6 12 -7 21 -8 21 -3 0 6
-10 12 -22 16 -34 9 -70 7 -64 -3z"/>
<path d="M3690 2393 c1 -5 7 -19 15 -33 10 -18 14 -20 15 -8 0 23 -11 48 -21
48 -5 0 -9 -3 -9 -7z"/>
<path d="M3025 2350 c-3 -5 -2 -10 4 -10 5 0 13 5 16 10 3 6 2 10 -4 10 -5 0
-13 -4 -16 -10z"/>
<path d="M3086 2351 c5 -5 20 -12 34 -16 22 -7 23 -6 11 9 -7 9 -23 16 -34 16
-13 0 -17 -4 -11 -9z"/>
<path d="M3290 2335 c13 -14 26 -23 28 -20 7 7 -29 45 -41 45 -6 0 0 -11 13
-25z"/>
<path d="M3040 2304 l-25 -15 34 5 c18 3 41 6 50 6 14 0 14 2 1 10 -20 13 -31
12 -60 -6z"/>
<path d="M3155 2200 c3 -5 15 -10 26 -10 11 0 17 5 14 10 -3 6 -15 10 -26 10
-11 0 -17 -4 -14 -10z"/>
<path d="M3251 2157 c19 -17 47 -50 62 -72 15 -22 27 -34 27 -27 0 20 -56 97
-84 115 -41 27 -44 19 -5 -16z"/>
<path d="M3342 2010 c0 -14 2 -19 5 -12 2 6 2 18 0 25 -3 6 -5 1 -5 -13z"/>
<path d="M3133 1974 c-7 -18 6 -45 25 -52 15 -5 33 33 26 52 -8 21 -43 21 -51
0z m37 -14 c0 -5 -4 -10 -10 -10 -5 0 -10 5 -10 10 0 6 5 10 10 10 6 0 10 -4
10 -10z"/>
<path d="M3315 1849 c-10 -30 0 -33 13 -4 6 14 7 25 2 25 -5 0 -12 -9 -15 -21z"/>
<path d="M6075 6900 c3 -5 13 -10 21 -10 8 0 14 5 14 10 0 6 -9 10 -21 10 -11
0 -17 -4 -14 -10z"/>
<path d="M6084 6816 c-6 -17 2 -36 17 -36 12 0 12 37 -1 45 -6 3 -13 -1 -16
-9z"/>
<path d="M5976 6681 c-20 -32 -36 -62 -36 -65 0 -15 21 7 40 42 11 20 27 47
36 60 9 12 12 22 6 22 -6 0 -27 -26 -46 -59z"/>
<path d="M6050 6711 c0 -17 -15 -51 -36 -81 -19 -28 -34 -56 -32 -62 8 -22 78
105 78 139 0 18 -2 33 -5 33 -3 0 -5 -13 -5 -29z"/>
<path d="M5909 6561 c-19 -65 2 -91 41 -49 27 29 25 40 -5 32 -27 -7 -32 4
-15 37 7 12 7 19 1 19 -6 0 -15 -18 -22 -39z"/>
<path d="M5633 6483 c-43 -49 -103 -117 -133 -153 -30 -36 -57 -67 -60 -70
-41 -40 -241 -302 -235 -308 3 -3 11 2 18 11 152 198 311 388 464 556 30 32
40 51 29 51 -2 0 -39 -39 -83 -87z"/>
<path d="M5346 6071 c-100 -140 -118 -170 -97 -157 12 8 200 271 207 291 14
36 -11 6 -110 -134z"/>
<path d="M5317 5949 c-27 -39 -47 -73 -44 -75 4 -5 107 130 107 141 0 18 -21
-4 -63 -66z"/>
<path d="M5960 5976 c0 -14 39 -67 40 -53 0 11 -29 67 -35 67 -3 0 -5 -6 -5
-14z"/>
<path d="M5934 5917 c33 -35 63 -62 65 -61 8 7 -42 74 -73 98 -60 45 -56 28 8
-37z"/>
<path d="M5095 5815 c-49 -68 -92 -130 -94 -136 -9 -28 22 9 100 118 99 137
102 143 92 143 -4 0 -48 -56 -98 -125z"/>
<path d="M5910 5885 c13 -14 31 -25 39 -25 11 1 8 8 -12 25 -37 33 -57 32 -27
0z"/>
<path d="M5167 5821 c-55 -77 -75 -111 -64 -111 4 0 109 142 131 178 4 6 3 12
-2 12 -5 0 -34 -36 -65 -79z"/>
<path d="M5340 5865 c-7 -9 -11 -18 -8 -20 3 -3 11 1 18 10 7 9 11 18 8 20 -3
3 -11 -1 -18 -10z"/>
<path d="M5236 5835 c-9 -13 -16 -27 -16 -31 0 -10 30 17 41 38 15 27 -6 22
-25 -7z"/>
<path d="M6000 5830 c0 -5 5 -10 11 -10 5 0 7 5 4 10 -3 6 -8 10 -11 10 -2 0
-4 -4 -4 -10z"/>
<path d="M6270 5549 l-23 -31 -19 23 c-15 18 -18 19 -14 6 16 -50 17 -64 2
-76 -13 -11 -17 -9 -26 14 -19 50 -22 18 -4 -39 l18 -57 11 33 c8 25 16 33 32
32 19 0 21 4 17 22 -4 15 2 37 16 59 28 46 20 57 -10 14z"/>
<path d="M6120 5508 c0 -4 11 -31 24 -60 13 -29 29 -64 34 -78 l11 -25 0 25
c0 14 -8 43 -18 65 -19 41 -50 85 -51 73z"/>
<path d="M6080 5468 c0 -4 11 -27 24 -51 13 -25 28 -60 35 -78 6 -18 13 -30
16 -27 8 8 -34 114 -55 140 -11 13 -19 20 -20 16z"/>
<path d="M5480 5323 c-34 -43 -83 -106 -108 -140 -47 -65 -59 -72 -81 -50 -10
10 -10 7 0 -15 11 -26 7 -34 -78 -150 -138 -189 -177 -247 -171 -253 3 -3 63
75 134 175 89 125 134 180 147 180 13 0 17 5 13 15 -3 10 34 68 105 161 115
152 146 213 39 77z"/>
<path d="M6040 5392 c0 -6 5 -14 10 -17 6 -4 25 -31 42 -61 17 -30 33 -53 35
-50 7 7 -47 103 -68 122 -11 10 -19 12 -19 6z"/>
<path d="M6004 5325 c15 -20 34 -56 43 -80 14 -42 33 -69 33 -46 0 34 -73 161
-93 161 -5 0 3 -16 17 -35z"/>
<path d="M4632 5215 c-13 -29 -5 -33 14 -7 15 20 18 32 6 32 -5 0 -14 -11 -20
-25z"/>
<path d="M5958 5213 c11 -16 29 -48 41 -71 12 -24 24 -42 27 -39 11 11 -59
137 -77 137 -6 0 -2 -12 9 -27z"/>
<path d="M5930 5108 c50 -77 56 -83 36 -35 -19 46 -54 97 -66 97 -5 0 8 -28
30 -62z"/>
<path d="M4468 5003 c-30 -38 -73 -92 -96 -122 -23 -29 -42 -60 -42 -69 0 -8
23 16 52 54 28 38 70 92 93 119 64 78 68 85 57 85 -6 0 -35 -30 -64 -67z"/>
<path d="M5660 4892 c0 -8 8 -26 19 -40 10 -15 31 -51 45 -80 15 -30 30 -52
32 -49 6 6 -56 132 -80 162 -10 13 -15 15 -16 7z"/>
<path d="M4380 4817 c-25 -34 -56 -76 -69 -94 -13 -18 -22 -36 -19 -39 6 -5
148 178 148 190 0 17 -20 -1 -60 -57z"/>
<path d="M5617 4818 c5 -7 19 -30 32 -51 13 -21 26 -36 28 -33 8 7 -46 96 -58
96 -6 0 -6 -5 -2 -12z"/>
<path d="M5556 4758 c20 -35 47 -69 51 -65 6 7 -40 77 -50 77 -5 0 -5 -6 -1
-12z"/>
<path d="M4090 4514 c-96 -128 -134 -184 -128 -190 4 -3 238 304 238 313 0 16
-30 -18 -110 -123z"/>
<path d="M5633 4618 c4 -14 9 -37 13 -51 4 -18 0 -35 -15 -56 -24 -34 -27 -61
-7 -61 22 0 110 140 97 153 -7 7 -17 5 -31 -8 -18 -16 -23 -17 -30 -5 -6 8
-10 20 -10 27 0 6 -5 15 -11 19 -8 5 -10 -1 -6 -18z"/>
<path d="M4918 4548 c-32 -42 -51 -78 -45 -84 3 -3 14 7 25 23 23 33 54 93 48
93 -2 0 -15 -15 -28 -32z"/>
<path d="M4168 4518 c-46 -62 -119 -180 -116 -189 3 -8 83 108 130 187 25 43
18 44 -14 2z"/>
<path d="M4184 4457 c-11 -18 -29 -44 -38 -59 -10 -16 -14 -28 -10 -28 13 0
77 97 73 109 -2 6 -13 -4 -25 -22z"/>
<path d="M4200 4419 c-13 -24 -4 -41 10 -19 10 16 13 40 5 40 -2 0 -9 -9 -15
-21z"/>
<path d="M4873 4378 c-95 -148 -157 -258 -145 -258 5 0 19 19 32 43 22 39 112
185 154 250 10 15 14 27 9 27 -6 0 -28 -28 -50 -62z"/>
<path d="M4937 4363 c-45 -72 -109 -194 -104 -199 2 -3 19 21 37 53 18 32 41
73 52 91 10 18 26 44 35 58 8 14 13 27 10 30 -3 3 -16 -11 -30 -33z"/>
<path d="M4700 4213 c-62 -98 -126 -200 -142 -226 -17 -26 -27 -51 -23 -55 4
-4 10 -2 12 5 5 13 61 103 182 292 109 170 104 161 92 161 -5 0 -60 -80 -121
-177z"/>
<path d="M5275 4288 c19 -35 37 -80 40 -101 6 -33 25 -63 25 -39 0 24 -35 122
-56 160 -39 66 -46 49 -9 -20z"/>
<path d="M4940 4231 c-13 -25 -13 -34 0 -26 16 10 32 45 21 45 -6 0 -15 -9
-21 -19z"/>
<path d="M5201 4205 c12 -19 25 -37 29 -40 5 -3 14 -28 21 -55 7 -28 17 -50
22 -50 4 0 6 9 3 20 -3 11 -9 30 -12 43 -8 29 -64 117 -75 117 -4 0 1 -16 12
-35z"/>
<path d="M5155 3920 c-3 -5 -1 -10 4 -10 6 0 11 5 11 10 0 6 -2 10 -4 10 -3 0
-8 -4 -11 -10z"/>
<path d="M5100 3857 c0 -8 7 -20 15 -27 12 -10 15 -10 15 3 0 8 -7 20 -15 27
-12 10 -15 10 -15 -3z"/>
<path d="M4710 3646 c0 -5 8 -23 19 -40 21 -35 56 -141 67 -201 3 -22 9 -34
11 -27 8 22 -17 130 -42 186 -23 52 -54 98 -55 82z"/>
<path d="M4625 3591 c22 -43 38 -49 18 -7 -9 20 -20 36 -25 36 -5 0 -2 -13 7
-29z"/>
<path d="M4670 3613 c0 -13 73 -173 77 -169 6 6 -57 165 -68 171 -5 4 -9 3 -9
-2z"/>
</g>
</svg>
